<?xml version="1.0" standalone="no"?>
<!DOCTYPE svg PUBLIC "-//W3C//DTD SVG 1.1//EN" "http://www.w3.org/Graphics/SVG/1.1/DTD/svg11.dtd" >
<svg>
<metadata>
Created by FontForge 20090914 at Thu Nov 29 16:42:38 2012
 By www-data
Copyright &#194;&#169; 2008 - 2011 Linotype GmbH, www.linotype.com. All rights reserved. This font software may not be reproduced, modified, disclosed or transferred without the express written approval of Linotype GmbH.
</metadata>
<defs>
<font id="DINNextLTArabic-Light" horiz-adv-x="532" >
  <font-face 
    font-family="DIN Next LT Arabic Light"
    font-weight="300"
    font-stretch="normal"
    units-per-em="1000"
    panose-1="2 11 3 3 2 2 3 5 2 3"
    ascent="750"
    descent="-250"
    x-height="476.999"
    cap-height="680"
    bbox="-179.75 -427 1185 1389"
    underline-thickness="50"
    underline-position="-50"
    unicode-range="U+000D-U+FEFC"
  />
<missing-glyph horiz-adv-x="470" 
d="M0 670c0 6.66699 3.33301 10 10 10h450c6.66699 0 10 -3.33301 10 -10v-660c0 -6.66699 -3.33301 -10 -10 -10h-450c-6.66699 -0 -10 3.33301 -10 10v660zM39 43c0 -4 2 -6 6 -6h380c4 0 6 2 6 6v594c0 4 -2 6 -6 6h-380c-4 0 -6 -2 -6 -6v-594zM215 224
c-6.66699 0 -10 3.33398 -10 10.001v24c0 15.333 1.66699 27.833 5 37.5s9 19.5 17 29.5l37 48c15.333 18 25.333 32.5 30 43.5s7 23.167 7 36.5c0 21.333 -6.66699 38.333 -20 51s-30.666 19 -51.999 19c-41.333 0 -67 -22.333 -77 -67
c-1.33301 -6 -5.33301 -8.66699 -12 -8l-21 4c-6.66699 1.33301 -9.33398 5 -8.00098 11c5.33301 29.333 18.5 53.166 39.5 71.499s47.5 27.5 79.5 27.5c34 0 61.167 -10.5 81.5 -31.5s30.5 -46.833 30.5 -77.5c0 -19.333 -3 -35.833 -9 -49.5s-15.667 -28.5 -29 -44.5
l-37 -48c-8.66699 -10.667 -14.167 -19.5 -16.5 -26.5s-3.5 -16.5 -3.5 -28.5v-22c0 -6.66699 -3.33301 -10 -10 -10h-22zM200 162.001c0 6.66699 3.33301 10 10 10h31c6.66699 0 10 -3.33301 10 -10v-39c0 -6.66699 -3.33301 -10 -10 -10h-31
c-6.66699 0 -10 3.33301 -10 10v39z" />
    <glyph glyph-name="aLam.init_aAlifMadda.fina" unicode="&#xfedf;&#xfe82;" horiz-adv-x="634" arabic-form="isolated" 
d="M132 627c3.33301 12 7.83496 21.4971 13.502 28.4971s11.667 12.5 18 16.5s13 6.5 20 7.5s13.5 1.5 19.5 1.5c15.333 0 31.5 -2.66699 48.5 -8s34 -11.166 51 -17.499s33.667 -12.166 50 -17.499s32.166 -8 47.499 -8c11.333 0 19.5 2.5 24.5 7.5s7.5 13.833 7.5 26.5
c0 6.66699 3.33301 10 10 10h19c6.66699 0 10 -3.33301 10 -10c0 -15.333 -2.16699 -27.833 -6.5 -37.5s-10 -17 -17 -22s-15 -8.33301 -24 -10s-17.833 -2.5 -26.5 -2.5c-16.667 0 -33.834 2.66699 -51.501 8s-35.167 11.333 -52.5 18s-34 12.667 -50 18s-30.333 8 -43 8
c-6.66699 0 -13 -1.83301 -19 -5.5s-10.667 -11.167 -14 -22.5c-2 -5.33301 -5.66699 -7.66602 -11 -6.99902l-18 7c-6 1.33301 -8 5 -6 11zM326.002 55.9971l129.999 0.000976562c16.667 0 28.834 3.83301 36.501 11.5s11.5 21.5 11.5 41.5v561c0 6.66699 3.33301 10 10 10
h35c6.66699 0 10 -3.33301 10 -10v-544c0 -46.667 -9 -79.334 -27 -98.001s-48 -28 -90 -28h-387c-6.66699 0 -10 3.33301 -10 10v36c0 6.66699 3.33301 10 10 10h216v473c0 6.66699 3.33301 10 10 10h35c6.66699 0 10 -3.33301 10 -10v-473z" />
    <glyph glyph-name="aLam.medi_aAlifMadda.fina" unicode="&#xfee0;&#xfe82;" horiz-adv-x="660" arabic-form="final" 
d="M132 627c3.33301 12 7.83496 21.4971 13.502 28.4971s11.667 12.5 18 16.5s13 6.5 20 7.5s13.5 1.5 19.5 1.5c15.333 0 31.5 -2.66699 48.5 -8s34 -11.166 51 -17.499s33.667 -12.166 50 -17.499s32.166 -8 47.499 -8c11.333 0 19.5 2.5 24.5 7.5s7.5 13.833 7.5 26.5
c0 6.66699 3.33301 10 10 10h19c6.66699 0 10 -3.33301 10 -10c0 -15.333 -2.16699 -27.833 -6.5 -37.5s-10 -17 -17 -22s-15 -8.33301 -24 -10s-17.833 -2.5 -26.5 -2.5c-16.667 0 -33.834 2.66699 -51.501 8s-35.167 11.333 -52.5 18s-34 12.667 -50 18s-30.333 8 -43 8
c-6.66699 0 -13 -1.83301 -19 -5.5s-10.667 -11.167 -14 -22.5c-2 -5.33301 -5.66699 -7.66602 -11 -6.99902l-18 7c-6 1.33301 -8 5 -6 11zM546.002 49.9971c-8 -18 -20.334 -30.832 -37.001 -38.499s-39 -11.5 -67 -11.5h-387c-6.66699 0 -10 3.33301 -10 10v36
c0 6.66699 3.33301 10 10 10h216v473c0 6.66699 3.33301 10 10 10h35c6.66699 0 10 -3.33301 10 -10v-473h130c16.667 0 28.834 3.83301 36.501 11.5s11.5 21.5 11.5 41.5v561c0 6.66699 3.33301 10 10 10h35c6.66699 0 10 -3.33301 10 -10v-554
c0 -20.667 9.5 -35.834 28.5 -45.501s41.5 -14.5 67.5 -14.5h5c13.333 0 23.333 -1.83301 30 -5.5s10 -10.167 10 -19.5c0 -15.333 -3.16699 -24.333 -9.5 -27s-16.5 -4 -30.5 -4c-27.333 0 -50.5 3 -69.5 9s-33.833 19.667 -44.5 41z" />
    <glyph glyph-name="aLam.init_aAlifHamza.fina" unicode="&#xfedf;&#xfe84;" horiz-adv-x="634" arabic-form="isolated" 
d="M240 642c-5.33301 8.66699 -9.83008 17.9961 -13.4971 27.9961s-5.5 22.667 -5.5 38c0 8.66699 1.5 18.334 4.5 29.001s8.16699 20.834 15.5 30.501s17.333 17.834 30 24.501s28.667 10 48 10c15.333 0 30.166 -3.16699 44.499 -9.5s25.166 -15.166 32.499 -26.499
c2 -4 1.33301 -7.66699 -2 -11l-15 -13c-3.33301 -3.33301 -7 -3 -11 1c-6 6.66699 -13.5 12 -22.5 16s-19.167 6 -30.5 6c-17.333 0 -30.833 -6 -40.5 -18s-14.5 -26.667 -14.5 -44c0 -12.667 3.16699 -24.5 9.5 -35.5s13.166 -19.5 20.499 -25.5h105c4 0 6 -2.33301 6 -7
v-24c0 -4.66699 -2 -7 -6 -7h-193c-4 0 -6 2.33301 -6 7v24c0 4.66699 2 7 6 7h38zM326.003 55.9961l129.999 0.000976562c16.667 0 28.834 3.83301 36.501 11.5s11.5 21.5 11.5 41.5v561c0 6.66699 3.33301 10 10 10h35c6.66699 0 10 -3.33301 10 -10v-544
c0 -46.667 -9 -79.334 -27 -98.001s-48 -28 -90 -28h-387c-6.66699 0 -10 3.33301 -10 10v36c0 6.66699 3.33301 10 10 10h216v473c0 6.66699 3.33301 10 10 10h35c6.66699 0 10 -3.33301 10 -10v-473z" />
    <glyph glyph-name="aLam.medi_aAlifHamza.fina" unicode="&#xfee0;&#xfe84;" horiz-adv-x="660" arabic-form="final" 
d="M240 642c-5.33301 8.66699 -9.83008 17.9961 -13.4971 27.9961s-5.5 22.667 -5.5 38c0 8.66699 1.5 18.334 4.5 29.001s8.16699 20.834 15.5 30.501s17.333 17.834 30 24.501s28.667 10 48 10c15.333 0 30.166 -3.16699 44.499 -9.5s25.166 -15.166 32.499 -26.499
c2 -4 1.33301 -7.66699 -2 -11l-15 -13c-3.33301 -3.33301 -7 -3 -11 1c-6 6.66699 -13.5 12 -22.5 16s-19.167 6 -30.5 6c-17.333 0 -30.833 -6 -40.5 -18s-14.5 -26.667 -14.5 -44c0 -12.667 3.16699 -24.5 9.5 -35.5s13.166 -19.5 20.499 -25.5h105c4 0 6 -2.33301 6 -7
v-24c0 -4.66699 -2 -7 -6 -7h-193c-4 0 -6 2.33301 -6 7v24c0 4.66699 2 7 6 7h38zM546.003 49.9961c-8 -18 -20.334 -30.832 -37.001 -38.499s-39 -11.5 -67 -11.5h-387c-6.66699 0 -10 3.33301 -10 10v36c0 6.66699 3.33301 10 10 10h216v473c0 6.66699 3.33301 10 10 10
h35c6.66699 0 10 -3.33301 10 -10v-473h130c16.667 0 28.834 3.83301 36.501 11.5s11.5 21.5 11.5 41.5v561c0 6.66699 3.33301 10 10 10h35c6.66699 0 10 -3.33301 10 -10v-554c0 -20.667 9.5 -35.834 28.5 -45.501s41.5 -14.5 67.5 -14.5h5
c13.333 0 23.333 -1.83301 30 -5.5s10 -10.167 10 -19.5c0 -15.333 -3.16699 -24.333 -9.5 -27s-16.5 -4 -30.5 -4c-27.333 0 -50.5 3 -69.5 9s-33.833 19.667 -44.5 41z" />
    <glyph glyph-name="aLam.init_aAlifHamzabelow.fina" unicode="&#xfedf;&#xfe88;" horiz-adv-x="634" arabic-form="isolated" 
d="M238 -230c-5.33301 8.66699 -9.8291 17.9971 -13.4961 27.9971s-5.5 22.667 -5.5 38c0 8.66699 1.5 18.334 4.5 29.001s8.16699 20.834 15.5 30.501s17.333 17.834 30 24.501s28.667 10 48 10c15.333 0 30.166 -3.16699 44.499 -9.5s25.166 -15.166 32.499 -26.499
c1.33301 -2.66699 1.66602 -4.83398 0.999023 -6.50098s-1.66699 -3.16699 -3 -4.5l-15 -13c-3.33301 -3.33301 -7 -3 -11 1c-6 6.66699 -13.5 12 -22.5 16s-19.167 6 -30.5 6c-17.333 0 -30.833 -6 -40.5 -18s-14.5 -26.667 -14.5 -44c0 -12.667 3.16699 -24.5 9.5 -35.5
s13.166 -19.5 20.499 -25.5h105c4 0 6 -2.33301 6 -7v-24c0 -4.66699 -2 -7 -6 -7h-193c-4 0 -6 2.33301 -6 7v24c0 4.66699 2 7 6 7h38zM326.004 55.9971l129.999 0.000976562c16.667 0 28.834 3.83301 36.501 11.5s11.5 21.5 11.5 41.5v561c0 6.66699 3.33301 10 10 10h35
c6.66699 0 10 -3.33301 10 -10v-544c0 -46.667 -9 -79.334 -27 -98.001s-48 -28 -90 -28h-387c-6.66699 0 -10 3.33301 -10 10v36c0 6.66699 3.33301 10 10 10h216v473c0 6.66699 3.33301 10 10 10h35c6.66699 0 10 -3.33301 10 -10v-473z" />
    <glyph glyph-name="aLam.medi_aAlifHamzabelow.fina" unicode="&#xfee0;&#xfe88;" horiz-adv-x="660" arabic-form="final" 
d="M238 -230c-5.33301 8.66699 -9.8291 17.9971 -13.4961 27.9971s-5.5 22.667 -5.5 38c0 8.66699 1.5 18.334 4.5 29.001s8.16699 20.834 15.5 30.501s17.333 17.834 30 24.501s28.667 10 48 10c15.333 0 30.166 -3.16699 44.499 -9.5s25.166 -15.166 32.499 -26.499
c1.33301 -2.66699 1.66602 -4.83398 0.999023 -6.50098s-1.66699 -3.16699 -3 -4.5l-15 -13c-3.33301 -3.33301 -7 -3 -11 1c-6 6.66699 -13.5 12 -22.5 16s-19.167 6 -30.5 6c-17.333 0 -30.833 -6 -40.5 -18s-14.5 -26.667 -14.5 -44c0 -12.667 3.16699 -24.5 9.5 -35.5
s13.166 -19.5 20.499 -25.5h105c4 0 6 -2.33301 6 -7v-24c0 -4.66699 -2 -7 -6 -7h-193c-4 0 -6 2.33301 -6 7v24c0 4.66699 2 7 6 7h38zM546.004 49.9971c-8 -18 -20.334 -30.832 -37.001 -38.499s-39 -11.5 -67 -11.5h-387c-6.66699 0 -10 3.33301 -10 10v36
c0 6.66699 3.33301 10 10 10h216v473c0 6.66699 3.33301 10 10 10h35c6.66699 0 10 -3.33301 10 -10v-473h130c16.667 0 28.834 3.83301 36.501 11.5s11.5 21.5 11.5 41.5v561c0 6.66699 3.33301 10 10 10h35c6.66699 0 10 -3.33301 10 -10v-554
c0 -20.667 9.5 -35.834 28.5 -45.501s41.5 -14.5 67.5 -14.5h5c13.333 0 23.333 -1.83301 30 -5.5s10 -10.167 10 -19.5c0 -15.333 -3.16699 -24.333 -9.5 -27s-16.5 -4 -30.5 -4c-27.333 0 -50.5 3 -69.5 9s-33.833 19.667 -44.5 41z" />
    <glyph glyph-name="aLam.init_aAlif.fina" unicode="&#xfedf;&#xfe8e;" horiz-adv-x="634" arabic-form="isolated" 
d="M326 56l129.999 0.000976562c16.667 0 28.834 3.83301 36.501 11.5s11.5 21.5 11.5 41.5v561c0 6.66699 3.33301 10 10 10h35c6.66699 0 10 -3.33301 10 -10v-544c0 -46.667 -9 -79.334 -27 -98.001s-48 -28 -90 -28h-387c-6.66699 -0 -10 3.33301 -10 10v36
c0 6.66699 3.33301 10 10 10h216v473c0 6.66699 3.33301 10 10 10h35c6.66699 0 10 -3.33301 10 -10v-473z" />
    <glyph glyph-name="aLam.medi_aAlif.fina" unicode="&#xfee0;&#xfe8e;" horiz-adv-x="660" arabic-form="final" 
d="M546 50c-8 -18 -20.334 -30.832 -37.001 -38.499s-39 -11.5 -67 -11.5h-387c-6.66699 0 -10 3.33301 -10 10v36c0 6.66699 3.33301 10 10 10h216v473c0 6.66699 3.33301 10 10 10h35c6.66699 0 10 -3.33301 10 -10v-473h130c16.667 0 28.834 3.83301 36.501 11.5
s11.5 21.5 11.5 41.5v561c0 6.66699 3.33301 10 10 10h35c6.66699 0 10 -3.33301 10 -10v-554c0 -20.667 9.5 -35.834 28.5 -45.501s41.5 -14.5 67.5 -14.5h5c13.333 0 23.333 -1.83301 30 -5.5s10 -10.167 10 -19.5c0 -15.333 -3.16699 -24.333 -9.5 -27s-16.5 -4 -30.5 -4
c-27.333 0 -50.5 3 -69.5 9s-33.833 19.667 -44.5 41z" />
    <glyph glyph-name="aLam.init_aAlifWasla.fina" unicode="&#xfedf;&#xfb51;" horiz-adv-x="634" 
d="M224 628c6.66699 0 10 3.66699 10 11v95c0 4.66699 2.66699 7 8 7h13c5.33301 0 8 -2.33301 8 -7v-12c10 5.33301 20.667 9.66602 32 12.999s23 5 35 5c30 0 50.833 -7.66699 62.5 -23s17.5 -33.666 17.5 -54.999c0 -42 -18 -63 -54 -63h-144c-4.66699 0 -7 2.33301 -7 7
v15c0 4.66699 2.33301 7 7 7h12zM334 711c-11.333 0 -23.168 -2 -35.501 -6s-24.166 -8.33301 -35.499 -13v-64h93c11.333 0 18.333 2.16699 21 6.5s4 13.5 4 27.5c0 15.333 -3.16699 27.333 -9.5 36s-18.833 13 -37.5 13zM325.998 56l129.999 0.000976562
c16.667 0 28.834 3.83301 36.501 11.5s11.5 21.5 11.5 41.5v561c0 6.66699 3.33301 10 10 10h35c6.66699 0 10 -3.33301 10 -10v-544c0 -46.667 -9 -79.334 -27 -98.001s-48 -28 -90 -28h-387c-6.66699 -0 -10 3.33301 -10 10v36c0 6.66699 3.33301 10 10 10h216v473
c0 6.66699 3.33301 10 10 10h35c6.66699 0 10 -3.33301 10 -10v-473z" />
    <glyph glyph-name="aLam.medi_aAlifWasla.fina" unicode="&#xfee0;&#xfb51;" horiz-adv-x="660" 
d="M224 628c6.66699 0 10 3.66699 10 11v95c0 4.66699 2.66699 7 8 7h13c5.33301 0 8 -2.33301 8 -7v-12c10 5.33301 20.667 9.66602 32 12.999s23 5 35 5c30 0 50.833 -7.66699 62.5 -23s17.5 -33.666 17.5 -54.999c0 -42 -18 -63 -54 -63h-144c-4.66699 0 -7 2.33301 -7 7
v15c0 4.66699 2.33301 7 7 7h12zM334 711c-11.333 0 -23.168 -2 -35.501 -6s-24.166 -8.33301 -35.499 -13v-64h93c11.333 0 18.333 2.16699 21 6.5s4 13.5 4 27.5c0 15.333 -3.16699 27.333 -9.5 36s-18.833 13 -37.5 13zM545.998 50
c-8 -18 -20.334 -30.832 -37.001 -38.499s-39 -11.5 -67 -11.5h-387c-6.66699 0 -10 3.33301 -10 10v36c0 6.66699 3.33301 10 10 10h216v473c0 6.66699 3.33301 10 10 10h35c6.66699 0 10 -3.33301 10 -10v-473h130c16.667 0 28.834 3.83301 36.501 11.5
s11.5 21.5 11.5 41.5v561c0 6.66699 3.33301 10 10 10h35c6.66699 0 10 -3.33301 10 -10v-554c0 -20.667 9.5 -35.834 28.5 -45.501s41.5 -14.5 67.5 -14.5h5c13.333 0 23.333 -1.83301 30 -5.5s10 -10.167 10 -19.5c0 -15.333 -3.16699 -24.333 -9.5 -27s-16.5 -4 -30.5 -4
c-27.333 0 -50.5 3 -69.5 9s-33.833 19.667 -44.5 41z" />
    <glyph glyph-name="aHamza" unicode="&#x621;" horiz-adv-x="366" arabic-form="isolated" 
d="M93 52c-10 13.333 -18.333 29.6699 -25 49.0029s-10 40.333 -10 63c0 14 2.33301 29.667 7 47s13 33.666 25 48.999s28 28.166 48 38.499s45.667 15.5 77 15.5c23.333 0 45 -4 65 -12s36 -21.333 48 -40c3.33301 -5.33301 4.5 -8.83301 3.5 -10.5
s-2.16699 -3.16699 -3.5 -4.5l-26 -19c-4 -3.33301 -7 -4.5 -9 -3.5s-4.33301 2.83301 -7 5.5c-9.33301 9.33301 -20.333 17.166 -33 23.499s-27.667 9.5 -45 9.5c-16.667 0 -31 -2.83301 -43 -8.5s-22 -13 -30 -22s-13.833 -19.5 -17.5 -31.5s-5.5 -24.333 -5.5 -37
c0 -25.333 5.83301 -48 17.5 -68s24.167 -34.667 37.5 -44h165c6.66699 0 10 -3.66699 10 -11v-30c0 -7.33301 -3.33301 -11 -10 -11h-302c-6.66699 0 -10 3.66699 -10 11v30c0 7.33301 3.33301 11 10 11h63z" />
    <glyph glyph-name="aAlifMadda" unicode="&#x622;" horiz-adv-x="205" arabic-form="isolated" 
d="M130 10c0 -6.66699 -3.33301 -10 -10 -10h-35c-6.66699 -0 -10 3.33301 -10 10v660c0 6.66699 3.33301 10 10 10h35c6.66699 0 10 -3.33301 10 -10v-660zM-64 777c3.33301 12 7.83496 21.4971 13.502 28.4971s11.667 12.5 18 16.5s13 6.5 20 7.5s13.5 1.5 19.5 1.5
c15.333 0 31.5 -2.66699 48.5 -8s34 -11.166 51 -17.499s33.667 -12.166 50 -17.499s32.166 -8 47.499 -8c11.333 0 19.5 2.5 24.5 7.5s7.5 13.833 7.5 26.5c0 6.66699 3.33301 10 10 10h19c6.66699 0 10 -3.33301 10 -10c0 -15.333 -2.16699 -27.833 -6.5 -37.5
s-10 -17 -17 -22s-15 -8.33301 -24 -10s-17.833 -2.5 -26.5 -2.5c-16.667 0 -33.834 2.66699 -51.501 8s-35.167 11.333 -52.5 18s-34 12.667 -50 18s-30.333 8 -43 8c-6.66699 0 -13 -1.83301 -19 -5.5s-10.667 -11.167 -14 -22.5
c-2 -5.33301 -5.66699 -7.66602 -11 -6.99902l-18 7c-6 1.33301 -8 5 -6 11z" />
    <glyph glyph-name="aAlifHamza" unicode="&#x623;" horiz-adv-x="205" arabic-form="isolated" 
d="M130 10c0 -6.66699 -3.33301 -10 -10 -10h-35c-6.66699 -0 -10 3.33301 -10 10v660c0 6.66699 3.33301 10 10 10h35c6.66699 0 10 -3.33301 10 -10v-660zM44 768c-5.33301 8.66699 -9.83008 17.9961 -13.4971 27.9961s-5.5 22.667 -5.5 38
c0 8.66699 1.5 18.334 4.5 29.001s8.16699 20.834 15.5 30.501s17.333 17.834 30 24.501s28.667 10 48 10c15.333 0 30.166 -3.16699 44.499 -9.5s25.166 -15.166 32.499 -26.499c2 -4 1.33301 -7.66699 -2 -11l-15 -13c-3.33301 -3.33301 -7 -3 -11 1
c-6 6.66699 -13.5 12 -22.5 16s-19.167 6 -30.5 6c-17.333 0 -30.833 -6 -40.5 -18s-14.5 -26.667 -14.5 -44c0 -12.667 3.16699 -24.5 9.5 -35.5s13.166 -19.5 20.499 -25.5h105c4 0 6 -2.33301 6 -7v-24c0 -4.66699 -2 -7 -6 -7h-193c-4 0 -6 2.33301 -6 7v24
c0 4.66699 2 7 6 7h38z" />
    <glyph glyph-name="aWawHamza" unicode="&#x624;" horiz-adv-x="488" arabic-form="isolated" 
d="M145 -196c-6.66699 0 -9.99805 3.33301 -9.99805 10v36c0 6.66699 3.33301 10 10 10h122c32.667 0 56.834 6 72.501 18s23.5 36 23.5 72v50h-113c-28 -0 -53.333 3.33301 -76 10s-42.167 17.667 -58.5 33s-28.833 35.833 -37.5 61.5s-13 57.5 -13 95.5
c0 36 4.66699 67.833 14 95.5s22.166 50.667 38.499 69s35.333 32.333 57 42s45.167 14.5 70.5 14.5c59.333 0 103.166 -17.667 131.499 -53s42.5 -89.333 42.5 -162v-255c0 -52 -10.833 -89.5 -32.5 -112.5s-55.834 -34.5 -102.501 -34.5h-139zM245.002 365
c-36.667 0 -66.167 -14 -88.5 -42s-33.5 -69.667 -33.5 -125c0 -26.667 2.5 -49 7.5 -67s12.833 -32.5 23.5 -43.5s24 -19 40 -24s34.667 -7.5 56 -7.5h113v148c0 51.333 -9 91 -27 119s-48.333 42 -91 42zM156.002 529c-5.33301 6.66699 -10.002 14.832 -14.002 24.499
s-6 21.167 -6 34.5c0 8.66699 1.5 18.334 4.5 29.001s8.5 20.834 16.5 30.501s19 17.667 33 24s31.667 9.5 53 9.5c17.333 0 33 -3.33301 47 -10s25 -14.667 33 -24c3.33301 -4 3 -8 -1 -12l-20 -18c-1.33301 -0.666992 -3.66602 0.666016 -6.99902 3.99902
c-6.66699 5.33301 -14.667 10.333 -24 15s-20.666 7 -33.999 7c-22.667 0 -38.5 -6.16699 -47.5 -18.5s-13.5 -24.833 -13.5 -37.5c0 -16 4 -28.667 12 -38s15.667 -16 23 -20h117c4 0 6 -2.33301 6 -7v-25c0 -4.66699 -2 -7 -6 -7h-205c-4 0 -6 2.33301 -6 7v25
c0 4.66699 2 7 6 7h33z" />
    <glyph glyph-name="aAlifHamzabelow" unicode="&#x625;" horiz-adv-x="205" arabic-form="isolated" 
d="M130 10c0 -6.66699 -3.33301 -10 -10 -10h-35c-6.66699 -0 -10 3.33301 -10 10v660c0 6.66699 3.33301 10 10 10h35c6.66699 0 10 -3.33301 10 -10v-660zM44 -230c-5.33301 8.66699 -9.8291 17.9971 -13.4961 27.9971s-5.5 22.667 -5.5 38
c0 8.66699 1.5 18.334 4.5 29.001s8.16699 20.834 15.5 30.501s17.333 17.834 30 24.501s28.667 10 48 10c15.333 0 30.166 -3.16699 44.499 -9.5s25.166 -15.166 32.499 -26.499c1.33301 -2.66699 1.66602 -4.83398 0.999023 -6.50098s-1.66699 -3.16699 -3 -4.5l-15 -13
c-3.33301 -3.33301 -7 -3 -11 1c-6 6.66699 -13.5 12 -22.5 16s-19.167 6 -30.5 6c-17.333 0 -30.833 -6 -40.5 -18s-14.5 -26.667 -14.5 -44c0 -12.667 3.16699 -24.5 9.5 -35.5s13.166 -19.5 20.499 -25.5h105c4 0 6 -2.33301 6 -7v-24c0 -4.66699 -2 -7 -6 -7h-193
c-4 0 -6 2.33301 -6 7v24c0 4.66699 2 7 6 7h38z" />
    <glyph glyph-name="aYehHamza" unicode="&#x626;" horiz-adv-x="758" arabic-form="isolated" 
d="M113 352c-5.33301 6.66699 -10.002 14.832 -14.002 24.499s-6 21.167 -6 34.5c0 8.66699 1.5 18.334 4.5 29.001s8.5 20.834 16.5 30.501s19 17.667 33 24s31.667 9.5 53 9.5c17.333 0 33 -3.33301 47 -10s25 -14.667 33 -24c3.33301 -4 3 -8 -1 -12l-20 -18
c-1.33301 -0.666992 -3.66602 0.666016 -6.99902 3.99902c-6.66699 5.33301 -14.667 10.333 -24 15s-20.666 7 -33.999 7c-22.667 0 -38.5 -6.16699 -47.5 -18.5s-13.5 -24.833 -13.5 -37.5c0 -16 4 -28.667 12 -38s15.667 -16 23 -20h117c4 0 6 -2.33301 6 -7v-25
c0 -4.66699 -2 -7 -6 -7h-205c-4 0 -6 2.33301 -6 7v25c0 4.66699 2 7 6 7h33zM93.998 24.998c0 -30 4.66309 -55.3389 13.9961 -76.0059s21.833 -37.5 37.5 -50.5s34 -22.333 55 -28s43.5 -8.5 67.5 -8.5h242c20 0 36.5 1.5 49.5 4.5s23.333 7.16699 31 12.5
s12.834 11.833 15.501 19.5s4 16.5 4 26.5c0 13.333 -5.66699 26.333 -17 39s-25.5 25.334 -42.5 38.001l-55 39.5c-19.667 13.667 -38 28.834 -55 45.501s-31.167 34.834 -42.5 54.501s-17 41.834 -17 66.501c0 16.667 2.83301 33.667 8.5 51s15 33.166 28 47.499
s30 26 51 35s46.5 13.5 76.5 13.5c22 0 41.5 -2.33301 58.5 -7s32 -10.667 45 -18s24.333 -15.333 34 -24s18.167 -17 25.5 -25c3.33301 -4 2.33301 -8.66699 -3 -14l-26 -28c-3.33301 -4 -7.66602 -3.33301 -12.999 2c-16 16 -33.167 29.5 -51.5 40.5
s-41.833 16.5 -70.5 16.5c-30 0 -54.833 -7.5 -74.5 -22.5s-29.5 -35.167 -29.5 -60.5c0 -19.333 5.66699 -37 17 -53s25.5 -31.333 42.5 -46s35.333 -29 55 -43s38 -28.5 55 -43.5s31.167 -31 42.5 -48s17 -36.167 17 -57.5c0 -17.333 -2.5 -33.166 -7.5 -47.499
s-13.167 -27 -24.5 -38s-26 -19.5 -44 -25.5s-40 -9 -66 -9h-268c-69.333 0 -123.666 19 -162.999 57s-59 90.667 -59 158c0 42 6.83301 80.333 20.5 115s28.5 63.334 44.5 86.001c2.66699 4 7.33398 4 14.001 0l31 -20c5.33301 -3.33301 6.33301 -7.66602 3 -12.999
c-13.333 -20.667 -26 -45.167 -38 -73.5s-18 -57.833 -18 -88.5z" />
    <glyph glyph-name="aAlif" unicode="&#x627;" horiz-adv-x="205" arabic-form="isolated" 
d="M130 10c0 -6.66699 -3.33301 -10 -10 -10h-35c-6.66699 -0 -10 3.33301 -10 10v660c0 6.66699 3.33301 10 10 10h35c6.66699 0 10 -3.33301 10 -10v-660z" />
    <glyph glyph-name="aBeh" unicode="&#x628;" horiz-adv-x="803" arabic-form="isolated" 
d="M640 56c17.333 0 29.832 3.83301 37.499 11.5s11.5 21.5 11.5 41.5v284c0 6.66699 3.33301 10 10 10h35c6.66699 0 10 -3.33301 10 -10v-285c0 -38 -8.33301 -65.5 -25 -82.5s-43 -25.5 -79 -25.5h-477c-42 -0 -72 8.33301 -90 25s-27 45 -27 85v219
c0 6.66699 3.33301 10 10 10h35c6.66699 0 10 -3.33301 10 -10v-220c0 -19.333 3.83301 -33 11.5 -41s19.834 -12 36.501 -12h491v0zM363.999 -164c-6.66699 0 -10 3.33301 -10 10v60c0 6.66699 3.33301 10 10 10h52c6.66699 0 10 -3.33301 10 -10v-60
c0 -6.66699 -3.33301 -10 -10 -10h-52z" />
    <glyph glyph-name="aTehMarbuta" unicode="&#x629;" horiz-adv-x="457" arabic-form="isolated" 
d="M222 -7c-57.333 0 -101 17.333 -131 52s-45 89 -45 163c0 142 58.667 213 176 213s176 -71 176 -213c0 -74 -14.833 -128.333 -44.5 -163s-73.5 -52 -131.5 -52zM222 365c-42 0 -72.333 -14.167 -91 -42.5s-28 -67.5 -28 -117.5c0 -52.667 9.33301 -91.834 28 -117.501
s49 -38.5 91 -38.5s72.5 12.833 91.5 38.5s28.5 64.834 28.5 117.501c0 49.333 -9.5 88.333 -28.5 117s-49.5 43 -91.5 43zM260 501c-6.66699 0 -10 3.33301 -10 10v60c0 6.66699 3.33301 10 10 10h52c6.66699 0 10 -3.33301 10 -10v-60c0 -6.66699 -3.33301 -10 -10 -10
h-52zM132 501c-6.66699 0 -10 3.33301 -10 10v60c0 6.66699 3.33301 10 10 10h52c6.66699 0 10 -3.33301 10 -10v-60c0 -6.66699 -3.33301 -10 -10 -10h-52z" />
    <glyph glyph-name="aTeh" unicode="&#x62a;" horiz-adv-x="803" arabic-form="isolated" 
d="M640 56c17.333 0 29.832 3.83301 37.499 11.5s11.5 21.5 11.5 41.5v284c0 6.66699 3.33301 10 10 10h35c6.66699 0 10 -3.33301 10 -10v-285c0 -38 -8.33301 -65.5 -25 -82.5s-43 -25.5 -79 -25.5h-477c-42 -0 -72 8.33301 -90 25s-27 45 -27 85v219
c0 6.66699 3.33301 10 10 10h35c6.66699 0 10 -3.33301 10 -10v-220c0 -19.333 3.83301 -33 11.5 -41s19.834 -12 36.501 -12h491v0zM435.999 442c-6.66699 0 -10 3.33301 -10 10v60c0 6.66699 3.33301 10 10 10h52c6.66699 0 10 -3.33301 10 -10v-60
c0 -6.66699 -3.33301 -10 -10 -10h-52zM307.999 442c-6.66699 0 -10 3.33301 -10 10v60c0 6.66699 3.33301 10 10 10h52c6.66699 0 10 -3.33301 10 -10v-60c0 -6.66699 -3.33301 -10 -10 -10h-52z" />
    <glyph glyph-name="aTheh" unicode="&#x62b;" horiz-adv-x="803" arabic-form="isolated" 
d="M640 56c17.333 0 29.832 3.83301 37.499 11.5s11.5 21.5 11.5 41.5v284c0 6.66699 3.33301 10 10 10h35c6.66699 0 10 -3.33301 10 -10v-285c0 -38 -8.33301 -65.5 -25 -82.5s-43 -25.5 -79 -25.5h-477c-42 -0 -72 8.33301 -90 25s-27 45 -27 85v219
c0 6.66699 3.33301 10 10 10h35c6.66699 0 10 -3.33301 10 -10v-220c0 -19.333 3.83301 -33 11.5 -41s19.834 -12 36.501 -12h491v0zM369.999 570c-6.66699 0 -10 3.33301 -10 10v60c0 6.66699 3.33301 10 10 10h52c6.66699 0 10 -3.33301 10 -10v-60
c0 -6.66699 -3.33301 -10 -10 -10h-52zM434.999 442c-6.66699 0 -10 3.33301 -10 10v60c0 6.66699 3.33301 10 10 10h52c6.66699 0 10 -3.33301 10 -10v-60c0 -6.66699 -3.33301 -10 -10 -10h-52zM306.999 442c-6.66699 0 -10 3.33301 -10 10v60c0 6.66699 3.33301 10 10 10
h52c6.66699 0 10 -3.33301 10 -10v-60c0 -6.66699 -3.33301 -10 -10 -10h-52z" />
    <glyph glyph-name="aJim" unicode="&#x62c;" horiz-adv-x="547" arabic-form="isolated" 
d="M155 0c-25.333 0 -42.5029 -6.99805 -51.5029 -20.998s-13.5 -30 -13.5 -48c0 -24 6 -41.833 18 -53.5s33 -17.5 63 -17.5h65c6.66699 0 10 -3.33301 10 -10v-36c0 -6.66699 -3.33301 -10 -10 -10h-59c-96.667 0 -145 41 -145 123c0 25.333 3.66699 46.333 11 63
s16.833 29.834 28.5 39.501s24.334 16.5 38.001 20.5s26.5 6 38.5 6h191c20 0 35.833 1.66699 47.5 5s20.667 9.16602 27 17.499s10.333 19.166 12 32.499s2.5 30 2.5 50c0 31.333 -2.5 59.5 -7.5 84.5s-13.5 46.167 -25.5 63.5s-27.667 30.666 -47 39.999
s-43.333 14 -72 14c-23.333 0 -45.666 -4.16699 -66.999 -12.5s-40.666 -22.833 -57.999 -43.5c-4 -6 -8.66699 -6.66699 -14 -2l-27 24c-6 3.33301 -7 8 -3 14c17.333 22 39.5 40.5 66.5 55.5s61.5 22.5 103.5 22.5c44 0 79.833 -7.5 107.5 -22.5s49.167 -34.5 64.5 -58.5
s25.833 -51.333 31.5 -82s8.5 -61.667 8.5 -93c0 -30 -2 -55.5 -6 -76.5s-11 -38 -21 -51s-23.5 -22.5 -40.5 -28.5s-38.5 -9 -64.5 -9h-202zM297.997 -168.998c-6.66699 0 -10 3.33301 -10 10v60c0 6.66699 3.33301 10 10 10h52c6.66699 0 10 -3.33301 10 -10v-60
c0 -6.66699 -3.33301 -10 -10 -10h-52z" />
    <glyph glyph-name="aHah" unicode="&#x62d;" horiz-adv-x="547" arabic-form="isolated" 
d="M155 0c-25.333 0 -42.5029 -6.99805 -51.5029 -20.998s-13.5 -30 -13.5 -48c0 -24 6 -41.833 18 -53.5s33 -17.5 63 -17.5h116c6.66699 0 10 -3.33301 10 -10v-36c0 -6.66699 -3.33301 -10 -10 -10h-110c-96.667 0 -145 41 -145 123c0 25.333 3.66699 46.333 11 63
s16.833 29.834 28.5 39.501s24.334 16.5 38.001 20.5s26.5 6 38.5 6h191c20 0 35.833 1.66699 47.5 5s20.667 9.16602 27 17.499s10.333 19.166 12 32.499s2.5 30 2.5 50c0 31.333 -2.5 59.5 -7.5 84.5s-13.5 46.167 -25.5 63.5s-27.667 30.666 -47 39.999
s-43.333 14 -72 14c-23.333 0 -45.666 -4.16699 -66.999 -12.5s-40.666 -22.833 -57.999 -43.5c-4 -6 -8.66699 -6.66699 -14 -2l-27 24c-6 3.33301 -7 8 -3 14c17.333 22 39.5 40.5 66.5 55.5s61.5 22.5 103.5 22.5c44 0 79.833 -7.5 107.5 -22.5s49.167 -34.5 64.5 -58.5
s25.833 -51.333 31.5 -82s8.5 -61.667 8.5 -93c0 -30 -2 -55.5 -6 -76.5s-11 -38 -21 -51s-23.5 -22.5 -40.5 -28.5s-38.5 -9 -64.5 -9h-202z" />
    <glyph glyph-name="aKhah" unicode="&#x62e;" horiz-adv-x="547" arabic-form="isolated" 
d="M155 0c-25.333 0 -42.5029 -6.99805 -51.5029 -20.998s-13.5 -30 -13.5 -48c0 -24 6 -41.833 18 -53.5s33 -17.5 63 -17.5h116c6.66699 0 10 -3.33301 10 -10v-36c0 -6.66699 -3.33301 -10 -10 -10h-110c-96.667 0 -145 41 -145 123c0 25.333 3.66699 46.333 11 63
s16.833 29.834 28.5 39.501s24.334 16.5 38.001 20.5s26.5 6 38.5 6h191c20 0 35.833 1.66699 47.5 5s20.667 9.16602 27 17.499s10.333 19.166 12 32.499s2.5 30 2.5 50c0 31.333 -2.5 59.5 -7.5 84.5s-13.5 46.167 -25.5 63.5s-27.667 30.666 -47 39.999
s-43.333 14 -72 14c-23.333 0 -45.666 -4.16699 -66.999 -12.5s-40.666 -22.833 -57.999 -43.5c-4 -6 -8.66699 -6.66699 -14 -2l-27 24c-6 3.33301 -7 8 -3 14c17.333 22 39.5 40.5 66.5 55.5s61.5 22.5 103.5 22.5c44 0 79.833 -7.5 107.5 -22.5s49.167 -34.5 64.5 -58.5
s25.833 -51.333 31.5 -82s8.5 -61.667 8.5 -93c0 -30 -2 -55.5 -6 -76.5s-11 -38 -21 -51s-23.5 -22.5 -40.5 -28.5s-38.5 -9 -64.5 -9h-202zM254.997 501.002c-6.66699 0 -10 3.33301 -10 10v60c0 6.66699 3.33301 10 10 10h40c6.66699 0 10 -3.33301 10 -10v-60
c0 -6.66699 -3.33301 -10 -10 -10h-40z" />
    <glyph glyph-name="aDal" unicode="&#x62f;" horiz-adv-x="484" arabic-form="isolated" 
d="M426 171c0 -33.333 -2.33105 -60.998 -6.99805 -82.998s-12.5 -39.5 -23.5 -52.5s-25.333 -22.167 -43 -27.5s-39.834 -8 -66.501 -8h-212c-6.66699 0 -10 3.33301 -10 10v36c0 6.66699 3.33301 10 10 10h200c20 0 36.167 1.66699 48.5 5s21.666 8.83301 27.999 16.5
s10.5 18 12.5 31s3 29.167 3 48.5v97c0 37.333 -10 65.166 -30 83.499s-52 27.5 -96 27.5h-117c-6.66699 0 -10 3.33301 -10 10v36c0 6.66699 3.33301 10 10 10h134c25.333 0 48.5 -3.33301 69.5 -10s38.833 -16.834 53.5 -30.501s26 -31.167 34 -52.5s12 -47 12 -77v-80z
" />
    <glyph glyph-name="aDhal" unicode="&#x630;" horiz-adv-x="484" arabic-form="isolated" 
d="M426 171c0 -33.333 -2.33105 -60.998 -6.99805 -82.998s-12.5 -39.5 -23.5 -52.5s-25.333 -22.167 -43 -27.5s-39.834 -8 -66.501 -8h-212c-6.66699 0 -10 3.33301 -10 10v36c0 6.66699 3.33301 10 10 10h200c20 0 36.167 1.66699 48.5 5s21.666 8.83301 27.999 16.5
s10.5 18 12.5 31s3 29.167 3 48.5v97c0 37.333 -10 65.166 -30 83.499s-52 27.5 -96 27.5h-117c-6.66699 0 -10 3.33301 -10 10v36c0 6.66699 3.33301 10 10 10h134c25.333 0 48.5 -3.33301 69.5 -10s38.833 -16.834 53.5 -30.501s26 -31.167 34 -52.5s12 -47 12 -77v-80z
M200.002 501.002c-6.66699 0 -10 3.33301 -10 10v60c0 6.66699 3.33301 10 10 10h40c6.66699 0 10 -3.33301 10 -10v-60c0 -6.66699 -3.33301 -10 -10 -10h-40z" />
    <glyph glyph-name="aReh" unicode="&#x631;" horiz-adv-x="240" arabic-form="isolated" 
d="M9 -196c-6.66699 0 -9.99902 3.33203 -9.99902 9.99902v36c0 6.66699 3.33301 10 10 10h23c27.333 0 48.166 7 62.499 21s21.5 35.333 21.5 64v448c0 6.66699 3.33301 10 10 10h35c6.66699 0 10 -3.33301 10 -10v-442c0 -47.333 -11.667 -83.666 -35 -108.999
s-60 -38 -110 -38h-17z" />
    <glyph glyph-name="aZeh" unicode="&#x632;" horiz-adv-x="240" arabic-form="isolated" 
d="M9 -196c-6.66699 0 -9.99902 3.33203 -9.99902 9.99902v36c0 6.66699 3.33301 10 10 10h23c27.333 0 48.166 7 62.499 21s21.5 35.333 21.5 64v448c0 6.66699 3.33301 10 10 10h35c6.66699 0 10 -3.33301 10 -10v-442c0 -47.333 -11.667 -83.666 -35 -108.999
s-60 -38 -110 -38h-17zM124.001 500.999c-6.66699 0 -10 3.33301 -10 10v60c0 6.66699 3.33301 10 10 10h40c6.66699 0 10 -3.33301 10 -10v-60c0 -6.66699 -3.33301 -10 -10 -10h-40z" />
    <glyph glyph-name="aSin" unicode="&#x633;" horiz-adv-x="1046" arabic-form="isolated" 
d="M843 56c18.667 0 33.5029 1.16992 44.5029 3.50293s19.5 6.83301 25.5 13.5s9.83301 15.5 11.5 26.5s2.5 25.5 2.5 43.5v250c0 6.66699 3.33301 10 10 10h36c6.66699 0 10 -3.33301 10 -10v-262c0 -28 -3 -50.5 -9 -67.5s-14.167 -30.167 -24.5 -39.5
s-22.5 -15.666 -36.5 -18.999s-29 -5 -45 -5h-46c-18.667 0 -37 4.16699 -55 12.5s-31.333 21.166 -40 38.499c-8 -16 -19.333 -28.5 -34 -37.5s-35.334 -13.5 -62.001 -13.5h-46c-14.667 0 -29.5 2.66699 -44.5 8s-27.5 13.333 -37.5 24v-13
c0 -30.667 -4.5 -58.834 -13.5 -84.501s-22.667 -47.834 -41 -66.501s-41.833 -33.334 -70.5 -44.001s-62.334 -16 -101.001 -16c-36 0 -68.167 5 -96.5 15s-52 24.167 -71 42.5s-33.5 40.5 -43.5 66.5s-15 54.667 -15 86c0 42 6.83301 80.333 20.5 115
s28.5 63.334 44.5 86.001c2.66699 4 7.33398 4 14.001 0l31 -20c5.33301 -3.33301 6.33301 -7.66602 3 -12.999c-13.333 -20.667 -26 -45.167 -38 -73.5s-18 -57.833 -18 -88.5c0 -31.333 5.66699 -57.166 17 -77.499s25.666 -36.333 42.999 -48
s36.166 -19.834 56.499 -24.501s39.833 -7 58.5 -7c23.333 0 45.166 2.66699 65.499 8s37.833 14 52.5 26s26.167 27.5 34.5 46.5s12.5 42.167 12.5 69.5v283c0 6.66699 3.33301 10 10 10h36c6.66699 0 10 -3.33301 10 -10v-170c0 -24 9 -42.333 27 -55s42 -19 72 -19
c18.667 0 33.5 1 44.5 3s19.333 6.16699 25 12.5s9.16699 15.166 10.5 26.499s2 26.333 2 45v157c0 6.66699 3.33301 10 10 10h36c6.66699 0 10 -3.33301 10 -10v-175c0 -22.667 9.33301 -39.834 28 -51.501s43.334 -17.5 74.001 -17.5z" />
    <glyph glyph-name="aShin" unicode="&#x634;" horiz-adv-x="1046" arabic-form="isolated" 
d="M843 56c18.667 0 33.5029 1.16992 44.5029 3.50293s19.5 6.83301 25.5 13.5s9.83301 15.5 11.5 26.5s2.5 25.5 2.5 43.5v250c0 6.66699 3.33301 10 10 10h36c6.66699 0 10 -3.33301 10 -10v-262c0 -28 -3 -50.5 -9 -67.5s-14.167 -30.167 -24.5 -39.5
s-22.5 -15.666 -36.5 -18.999s-29 -5 -45 -5h-46c-18.667 0 -37 4.16699 -55 12.5s-31.333 21.166 -40 38.499c-8 -16 -19.333 -28.5 -34 -37.5s-35.334 -13.5 -62.001 -13.5h-46c-14.667 0 -29.5 2.66699 -44.5 8s-27.5 13.333 -37.5 24v-13
c0 -30.667 -4.5 -58.834 -13.5 -84.501s-22.667 -47.834 -41 -66.501s-41.833 -33.334 -70.5 -44.001s-62.334 -16 -101.001 -16c-36 0 -68.167 5 -96.5 15s-52 24.167 -71 42.5s-33.5 40.5 -43.5 66.5s-15 54.667 -15 86c0 42 6.83301 80.333 20.5 115
s28.5 63.334 44.5 86.001c2.66699 4 7.33398 4 14.001 0l31 -20c5.33301 -3.33301 6.33301 -7.66602 3 -12.999c-13.333 -20.667 -26 -45.167 -38 -73.5s-18 -57.833 -18 -88.5c0 -31.333 5.66699 -57.166 17 -77.499s25.666 -36.333 42.999 -48
s36.166 -19.834 56.499 -24.501s39.833 -7 58.5 -7c23.333 0 45.166 2.66699 65.499 8s37.833 14 52.5 26s26.167 27.5 34.5 46.5s12.5 42.167 12.5 69.5v283c0 6.66699 3.33301 10 10 10h36c6.66699 0 10 -3.33301 10 -10v-170c0 -24 9 -42.333 27 -55s42 -19 72 -19
c18.667 0 33.5 1 44.5 3s19.333 6.16699 25 12.5s9.16699 15.166 10.5 26.499s2 26.333 2 45v157c0 6.66699 3.33301 10 10 10h36c6.66699 0 10 -3.33301 10 -10v-175c0 -22.667 9.33301 -39.834 28 -51.501s43.334 -17.5 74.001 -17.5zM684.003 629.003
c-6.66699 0 -10 3.33301 -10 10v60c0 6.66699 3.33301 10 10 10h52c6.66699 0 10 -3.33301 10 -10v-60c0 -6.66699 -3.33301 -10 -10 -10h-52zM749.003 501.003c-6.66699 0 -10 3.33301 -10 10v60c0 6.66699 3.33301 10 10 10h52c6.66699 0 10 -3.33301 10 -10v-60
c0 -6.66699 -3.33301 -10 -10 -10h-52zM621.003 501.003c-6.66699 0 -10 3.33301 -10 10v60c0 6.66699 3.33301 10 10 10h52c6.66699 0 10 -3.33301 10 -10v-60c0 -6.66699 -3.33301 -10 -10 -10h-52z" />
    <glyph glyph-name="aSad" unicode="&#x635;" horiz-adv-x="1038" arabic-form="isolated" 
d="M749 365c-22 0 -44.1689 -2.16602 -66.502 -6.49902s-44.166 -10 -65.499 -17s-41.666 -14.667 -60.999 -23s-37 -16.5 -53 -24.5v-238h300c21.333 0 39.333 1.16699 54 3.5s26.667 8 36 17s16 22.167 20 39.5s6 41 6 71c0 27.333 -2.66699 52 -8 74
s-14.5 40.667 -27.5 56s-30.5 27.166 -52.5 35.499s-49.333 12.5 -82 12.5zM107.998 24.001c0 -31.333 5.66602 -57.168 16.999 -77.501s25.666 -36.333 42.999 -48s36.166 -19.834 56.499 -24.501s39.833 -7 58.5 -7c22.667 0 44.167 2.66699 64.5 8s37.833 14 52.5 26
s26.334 27.5 35.001 46.5s13 42.167 13 69.5v373c0 6.66699 3.33301 10 10 10h35c6.66699 0 10 -3.33301 10 -10v-37c34 18.667 71.833 34.667 113.5 48s84.5 20 128.5 20c50 0 90.167 -7.16699 120.5 -21.5s54 -32.833 71 -55.5s28.333 -48 34 -76s8.5 -55.333 8.5 -82
c0 -43.333 -3.83301 -77.5 -11.5 -102.5s-19.5 -43.667 -35.5 -56s-36.833 -20 -62.5 -23s-56.5 -4.5 -92.5 -4.5h-275c-2 -27.333 -8 -52.833 -18 -76.5s-24.167 -44 -42.5 -61s-41.166 -30.333 -68.499 -40s-59.333 -14.5 -96 -14.5c-36 0 -68.167 5 -96.5 15
s-52 24.167 -71 42.5s-33.5 40.5 -43.5 66.5s-15 54.667 -15 86c0 42 6.83301 80.333 20.5 115s28.5 63.334 44.5 86.001c2.66699 4 7.33398 4 14.001 0l31 -20c5.33301 -3.33301 6.33301 -7.66602 3 -12.999c-13.333 -20.667 -26 -45.167 -38 -73.5s-18 -57.833 -18 -88.5z
" />
    <glyph glyph-name="aDad" unicode="&#x636;" horiz-adv-x="1038" arabic-form="isolated" 
d="M749 365c-22 0 -44.1689 -2.16602 -66.502 -6.49902s-44.166 -10 -65.499 -17s-41.666 -14.667 -60.999 -23s-37 -16.5 -53 -24.5v-238h300c21.333 0 39.333 1.16699 54 3.5s26.667 8 36 17s16 22.167 20 39.5s6 41 6 71c0 27.333 -2.66699 52 -8 74
s-14.5 40.667 -27.5 56s-30.5 27.166 -52.5 35.499s-49.333 12.5 -82 12.5zM107.998 24.001c0 -31.333 5.66602 -57.168 16.999 -77.501s25.666 -36.333 42.999 -48s36.166 -19.834 56.499 -24.501s39.833 -7 58.5 -7c22.667 0 44.167 2.66699 64.5 8s37.833 14 52.5 26
s26.334 27.5 35.001 46.5s13 42.167 13 69.5v373c0 6.66699 3.33301 10 10 10h35c6.66699 0 10 -3.33301 10 -10v-37c34 18.667 71.833 34.667 113.5 48s84.5 20 128.5 20c50 0 90.167 -7.16699 120.5 -21.5s54 -32.833 71 -55.5s28.333 -48 34 -76s8.5 -55.333 8.5 -82
c0 -43.333 -3.83301 -77.5 -11.5 -102.5s-19.5 -43.667 -35.5 -56s-36.833 -20 -62.5 -23s-56.5 -4.5 -92.5 -4.5h-275c-2 -27.333 -8 -52.833 -18 -76.5s-24.167 -44 -42.5 -61s-41.166 -30.333 -68.499 -40s-59.333 -14.5 -96 -14.5c-36 0 -68.167 5 -96.5 15
s-52 24.167 -71 42.5s-33.5 40.5 -43.5 66.5s-15 54.667 -15 86c0 42 6.83301 80.333 20.5 115s28.5 63.334 44.5 86.001c2.66699 4 7.33398 4 14.001 0l31 -20c5.33301 -3.33301 6.33301 -7.66602 3 -12.999c-13.333 -20.667 -26 -45.167 -38 -73.5s-18 -57.833 -18 -88.5z
M729.997 500.999c-6.66699 0 -10 3.33301 -10 10v60c0 6.66699 3.33301 10 10 10h40c6.66699 0 10 -3.33301 10 -10v-60c0 -6.66699 -3.33301 -10 -10 -10h-40z" />
    <glyph glyph-name="aTah" unicode="&#x637;" horiz-adv-x="723" arabic-form="isolated" 
d="M489 56c21.333 0 39.332 1.16797 53.999 3.50098s26.5 8 35.5 17s15.5 22.167 19.5 39.5s6 41 6 71c0 27.333 -2.66699 52 -8 74s-14.5 40.667 -27.5 56s-30.333 27.166 -52 35.499s-48.834 12.5 -81.501 12.5c-22 0 -44.333 -2.16699 -67 -6.5
s-44.667 -9.83301 -66 -16.5s-41.666 -14.334 -60.999 -23.001s-36.666 -17 -51.999 -25v-175c0 -10 -1 -21.167 -3 -33.5s-4.66699 -22.166 -8 -29.499h311zM164.999 0.000976562c-5.33301 0 -11 0.667969 -17 2.00098s-11 3.66602 -15 6.99902
c-6.66699 -3.33301 -14 -5.66602 -22 -6.99902s-18.333 -2 -31 -2h-39c-6.66699 0 -10 3.33301 -10 10v36c0 6.66699 3.33301 10 10 10h34c11.333 0 20.833 1.16699 28.5 3.5s13.667 6.83301 18 13.5s7.33301 15.5 9 26.5s2.5 25.167 2.5 42.5v528
c0 6.66699 3.33301 10 10 10h36c6.66699 0 10 -3.33301 10 -10v-317c34 18.667 71.667 34.667 113 48s84 20 128 20c50 0 90.333 -7.16699 121 -21.5s54.5 -32.833 71.5 -55.5s28.333 -48 34 -76s8.5 -55.333 8.5 -82c0 -43.333 -3.83301 -77.333 -11.5 -102
s-19.5 -43.334 -35.5 -56.001s-36.833 -20.5 -62.5 -23.5s-56.5 -4.5 -92.5 -4.5h-298z" />
    <glyph glyph-name="aZah" unicode="&#x638;" horiz-adv-x="723" arabic-form="isolated" 
d="M489 56c21.333 0 39.332 1.16797 53.999 3.50098s26.5 8 35.5 17s15.5 22.167 19.5 39.5s6 41 6 71c0 27.333 -2.66699 52 -8 74s-14.5 40.667 -27.5 56s-30.333 27.166 -52 35.499s-48.834 12.5 -81.501 12.5c-22 0 -44.333 -2.16699 -67 -6.5
s-44.667 -9.83301 -66 -16.5s-41.666 -14.334 -60.999 -23.001s-36.666 -17 -51.999 -25v-175c0 -10 -1 -21.167 -3 -33.5s-4.66699 -22.166 -8 -29.499h311zM164.999 0.000976562c-5.33301 0 -11 0.667969 -17 2.00098s-11 3.66602 -15 6.99902
c-6.66699 -3.33301 -14 -5.66602 -22 -6.99902s-18.333 -2 -31 -2h-39c-6.66699 0 -10 3.33301 -10 10v36c0 6.66699 3.33301 10 10 10h34c11.333 0 20.833 1.16699 28.5 3.5s13.667 6.83301 18 13.5s7.33301 15.5 9 26.5s2.5 25.167 2.5 42.5v528
c0 6.66699 3.33301 10 10 10h36c6.66699 0 10 -3.33301 10 -10v-317c34 18.667 71.667 34.667 113 48s84 20 128 20c50 0 90.333 -7.16699 121 -21.5s54.5 -32.833 71.5 -55.5s28.333 -48 34 -76s8.5 -55.333 8.5 -82c0 -43.333 -3.83301 -77.333 -11.5 -102
s-19.5 -43.334 -35.5 -56.001s-36.833 -20.5 -62.5 -23.5s-56.5 -4.5 -92.5 -4.5h-298zM400.999 501.002c-6.66699 0 -10 3.33301 -10 10v60c0 6.66699 3.33301 10 10 10h40c6.66699 0 10 -3.33301 10 -10v-60c0 -6.66699 -3.33301 -10 -10 -10h-40z" />
    <glyph glyph-name="aAyn" unicode="&#x639;" horiz-adv-x="541" arabic-form="isolated" 
d="M41 -69c0 22.667 3.49902 41.9961 10.499 57.9961s16 28.833 27 38.5s23.167 16.834 36.5 21.501s26.666 7.66699 39.999 9c-17.333 16.667 -32.166 37.5 -44.499 62.5s-18.5 57.167 -18.5 96.5c0 16.667 2.33301 36.834 7 60.501s14.167 46 28.5 67s34.833 39 61.5 54
s62 22.5 106 22.5c38 0 70.167 -7 96.5 -21s48.166 -32.667 65.499 -56c3.33301 -6 2.33301 -10.667 -3 -14l-30 -22c-5.33301 -4 -10 -3.66699 -14 1c-30 37.333 -68.667 56 -116 56c-25.333 0 -47 -3.83301 -65 -11.5s-32.667 -18.167 -44 -31.5
s-19.666 -28.666 -24.999 -45.999s-8 -36 -8 -56c0 -29.333 4.66699 -54 14 -74s20.333 -36.5 33 -49.5s25.334 -22.667 38.001 -29s22 -10.166 28 -11.499h219c6.66699 0 10 -3.33301 10 -10v-36c0 -6.66699 -3.33301 -10 -10 -10h-322c-22.667 0 -39 -6.5 -49 -19.5
s-15 -29.167 -15 -48.5c0 -24 6.83301 -42 20.5 -54s40.167 -18 79.5 -18h92c6.66699 0 10 -3.33301 10 -10v-36c0 -6.66699 -3.33301 -10 -10 -10h-96c-48 0 -85.5 10.167 -112.5 30.5s-40.5 52.5 -40.5 96.5z" />
    <glyph glyph-name="aGhayn" unicode="&#x63a;" horiz-adv-x="541" arabic-form="isolated" 
d="M41 -69c0 22.667 3.49902 41.9961 10.499 57.9961s16 28.833 27 38.5s23.167 16.834 36.5 21.501s26.666 7.66699 39.999 9c-17.333 16.667 -32.166 37.5 -44.499 62.5s-18.5 57.167 -18.5 96.5c0 16.667 2.33301 36.834 7 60.501s14.167 46 28.5 67s34.833 39 61.5 54
s62 22.5 106 22.5c38 0 70.167 -7 96.5 -21s48.166 -32.667 65.499 -56c3.33301 -6 2.33301 -10.667 -3 -14l-30 -22c-5.33301 -4 -10 -3.66699 -14 1c-30 37.333 -68.667 56 -116 56c-25.333 0 -47 -3.83301 -65 -11.5s-32.667 -18.167 -44 -31.5
s-19.666 -28.666 -24.999 -45.999s-8 -36 -8 -56c0 -29.333 4.66699 -54 14 -74s20.333 -36.5 33 -49.5s25.334 -22.667 38.001 -29s22 -10.166 28 -11.499h219c6.66699 0 10 -3.33301 10 -10v-36c0 -6.66699 -3.33301 -10 -10 -10h-322c-22.667 0 -39 -6.5 -49 -19.5
s-15 -29.167 -15 -48.5c0 -24 6.83301 -42 20.5 -54s40.167 -18 79.5 -18h92c6.66699 0 10 -3.33301 10 -10v-36c0 -6.66699 -3.33301 -10 -10 -10h-96c-48 0 -85.5 10.167 -112.5 30.5s-40.5 52.5 -40.5 96.5zM274.999 499.996c-6.66699 0 -10 3.33301 -10 10v60
c0 6.66699 3.33301 10 10 10h40c6.66699 0 10 -3.33301 10 -10v-60c0 -6.66699 -3.33301 -10 -10 -10h-40z" />
    <glyph glyph-name="aFeh" unicode="&#x641;" horiz-adv-x="923" arabic-form="isolated" 
d="M686 365c-40 0 -70 -13.833 -90 -41.5s-30 -64.5 -30 -110.5c0 -54.667 9.5 -94.5 28.5 -119.5s49.5 -37.5 91.5 -37.5s72.333 11.667 91 35s28 61.333 28 114c0 49.333 -9.33301 88.333 -28 117s-49 43 -91 43zM545 56c-11.333 18.667 -20.001 40.334 -26.001 65.001
s-9 53.667 -9 87c0 71.333 16 124.666 48 159.999s74.667 53 128 53c117.333 0 176 -71 176 -213c0 -74 -15 -127.167 -45 -159.5s-73.667 -48.5 -131 -48.5h-523c-42 -0 -72 8.33301 -90 25s-27 45 -27 85v219c0 6.66699 3.33301 10 10 10h35c6.66699 0 10 -3.33301 10 -10
v-220c0 -19.333 3.83301 -33 11.5 -41s19.834 -12 36.501 -12h396zM673.999 501c-6.66699 0 -10 3.33301 -10 10v60c0 6.66699 3.33301 10 10 10h40c6.66699 0 10 -3.33301 10 -10v-60c0 -6.66699 -3.33301 -10 -10 -10h-40z" />
    <glyph glyph-name="aQaf" unicode="&#x642;" horiz-adv-x="732" arabic-form="isolated" 
d="M663 -63c0 -22 -2 -41.3379 -6 -58.0049s-11.667 -30.5 -23 -41.5s-27.166 -19.333 -47.499 -25s-46.5 -8.5 -78.5 -8.5h-249c-69.333 0 -123.666 19 -162.999 57s-59 90.667 -59 158c0 40 6.66699 78.333 20 115s28.666 67.334 45.999 92.001
c2.66699 4.66699 7 4.66699 13 0l32 -20c5.33301 -3.33301 6.33301 -7.66602 3 -12.999c-6 -9.33301 -12.333 -20.166 -19 -32.499s-12.834 -25.833 -18.501 -40.5s-10.167 -30.167 -13.5 -46.5s-5 -32.833 -5 -49.5c0 -29.333 4.5 -54.333 13.5 -75s21.333 -37.5 37 -50.5
s34 -22.333 55 -28s43.5 -8.5 67.5 -8.5h228c39.333 0 67.5 4.16699 84.5 12.5s25.5 26.5 25.5 54.5v71h-112c-28 0 -53.333 3.66699 -76 11s-42.167 19.333 -58.5 36s-28.833 38.167 -37.5 64.5s-13 58.5 -13 96.5c0 36 4.5 67.333 13.5 94s21.5 48.834 37.5 66.501
s34.833 30.834 56.5 39.501s45.167 13 70.5 13c117.333 0 176 -71.667 176 -215v-269zM486 364.995c-37.333 0 -66.667 -14.001 -88 -42.001s-32 -67 -32 -117c0 -53.333 10.5 -91.666 31.5 -114.999s53.167 -35 96.5 -35h113v149c0 49.333 -9.5 88.333 -28.5 117
s-49.833 43 -92.5 43zM521.999 500.994c-6.66699 0 -10 3.33301 -10 10v60c0 6.66699 3.33301 10 10 10h52c6.66699 0 10 -3.33301 10 -10v-60c0 -6.66699 -3.33301 -10 -10 -10h-52zM393.999 500.994c-6.66699 0 -10 3.33301 -10 10v60c0 6.66699 3.33301 10 10 10h52
c6.66699 0 10 -3.33301 10 -10v-60c0 -6.66699 -3.33301 -10 -10 -10h-52z" />
    <glyph glyph-name="aKaf" unicode="&#x643;" horiz-adv-x="819" arabic-form="isolated" 
d="M406 424h21.998c18.667 0 31.834 -4.5 39.501 -13.5s11.5 -20.833 11.5 -35.5v-46c0 -22 -4.16699 -36.833 -12.5 -44.5s-23.166 -11.5 -44.499 -11.5h-107c-6.66699 0 -10 3.33301 -10 10v18c0 6.66699 3.33301 10 10 10h107c7.33301 0 12.166 1.66699 14.499 5
s3.5 8.66602 3.5 15.999v26c0 12 -2.16699 19.667 -6.5 23s-11.166 5 -20.499 5h-56c-6.66699 0 -10 3.33301 -10 10v13c0 4.66699 1.66699 8.66699 5 12l79 94c5.33301 6.66699 10.666 7.33398 15.999 2.00098l15 -14c4.66699 -4.66699 4.33398 -9.66699 -0.999023 -15z
M639.998 56c17.333 0 29.832 3.83301 37.499 11.5s11.5 21.5 11.5 41.5v561c0 6.66699 3.33301 10 10 10h35c6.66699 0 10 -3.33301 10 -10v-562c0 -38 -8.33301 -65.5 -25 -82.5s-43 -25.5 -79 -25.5h-477c-42 -0 -72 8.33301 -90 25s-27 45 -27 85v219
c0 6.66699 3.33301 10 10 10h35c6.66699 0 10 -3.33301 10 -10v-220c0 -19.333 3.83301 -33 11.5 -41s19.834 -12 36.501 -12h491z" />
    <glyph glyph-name="aLam" unicode="&#x644;" horiz-adv-x="573" arabic-form="isolated" 
d="M111 219c2.66699 4 7.33301 4.00098 14 0.000976562l31 -20c5.33301 -3.33301 6.33301 -7.66602 3 -12.999c-13.333 -20.667 -26 -45.167 -38 -73.5s-18 -57.833 -18 -88.5c0 -31.333 5.66699 -57.166 17 -77.499s25.333 -36.333 42 -48s34.834 -19.834 54.501 -24.501
s37.834 -7 54.501 -7c25.333 0 48.5 2.66699 69.5 8s39.167 14 54.5 26s27.166 27.5 35.499 46.5s12.5 42.167 12.5 69.5v653c0 6.66699 3.33301 10 10 10h35c6.66699 0 10 -3.33301 10 -10v-651c0 -30.667 -4.5 -58.834 -13.5 -84.501s-22.667 -47.834 -41 -66.501
s-41.833 -33.334 -70.5 -44.001s-62.334 -16 -101.001 -16c-36 0 -68.167 5 -96.5 15s-52 24.167 -71 42.5s-33.5 40.5 -43.5 66.5s-15 54.667 -15 86c0 42 6.83301 80.333 20.5 115s28.5 63.334 44.5 86.001z" />
    <glyph glyph-name="aMim" unicode="&#x645;" horiz-adv-x="575" arabic-form="isolated" 
d="M340 -7c-74 0 -125.999 27.3311 -155.999 81.998c-6.66699 -11.333 -15.667 -19.333 -27 -24s-22.333 -9.83398 -33 -15.501s-20 -13.667 -28 -24s-12 -26.166 -12 -47.499v-160h-55v181c0 20 3.16699 36.5 9.5 49.5s14.5 23.833 24.5 32.5s20.667 15.834 32 21.501
s22.166 11.5 32.499 17.5s19 12.833 26 20.5s11.167 17.834 12.5 30.501c-0.666992 7.33301 -1.16699 15.333 -1.5 24s-0.5 17.667 -0.5 27c0 142 58.667 213 176 213s176 -71 176 -213c0 -74 -15 -128.333 -45 -163s-73.667 -52 -131 -52zM340.001 364.998
c-42 0 -72.5 -14.167 -91.5 -42.5s-28.5 -67.5 -28.5 -117.5c0 -52.667 9.5 -91.834 28.5 -117.501s49.5 -38.5 91.5 -38.5s72.333 12.833 91 38.5s28 64.834 28 117.501c0 49.333 -9.33301 88.333 -28 117s-49 43 -91 43z" />
    <glyph glyph-name="aNun" unicode="&#x646;" horiz-adv-x="567" arabic-form="isolated" 
d="M111 219c2.66699 4 7.33301 4.00098 14 0.000976562l31 -20c5.33301 -3.33301 6.33301 -7.66602 3 -12.999c-13.333 -20.667 -26 -45.167 -38 -73.5s-18 -57.833 -18 -88.5c0 -31.333 5.66699 -57.166 17 -77.499s25.333 -36.333 42 -48s34.834 -19.834 54.501 -24.501
s37.834 -7 54.501 -7c25.333 0 48.5 2.66699 69.5 8s39.167 14 54.5 26s27.166 27.5 35.499 46.5s12.5 42.167 12.5 69.5v288c0 6.66699 3.33301 10 10 10h35c6.66699 0 10 -3.33301 10 -10v-286c0 -30.667 -4.5 -58.834 -13.5 -84.501s-22.667 -47.834 -41 -66.501
s-41.833 -33.334 -70.5 -44.001s-62.334 -16 -101.001 -16c-36 0 -68.167 5 -96.5 15s-52 24.167 -71 42.5s-33.5 40.5 -43.5 66.5s-15 54.667 -15 86c0 42 6.83301 80.333 20.5 115s28.5 63.334 44.5 86.001zM292.999 315.001c-6.66699 0 -10 3.33301 -10 10v60
c0 6.66699 3.33301 10 10 10h40c6.66699 0 10 -3.33301 10 -10v-60c0 -6.66699 -3.33301 -10 -10 -10h-40z" />
    <glyph glyph-name="aWaw" unicode="&#x648;" horiz-adv-x="488" arabic-form="isolated" 
d="M145 -196c-6.66699 0 -9.99805 3.33301 -9.99805 10v36c0 6.66699 3.33301 10 10 10h122c32.667 0 56.834 6 72.501 18s23.5 36 23.5 72v50h-113c-28 -0 -53.333 3.33301 -76 10s-42.167 17.667 -58.5 33s-28.833 35.833 -37.5 61.5s-13 57.5 -13 95.5
c0 36 4.66699 67.833 14 95.5s22.166 50.667 38.499 69s35.333 32.333 57 42s45.167 14.5 70.5 14.5c59.333 0 103.166 -17.667 131.499 -53s42.5 -89.333 42.5 -162v-255c0 -52 -10.833 -89.5 -32.5 -112.5s-55.834 -34.5 -102.501 -34.5h-139zM245.002 365
c-36.667 0 -66.167 -14 -88.5 -42s-33.5 -69.667 -33.5 -125c0 -26.667 2.5 -49 7.5 -67s12.833 -32.5 23.5 -43.5s24 -19 40 -24s34.667 -7.5 56 -7.5h113v148c0 51.333 -9 91 -27 119s-48.333 42 -91 42z" />
    <glyph glyph-name="aAlifMaksura" unicode="&#x649;" horiz-adv-x="758" arabic-form="isolated" 
d="M94 25c0 -30 4.66309 -55.3389 13.9961 -76.0059s21.833 -37.5 37.5 -50.5s34 -22.333 55 -28s43.5 -8.5 67.5 -8.5h242c20 0 36.5 1.5 49.5 4.5s23.333 7.16699 31 12.5s12.834 11.833 15.501 19.5s4 16.5 4 26.5c0 13.333 -5.66699 26.333 -17 39
s-25.5 25.334 -42.5 38.001l-55 39.5c-19.667 13.667 -38 28.834 -55 45.501s-31.167 34.834 -42.5 54.501s-17 41.834 -17 66.501c0 16.667 2.83301 33.667 8.5 51s15 33.166 28 47.499s30 26 51 35s46.5 13.5 76.5 13.5c22 0 41.5 -2.33301 58.5 -7s32 -10.667 45 -18
s24.333 -15.333 34 -24s18.167 -17 25.5 -25c3.33301 -4 2.33301 -8.66699 -3 -14l-26 -28c-3.33301 -4 -7.66602 -3.33301 -12.999 2c-16 16 -33.167 29.5 -51.5 40.5s-41.833 16.5 -70.5 16.5c-30 0 -54.833 -7.5 -74.5 -22.5s-29.5 -35.167 -29.5 -60.5
c0 -19.333 5.66699 -37 17 -53s25.5 -31.333 42.5 -46s35.333 -29 55 -43s38 -28.5 55 -43.5s31.167 -31 42.5 -48s17 -36.167 17 -57.5c0 -17.333 -2.5 -33.166 -7.5 -47.499s-13.167 -27 -24.5 -38s-26 -19.5 -44 -25.5s-40 -9 -66 -9h-268
c-69.333 0 -123.666 19 -162.999 57s-59 90.667 -59 158c0 42 6.83301 80.333 20.5 115s28.5 63.334 44.5 86.001c2.66699 4 7.33398 4 14.001 0l31 -20c5.33301 -3.33301 6.33301 -7.66602 3 -12.999c-13.333 -20.667 -26 -45.167 -38 -73.5s-18 -57.833 -18 -88.5z" />
    <glyph glyph-name="aYeh" unicode="&#x64a;" horiz-adv-x="758" arabic-form="isolated" 
d="M94 100c0 -30 4.66309 -55.3389 13.9961 -76.0059s21.833 -37.5 37.5 -50.5s34 -22.333 55 -28s43.5 -8.5 67.5 -8.5h242c20 0 36.5 1.5 49.5 4.5s23.333 7.16699 31 12.5s12.834 11.833 15.501 19.5s4 16.5 4 26.5c0 13.333 -5.66699 26.333 -17 39
s-25.5 25.334 -42.5 38.001l-55 39.5c-19.667 13.667 -38 28.834 -55 45.501s-31.167 34.834 -42.5 54.501s-17 41.834 -17 66.501c0 16.667 2.83301 33.667 8.5 51s15 33.166 28 47.499s30 26 51 35s46.5 13.5 76.5 13.5c22 0 41.5 -2.33301 58.5 -7s32 -10.667 45 -18
s24.333 -15.333 34 -24s18.167 -17 25.5 -25c3.33301 -4 2.33301 -8.66699 -3 -14l-26 -28c-3.33301 -4 -7.66602 -3.33301 -12.999 2c-16 16 -33.167 29.5 -51.5 40.5s-41.833 16.5 -70.5 16.5c-30 0 -54.833 -7.5 -74.5 -22.5s-29.5 -35.167 -29.5 -60.5
c0 -19.333 5.66699 -37 17 -53s25.5 -31.333 42.5 -46s35.333 -29 55 -43s38 -28.5 55 -43.5s31.167 -31 42.5 -48s17 -36.167 17 -57.5c0 -17.333 -2.5 -33.166 -7.5 -47.499s-13.167 -27 -24.5 -38s-26 -19.5 -44 -25.5s-40 -9 -66 -9h-268
c-69.333 0 -123.666 19 -162.999 57s-59 90.667 -59 158c0 42 6.83301 80.333 20.5 115s28.5 63.334 44.5 86.001c2.66699 4 7.33398 4 14.001 0l31 -20c5.33301 -3.33301 6.33301 -7.66602 3 -12.999c-13.333 -20.667 -26 -45.167 -38 -73.5s-18 -57.833 -18 -88.5z
M387.996 -266.006c-6.66699 0 -10 3.33301 -10 10v60c0 6.66699 3.33301 10 10 10h52c6.66699 0 10 -3.33301 10 -10v-60c0 -6.66699 -3.33301 -10 -10 -10h-52zM259.996 -266.006c-6.66699 0 -10 3.33301 -10 10v60c0 6.66699 3.33301 10 10 10h52
c6.66699 0 10 -3.33301 10 -10v-60c0 -6.66699 -3.33301 -10 -10 -10h-52z" />
    <glyph glyph-name="aAlifWasla" unicode="&#x671;" horiz-adv-x="205" arabic-form="isolated" 
d="M130 10c0 -6.66699 -3.33301 -10 -10 -10h-35c-6.66699 -0 -10 3.33301 -10 10v660c0 6.66699 3.33301 10 10 10h35c6.66699 0 10 -3.33301 10 -10v-660zM14 788c6.66699 0 10 3.66699 10 11v95c0 4.66699 2.66699 7 8 7h13c5.33301 0 8 -2.33301 8 -7v-12
c10 5.33301 20.667 9.66602 32 12.999s23 5 35 5c30 0 50.833 -7.66699 62.5 -23s17.5 -33.666 17.5 -54.999c0 -42 -18 -63 -54 -63h-144c-4.66699 0 -7 2.33301 -7 7v15c0 4.66699 2.33301 7 7 7h12zM124 871c-11.333 0 -23.168 -2 -35.501 -6
s-24.166 -8.33301 -35.499 -13v-64h93c11.333 0 18.333 2.16699 21 6.5s4 13.5 4 27.5c0 15.333 -3.16699 27.333 -9.5 36s-18.833 13 -37.5 13z" />
    <glyph glyph-name="aTteh" unicode="&#x679;" horiz-adv-x="803" arabic-form="isolated" 
d="M640 56c17.333 0 29.832 3.83301 37.499 11.5s11.5 21.5 11.5 41.5v284c0 6.66699 3.33301 10 10 10h35c6.66699 0 10 -3.33301 10 -10v-285c0 -38 -8.33301 -65.5 -25 -82.5s-43 -25.5 -79 -25.5h-477c-42 -0 -72 8.33301 -90 25s-27 45 -27 85v219
c0 6.66699 3.33301 10 10 10h35c6.66699 0 10 -3.33301 10 -10v-220c0 -19.333 3.83301 -33 11.5 -41s19.834 -12 36.501 -12h491v0zM300.999 467c6.66699 0 10 5.00098 10 15.001v169c0 4.66699 2.66699 7 8 7h13c5.33301 0 8 -2.33301 8 -7v-90
c10 5.33301 20.833 9.66602 32.5 12.999s23.167 5 34.5 5c30 0 50.833 -7.83301 62.5 -23.5s17.5 -34.167 17.5 -55.5c0 -41.333 -18 -62 -54 -62h-144c-4.66699 0 -7 2.33301 -7 7v15c0 4.66699 2.33301 7 7 7h12zM410.999 550.001c-11.333 0 -23.332 -2 -35.999 -6
s-24.334 -8.33301 -35.001 -13v-64h93c11.333 0 18.333 2.16699 21 6.5s4 13.5 4 27.5c0 15.333 -3.16699 27.333 -9.5 36s-18.833 13 -37.5 13z" />
    <glyph glyph-name="aPeh" unicode="&#x67e;" horiz-adv-x="803" arabic-form="isolated" 
d="M640 56c17.333 0 29.832 3.83301 37.499 11.5s11.5 21.5 11.5 41.5v284c0 6.66699 3.33301 10 10 10h35c6.66699 0 10 -3.33301 10 -10v-285c0 -38 -8.33301 -65.5 -25 -82.5s-43 -25.5 -79 -25.5h-477c-42 -0 -72 8.33301 -90 25s-27 45 -27 85v219
c0 6.66699 3.33301 10 10 10h35c6.66699 0 10 -3.33301 10 -10v-220c0 -19.333 3.83301 -33 11.5 -41s19.834 -12 36.501 -12h491v0zM368.999 -279c-6.66699 0 -10 3.33301 -10 10v60c0 6.66699 3.33301 10 10 10h52c6.66699 0 10 -3.33301 10 -10v-60
c0 -6.66699 -3.33301 -10 -10 -10h-52zM429.999 -164c-6.66699 0 -10 3.33301 -10 10v60c0 6.66699 3.33301 10 10 10h52c6.66699 0 10 -3.33301 10 -10v-60c0 -6.66699 -3.33301 -10 -10 -10h-52zM301.999 -164c-6.66699 0 -10 3.33301 -10 10v60
c0 6.66699 3.33301 10 10 10h52c6.66699 0 10 -3.33301 10 -10v-60c0 -6.66699 -3.33301 -10 -10 -10h-52z" />
    <glyph glyph-name="aTcheh" unicode="&#x686;" horiz-adv-x="531" arabic-form="isolated" 
d="M155 0c-25.333 0 -42.5029 -6.99805 -51.5029 -20.998s-13.5 -30 -13.5 -48c0 -24 6 -41.833 18 -53.5s33 -17.5 63 -17.5h65c6.66699 0 10 -3.33301 10 -10v-36c0 -6.66699 -3.33301 -10 -10 -10h-59c-96.667 0 -145 41 -145 123c0 25.333 3.66699 46.333 11 63
s16.833 29.834 28.5 39.501s24.334 16.5 38.001 20.5s26.5 6 38.5 6h187c20 0 35.833 1.66699 47.5 5s20.667 9.16602 27 17.499s10.333 19.166 12 32.499s2.5 30 2.5 50c0 31.333 -2.5 59.5 -7.5 84.5s-13.5 46.167 -25.5 63.5s-27.667 30.666 -47 39.999
s-43.333 14 -72 14c-23.333 0 -45.666 -4.16699 -66.999 -12.5s-40.666 -22.833 -57.999 -43.5c-4 -6 -8.66699 -6.66699 -14 -2l-27 24c-6 3.33301 -7 8 -3 14c17.333 22 39.5 40.5 66.5 55.5s61.5 22.5 103.5 22.5c44 0 79.833 -7.5 107.5 -22.5s49.167 -34.5 64.5 -58.5
s25.833 -51.333 31.5 -82s8.5 -61.667 8.5 -93c0 -30 -2 -55.5 -6 -76.5s-11 -38 -21 -51s-23.5 -22.5 -40.5 -28.5s-38.5 -9 -64.5 -9h-198zM309.997 -197.998c-5.33301 0 -8 2.33301 -8 7v43c0 5.33301 2.66699 8 8 8h37c5.33301 0 8 -2.66699 8 -8v-43
c0 -4.66699 -2.66699 -7 -8 -7h-37zM353.997 -114.998c-4.66699 0 -7 2.33301 -7 7v44c0 4.66699 2.33301 7 7 7h38c4.66699 0 7 -2.33301 7 -7v-44c0 -4.66699 -2.33301 -7 -7 -7h-38zM260.997 -114.998c-4.66699 0 -7 2.33301 -7 7v44c0 4.66699 2.33301 7 7 7h38
c4.66699 0 7 -2.33301 7 -7v-44c0 -4.66699 -2.33301 -7 -7 -7h-38z" />
    <glyph glyph-name="aDdal" unicode="&#x688;" horiz-adv-x="484" arabic-form="isolated" 
d="M426 171c0 -33.333 -2.33105 -60.998 -6.99805 -82.998s-12.5 -39.5 -23.5 -52.5s-25.333 -22.167 -43 -27.5s-39.834 -8 -66.501 -8h-212c-6.66699 0 -10 3.33301 -10 10v36c0 6.66699 3.33301 10 10 10h200c20 0 36.167 1.66699 48.5 5s21.666 8.83301 27.999 16.5
s10.5 18 12.5 31s3 29.167 3 48.5v97c0 37.333 -10 65.166 -30 83.499s-52 27.5 -96 27.5h-117c-6.66699 0 -10 3.33301 -10 10v36c0 6.66699 3.33301 10 10 10h134c25.333 0 48.5 -3.33301 69.5 -10s38.833 -16.834 53.5 -30.501s26 -31.167 34 -52.5s12 -47 12 -77v-80z
M135.002 533.002c6.66699 0 10 5.00098 10 15.001v169c0 4.66699 2.66699 7 8 7h13c5.33301 0 8 -2.33301 8 -7v-90c10 5.33301 20.833 9.66602 32.5 12.999s23.167 5 34.5 5c30 0 50.833 -7.83301 62.5 -23.5s17.5 -34.167 17.5 -55.5c0 -41.333 -18 -62 -54 -62h-144
c-4.66699 0 -7 2.33301 -7 7v15c0 4.66699 2.33301 7 7 7h12zM245.002 616.003c-11.333 0 -23.332 -2 -35.999 -6s-24.334 -8.33301 -35.001 -13v-64h93c11.333 0 18.333 2.16699 21 6.5s4 13.5 4 27.5c0 15.333 -3.16699 27.333 -9.5 36s-18.833 13 -37.5 13z" />
    <glyph glyph-name="aRreh" unicode="&#x691;" horiz-adv-x="240" arabic-form="isolated" 
d="M9 -196c-6.66699 0 -9.99902 3.33203 -9.99902 9.99902v36c0 6.66699 3.33301 10 10 10h23c27.333 0 48.166 7 62.499 21s21.5 35.333 21.5 64v448c0 6.66699 3.33301 10 10 10h35c6.66699 0 10 -3.33301 10 -10v-442c0 -47.333 -11.667 -83.666 -35 -108.999
s-60 -38 -110 -38h-17zM59.001 532.999c6.66699 0 10 5.00098 10 15.001v169c0 4.66699 2.66699 7 8 7h13c5.33301 0 8 -2.33301 8 -7v-90c10 5.33301 20.833 9.66602 32.5 12.999s23.167 5 34.5 5c30 0 50.833 -7.83301 62.5 -23.5s17.5 -34.167 17.5 -55.5
c0 -41.333 -18 -62 -54 -62h-144c-4.66699 0 -7 2.33301 -7 7v15c0 4.66699 2.33301 7 7 7h12zM169.001 616c-11.333 0 -23.332 -2 -35.999 -6s-24.334 -8.33301 -35.001 -13v-64h93c11.333 0 18.333 2.16699 21 6.5s4 13.5 4 27.5c0 15.333 -3.16699 27.333 -9.5 36
s-18.833 13 -37.5 13z" />
    <glyph glyph-name="aJeh" unicode="&#x698;" horiz-adv-x="240" arabic-form="isolated" 
d="M9 -196c-6.66699 0 -9.99902 3.33203 -9.99902 9.99902v36c0 6.66699 3.33301 10 10 10h23c27.333 0 48.166 7 62.499 21s21.5 35.333 21.5 64v448c0 6.66699 3.33301 10 10 10h35c6.66699 0 10 -3.33301 10 -10v-442c0 -47.333 -11.667 -83.666 -35 -108.999
s-60 -38 -110 -38h-17zM116.001 628.999c-6.66699 0 -10 3.33301 -10 10v60c0 6.66699 3.33301 10 10 10h52c6.66699 0 10 -3.33301 10 -10v-60c0 -6.66699 -3.33301 -10 -10 -10h-52zM181.001 500.999c-6.66699 0 -10 3.33301 -10 10v60c0 6.66699 3.33301 10 10 10h52
c6.66699 0 10 -3.33301 10 -10v-60c0 -6.66699 -3.33301 -10 -10 -10h-52zM53.001 500.999c-6.66699 0 -10 3.33301 -10 10v60c0 6.66699 3.33301 10 10 10h52c6.66699 0 10 -3.33301 10 -10v-60c0 -6.66699 -3.33301 -10 -10 -10h-52z" />
    <glyph glyph-name="aVeh" unicode="&#x6a4;" horiz-adv-x="923" arabic-form="isolated" 
d="M686 365c-40 0 -70 -13.833 -90 -41.5s-30 -64.5 -30 -110.5c0 -54.667 9.5 -94.5 28.5 -119.5s49.5 -37.5 91.5 -37.5s72.333 11.667 91 35s28 61.333 28 114c0 49.333 -9.33301 88.333 -28 117s-49 43 -91 43zM545 56c-11.333 18.667 -20.001 40.334 -26.001 65.001
s-9 53.667 -9 87c0 71.333 16 124.666 48 159.999s74.667 53 128 53c117.333 0 176 -71 176 -213c0 -74 -15 -127.167 -45 -159.5s-73.667 -48.5 -131 -48.5h-523c-42 -0 -72 8.33301 -90 25s-27 45 -27 85v219c0 6.66699 3.33301 10 10 10h35c6.66699 0 10 -3.33301 10 -10
v-220c0 -19.333 3.83301 -33 11.5 -41s19.834 -12 36.501 -12h396zM657.999 629c-6.66699 0 -10 3.33301 -10 10v60c0 6.66699 3.33301 10 10 10h52c6.66699 0 10 -3.33301 10 -10v-60c0 -6.66699 -3.33301 -10 -10 -10h-52zM722.999 501c-6.66699 0 -10 3.33301 -10 10v60
c0 6.66699 3.33301 10 10 10h52c6.66699 0 10 -3.33301 10 -10v-60c0 -6.66699 -3.33301 -10 -10 -10h-52zM594.999 501c-6.66699 0 -10 3.33301 -10 10v60c0 6.66699 3.33301 10 10 10h52c6.66699 0 10 -3.33301 10 -10v-60c0 -6.66699 -3.33301 -10 -10 -10h-52z" />
    <glyph glyph-name="aKeheh" unicode="&#x6a9;" horiz-adv-x="825" arabic-form="isolated" 
d="M599 403c25.333 0 48.501 -3.33008 69.501 -9.99707s38.833 -16.834 53.5 -30.501s26 -31.167 34 -52.5s12 -47 12 -77v-62c0 -33.333 -2.33301 -61 -7 -83s-12.5 -39.5 -23.5 -52.5s-25.333 -22.167 -43 -27.5s-39.834 -8 -66.501 -8h-465c-42 0 -72 8.33301 -90 25
s-27 45 -27 85v219c0 6.66699 3.33301 10 10 10h35c6.66699 0 10 -3.33301 10 -10v-220c0 -19.333 3.83301 -33 11.5 -41s19.834 -12 36.501 -12h467c20 0 36.167 1.66699 48.5 5s21.666 8.83301 27.999 16.5s10.5 18 12.5 31s3 29.167 3 48.5v79
c0 37.333 -10 65.166 -30 83.499s-52 27.5 -96 27.5h-167c-6.66699 0 -10 3.33301 -10 10v37c0 6 1 9 3 9l222 261c4.66699 5.33301 9 6.33301 13 3l29 -23c6.66699 -4.66699 8 -9.33398 4 -14.001l-192 -227h115z" />
    <glyph glyph-name="aGaf" unicode="&#x6af;" horiz-adv-x="825" arabic-form="isolated" 
d="M599 403c25.333 0 48.501 -3.33008 69.501 -9.99707s38.833 -16.834 53.5 -30.501s26 -31.167 34 -52.5s12 -47 12 -77v-62c0 -33.333 -2.33301 -61 -7 -83s-12.5 -39.5 -23.5 -52.5s-25.333 -22.167 -43 -27.5s-39.834 -8 -66.501 -8h-465c-42 0 -72 8.33301 -90 25
s-27 45 -27 85v219c0 6.66699 3.33301 10 10 10h35c6.66699 0 10 -3.33301 10 -10v-220c0 -19.333 3.83301 -33 11.5 -41s19.834 -12 36.501 -12h467c20 0 36.167 1.66699 48.5 5s21.666 8.83301 27.999 16.5s10.5 18 12.5 31s3 29.167 3 48.5v79
c0 37.333 -10 65.166 -30 83.499s-52 27.5 -96 27.5h-167c-6.66699 0 -10 3.33301 -10 10v37c0 6 1 9 3 9l222 261c4.66699 5.33301 9 6.33301 13 3l29 -23c6.66699 -4.66699 8 -9.33398 4 -14.001l-192 -227h115zM364.001 445.003c-5.33301 -6 -10 -7 -14 -3l-26 22
c-6 5.33301 -7.33301 10 -4 14l218 256c4.66699 6 9 7 13 3l27 -22c6 -5.33301 7.33301 -10 4 -14z" />
    <glyph glyph-name="aNunGhunna" unicode="&#x6ba;" horiz-adv-x="567" arabic-form="isolated" 
d="M111 219c2.66699 4 7.33301 4.00098 14 0.000976562l31 -20c5.33301 -3.33301 6.33301 -7.66602 3 -12.999c-13.333 -20.667 -26 -45.167 -38 -73.5s-18 -57.833 -18 -88.5c0 -31.333 5.66699 -57.166 17 -77.499s25.333 -36.333 42 -48s34.834 -19.834 54.501 -24.501
s37.834 -7 54.501 -7c25.333 0 48.5 2.66699 69.5 8s39.167 14 54.5 26s27.166 27.5 35.499 46.5s12.5 42.167 12.5 69.5v288c0 6.66699 3.33301 10 10 10h35c6.66699 0 10 -3.33301 10 -10v-286c0 -30.667 -4.5 -58.834 -13.5 -84.501s-22.667 -47.834 -41 -66.501
s-41.833 -33.334 -70.5 -44.001s-62.334 -16 -101.001 -16c-36 0 -68.167 5 -96.5 15s-52 24.167 -71 42.5s-33.5 40.5 -43.5 66.5s-15 54.667 -15 86c0 42 6.83301 80.333 20.5 115s28.5 63.334 44.5 86.001z" />
    <glyph glyph-name="aHehDoachashmi" unicode="&#x6be;" horiz-adv-x="621" arabic-form="isolated" 
d="M94 0c-15.333 0 -25.1611 -2.16406 -29.4941 -6.49707s-6.5 -13.5 -6.5 -27.5v-23c0 -6.66699 -3.33301 -10 -10 -10h-35c-6.66699 0 -10 3.33301 -10 10v57c0 12 1.83301 21.667 5.5 29s8.5 13 14.5 17s12.5 6.66699 19.5 8s14.167 2 21.5 2h83
c-6.66699 9.33301 -11.834 22.166 -15.501 38.499s-5.5 32.166 -5.5 47.499c0 48 12.333 84.333 37 109s57 37 97 37c36.667 0 67.167 -12 91.5 -36s36.5 -57 36.5 -99c0 -26.667 -2.83301 -48 -8.5 -64s-10.834 -27 -15.501 -33h23c26.667 0 47.667 2.66699 63 8
s26.833 13.5 34.5 24.5s12.5 24.667 14.5 41s3 35.5 3 57.5c0 58 -16.833 101.833 -50.5 131.5s-80.834 44.5 -141.501 44.5c-25.333 0 -51.333 -3.33301 -78 -10s-52.667 -17 -78 -31c-2.66699 -1.33301 -5.33398 -2.5 -8.00098 -3.5s-4.66699 -0.166992 -6 2.5l-17 30
c-4 7.33301 -4 12.333 0 15c32 19.333 64.167 33 96.5 41s65.833 12 100.5 12c45.333 0 83.5 -6.66699 114.5 -20s56 -31 75 -53s32.5 -46.833 40.5 -74.5s12 -55.834 12 -84.501c0 -34 -2.83301 -62.833 -8.5 -86.5s-14.834 -43 -27.501 -58s-29.334 -25.833 -50.001 -32.5
s-45.667 -10 -75 -10h-307zM257.005 231.003c-13.333 0 -24.6689 -2.5 -34.002 -7.5s-16.833 -11.667 -22.5 -20s-9.66699 -17.666 -12 -27.999s-3.5 -20.833 -3.5 -31.5c0 -17.333 1.83301 -31.666 5.5 -42.999s8.66699 -20.333 15 -27s13.5 -11.334 21.5 -14.001
s16 -4 24 -4h13c8.66699 0 16.834 1.16699 24.501 3.5s14.334 6.66602 20.001 12.999s10.167 15 13.5 26s5 25.5 5 43.5c0 11.333 -1 22.333 -3 33s-5.66699 20.167 -11 28.5s-12.5 15 -21.5 20s-20.5 7.5 -34.5 7.5z" />
    <glyph glyph-name="aHehGoal" unicode="&#x6c1;" horiz-adv-x="457" arabic-form="isolated" 
d="M222 -7c-57.333 0 -101 17.333 -131 52s-45 89 -45 163c0 142 58.667 213 176 213s176 -71 176 -213c0 -74 -14.833 -128.333 -44.5 -163s-73.5 -52 -131.5 -52zM222 365c-42 0 -72.333 -14.167 -91 -42.5s-28 -67.5 -28 -117.5c0 -52.667 9.33301 -91.834 28 -117.501
s49 -38.5 91 -38.5s72.5 12.833 91.5 38.5s28.5 64.834 28.5 117.501c0 49.333 -9.5 88.333 -28.5 117s-49.5 43 -91.5 43z" />
    <glyph glyph-name="aHehGoalHamzaabove.fina" unicode="&#x6c2;" horiz-adv-x="470" 
d="M354 128c0 -23.333 4.83203 -41.166 14.499 -53.499s28.5 -18.5 56.5 -18.5h45c14 0 24.167 -2 30.5 -6s9.5 -11.667 9.5 -23c0 -12.667 -3.33301 -20.334 -10 -23.001s-16.667 -4 -30 -4h-49c-42 0 -72.833 10.5 -92.5 31.5s-29.5 48.5 -29.5 82.5v226h-78
c-46 0 -78.5 -11.667 -97.5 -35s-28.5 -57 -28.5 -101v-194c0 -6.66699 -3.33301 -10 -10 -10h-35c-6.66699 -0 -10 3.33301 -10 10v206c0 38.667 5.83301 70.167 17.5 94.5s26.834 43.333 45.501 57s39.667 23 63 28s47 7.5 71 7.5h107c6.66699 0 10 -3.33301 10 -10v-265z
M149.999 528c-5.33301 8.66699 -9.83008 17.9961 -13.4971 27.9961s-5.5 22.667 -5.5 38c0 8.66699 1.5 18.334 4.5 29.001s8.16699 20.834 15.5 30.501s17.333 17.834 30 24.501s28.667 10 48 10c15.333 0 30.166 -3.16699 44.499 -9.5s25.166 -15.166 32.499 -26.499
c2 -4 1.33301 -7.66699 -2 -11l-15 -13c-3.33301 -3.33301 -7 -3 -11 1c-6 6.66699 -13.5 12 -22.5 16s-19.167 6 -30.5 6c-17.333 0 -30.833 -6 -40.5 -18s-14.5 -26.667 -14.5 -44c0 -12.667 3.16699 -24.5 9.5 -35.5s13.166 -19.5 20.499 -25.5h105c4 0 6 -2.33301 6 -7
v-24c0 -4.66699 -2 -7 -6 -7h-193c-4 0 -6 2.33301 -6 7v24c0 4.66699 2 7 6 7h38z" />
    <glyph glyph-name="aTehMarbutaGoal.fina" unicode="&#x6c3;" horiz-adv-x="473" 
d="M319 421v42.999c0 6.66699 3.33301 10 10 10h35c6.66699 0 10 -3.33301 10 -10v-355c0 -20 3.83301 -33.833 11.5 -41.5s19.834 -11.5 36.501 -11.5h51c13.333 0 23.333 -2 30 -6s10 -11.667 10 -23c0 -13.333 -3.16699 -21.166 -9.5 -23.499s-16.5 -3.5 -30.5 -3.5h-54
c-12 0 -24 1.16699 -36 3.5s-22.667 6.5 -32 12.5s-17 14.667 -23 26s-9 26 -9 44c-12 -12 -27 -21.5 -45 -28.5s-41.667 -10.5 -71 -10.5c-50 0 -89.833 14.5 -119.5 43.5s-44.5 73.5 -44.5 133.5c0 36 4.5 66.5 13.5 91.5s21.667 45.333 38 61s35.666 27 57.999 34
s46.833 10.5 73.5 10.5h97zM207 102.999c42.667 0 72 9.66895 88 29.002s24 45.666 24 78.999v154h-107c-36 0 -64.5 -10.333 -85.5 -31s-31.5 -57.334 -31.5 -110.001c0 -42.667 9.5 -73.5 28.5 -92.5s46.833 -28.5 83.5 -28.5zM278 535.001c-6.66699 0 -10 3.33301 -10 10
v60c0 6.66699 3.33301 10 10 10h52c6.66699 0 10 -3.33301 10 -10v-60c0 -6.66699 -3.33301 -10 -10 -10h-52zM150 535.001c-6.66699 0 -10 3.33301 -10 10v60c0 6.66699 3.33301 10 10 10h52c6.66699 0 10 -3.33301 10 -10v-60c0 -6.66699 -3.33301 -10 -10 -10h-52z" />
    <glyph glyph-name="aYehFarsi" unicode="&#x6cc;" horiz-adv-x="758" arabic-form="isolated" 
d="M94 25c0 -30 4.66309 -55.3389 13.9961 -76.0059s21.833 -37.5 37.5 -50.5s34 -22.333 55 -28s43.5 -8.5 67.5 -8.5h242c20 0 36.5 1.5 49.5 4.5s23.333 7.16699 31 12.5s12.834 11.833 15.501 19.5s4 16.5 4 26.5c0 13.333 -5.66699 26.333 -17 39
s-25.5 25.334 -42.5 38.001l-55 39.5c-19.667 13.667 -38 28.834 -55 45.501s-31.167 34.834 -42.5 54.501s-17 41.834 -17 66.501c0 16.667 2.83301 33.667 8.5 51s15 33.166 28 47.499s30 26 51 35s46.5 13.5 76.5 13.5c22 0 41.5 -2.33301 58.5 -7s32 -10.667 45 -18
s24.333 -15.333 34 -24s18.167 -17 25.5 -25c3.33301 -4 2.33301 -8.66699 -3 -14l-26 -28c-3.33301 -4 -7.66602 -3.33301 -12.999 2c-16 16 -33.167 29.5 -51.5 40.5s-41.833 16.5 -70.5 16.5c-30 0 -54.833 -7.5 -74.5 -22.5s-29.5 -35.167 -29.5 -60.5
c0 -19.333 5.66699 -37 17 -53s25.5 -31.333 42.5 -46s35.333 -29 55 -43s38 -28.5 55 -43.5s31.167 -31 42.5 -48s17 -36.167 17 -57.5c0 -17.333 -2.5 -33.166 -7.5 -47.499s-13.167 -27 -24.5 -38s-26 -19.5 -44 -25.5s-40 -9 -66 -9h-268
c-69.333 0 -123.666 19 -162.999 57s-59 90.667 -59 158c0 42 6.83301 80.333 20.5 115s28.5 63.334 44.5 86.001c2.66699 4 7.33398 4 14.001 0l31 -20c5.33301 -3.33301 6.33301 -7.66602 3 -12.999c-13.333 -20.667 -26 -45.167 -38 -73.5s-18 -57.833 -18 -88.5z" />
    <glyph glyph-name="aYehBarri" unicode="&#x6d2;" horiz-adv-x="740" arabic-form="isolated" 
d="M318 350c-11.333 -18 -25.167 -33.999 -41.5 -47.999s-33.333 -26.667 -51 -38s-35.167 -22 -52.5 -32s-32.833 -20.333 -46.5 -31s-24.834 -21.667 -33.501 -33s-13 -24.333 -13 -39c0 -9.33301 2 -18.333 6 -27s10.667 -16.5 20 -23.5s21.666 -12.5 36.999 -16.5
s34.666 -6 57.999 -6h509c6.66699 0 10 -3.33301 10 -10v-36c0 -6.66699 -3.33301 -10 -10 -10h-505c-35.333 0 -64.666 3.66699 -87.999 11s-41.666 16.833 -54.999 28.5s-22.666 25 -27.999 40s-8 30.5 -8 46.5c0 23.333 5 43.666 15 60.999s22.833 32.833 38.5 46.5
s33 26.167 52 37.5l56.5 34c18.667 11.333 36 23 52 35s28.333 26 37 42c1.33301 2 3.5 3.16699 6.5 3.5s5.83301 -0.5 8.5 -2.5l25 -19c4 -4 4.33301 -8.66699 1 -14z" />
    <glyph glyph-name="aYehBarriHamzaabove" unicode="&#x6d3;" horiz-adv-x="740" arabic-form="isolated" 
d="M318 350c-11.333 -18 -25.167 -33.999 -41.5 -47.999s-33.333 -26.667 -51 -38s-35.167 -22 -52.5 -32s-32.833 -20.333 -46.5 -31s-24.834 -21.667 -33.501 -33s-13 -24.333 -13 -39c0 -9.33301 2 -18.333 6 -27s10.667 -16.5 20 -23.5s21.666 -12.5 36.999 -16.5
s34.666 -6 57.999 -6h509c6.66699 0 10 -3.33301 10 -10v-36c0 -6.66699 -3.33301 -10 -10 -10h-505c-35.333 0 -64.666 3.66699 -87.999 11s-41.666 16.833 -54.999 28.5s-22.666 25 -27.999 40s-8 30.5 -8 46.5c0 23.333 5 43.666 15 60.999s22.833 32.833 38.5 46.5
s33 26.167 52 37.5l56.5 34c18.667 11.333 36 23 52 35s28.333 26 37 42c1.33301 2 3.5 3.16699 6.5 3.5s5.83301 -0.5 8.5 -2.5l25 -19c4 -4 4.33301 -8.66699 1 -14zM66.999 425.001c-5.33301 8.66699 -9.83008 17.9961 -13.4971 27.9961s-5.5 22.667 -5.5 38
c0 8.66699 1.5 18.334 4.5 29.001s8.16699 20.834 15.5 30.501s17.333 17.834 30 24.501s28.667 10 48 10c15.333 0 30.166 -3.16699 44.499 -9.5s25.166 -15.166 32.499 -26.499c2 -4 1.33301 -7.66699 -2 -11l-15 -13c-3.33301 -3.33301 -7 -3 -11 1
c-6 6.66699 -13.5 12 -22.5 16s-19.167 6 -30.5 6c-17.333 0 -30.833 -6 -40.5 -18s-14.5 -26.667 -14.5 -44c0 -12.667 3.16699 -24.5 9.5 -35.5s13.166 -19.5 20.499 -25.5h105c4 0 6 -2.33301 6 -7v-24c0 -4.66699 -2 -7 -6 -7h-193c-4 0 -6 2.33301 -6 7v24
c0 4.66699 2 7 6 7h38z" />
    <glyph glyph-name="aAe.fina" unicode="&#x6d5;" horiz-adv-x="473" 
d="M319 421v42.999c0 6.66699 3.33301 10 10 10h35c6.66699 0 10 -3.33301 10 -10v-355c0 -20 3.83301 -33.833 11.5 -41.5s19.834 -11.5 36.501 -11.5h51c13.333 0 23.333 -2 30 -6s10 -11.667 10 -23c0 -13.333 -3.16699 -21.166 -9.5 -23.499s-16.5 -3.5 -30.5 -3.5h-54
c-12 0 -24 1.16699 -36 3.5s-22.667 6.5 -32 12.5s-17 14.667 -23 26s-9 26 -9 44c-12 -12 -27 -21.5 -45 -28.5s-41.667 -10.5 -71 -10.5c-50 0 -89.833 14.5 -119.5 43.5s-44.5 73.5 -44.5 133.5c0 36 4.5 66.5 13.5 91.5s21.667 45.333 38 61s35.666 27 57.999 34
s46.833 10.5 73.5 10.5h97zM207 102.999c42.667 0 72 9.66895 88 29.002s24 45.666 24 78.999v154h-107c-36 0 -64.5 -10.333 -85.5 -31s-31.5 -57.334 -31.5 -110.001c0 -42.667 9.5 -73.5 28.5 -92.5s46.833 -28.5 83.5 -28.5z" />
    <glyph glyph-name="aAlifWasla.fina" unicode="&#x671;" horiz-adv-x="231" arabic-form="final" 
d="M22 788c6.66699 0 10 3.66699 10 11v95c0 4.66699 2.66699 7 8 7h13c5.33301 0 8 -2.33301 8 -7v-12c10 5.33301 20.667 9.66602 32 12.999s23 5 35 5c30 0 50.833 -7.66699 62.5 -23s17.5 -33.666 17.5 -54.999c0 -42 -18 -63 -54 -63h-144c-4.66699 0 -7 2.33301 -7 7
v15c0 4.66699 2.33301 7 7 7h12zM132 871c-11.333 0 -23.168 -2 -35.501 -6s-24.166 -8.33301 -35.499 -13v-64h93c11.333 0 18.333 2.16699 21 6.5s4 13.5 4 27.5c0 15.333 -3.16699 27.333 -9.5 36s-18.833 13 -37.5 13zM74.998 670c0 6.66699 3.33203 10 9.99902 10h35
c6.66699 0 10 -3.33301 10 -10v-561c0 -20 4.33301 -33.833 13 -41.5s21.334 -11.5 38.001 -11.5h50c26.667 0 40 -9.33301 40 -28c0 -13.333 -3.16699 -21.333 -9.5 -24s-16.5 -4 -30.5 -4h-39c-42 0 -72 8.5 -90 25.5s-27 44.833 -27 83.5v561z" />
    <glyph glyph-name="aPeh.fina" unicode="&#x67e;" horiz-adv-x="847" arabic-form="final" 
d="M744 126c0 -24 9.16602 -41.667 27.499 -53s41.5 -17 69.5 -17h6c13.333 0 23.333 -1.83301 30 -5.5s10 -10.167 10 -19.5c0 -15.333 -3.16699 -24.333 -9.5 -27s-16.5 -4 -30.5 -4c-26.667 0 -49.334 3.66699 -68.001 11s-33.667 20.333 -45 39
c-13.333 -33.333 -44.666 -50 -93.999 -50h-477c-42 -0 -72 8.33301 -90 25s-27 45 -27 85v219c0 6.66699 3.33301 10 10 10h35c6.66699 0 10 -3.33301 10 -10v-220c0 -19.333 3.83301 -33 11.5 -41s19.834 -12 36.501 -12h491c17.333 0 29.833 3.83301 37.5 11.5
s11.5 21.5 11.5 41.5v284c0 6.66699 3.33301 10 10 10h35c6.66699 0 10 -3.33301 10 -10v-267zM369.999 -279c-6.66699 0 -10 3.33301 -10 10v60c0 6.66699 3.33301 10 10 10h52c6.66699 0 10 -3.33301 10 -10v-60c0 -6.66699 -3.33301 -10 -10 -10h-52zM430.999 -164
c-6.66699 0 -10 3.33301 -10 10v60c0 6.66699 3.33301 10 10 10h52c6.66699 0 10 -3.33301 10 -10v-60c0 -6.66699 -3.33301 -10 -10 -10h-52zM302.999 -164c-6.66699 0 -10 3.33301 -10 10v60c0 6.66699 3.33301 10 10 10h52c6.66699 0 10 -3.33301 10 -10v-60
c0 -6.66699 -3.33301 -10 -10 -10h-52z" />
    <glyph glyph-name="aPeh.init" unicode="&#x67e;" horiz-adv-x="254" arabic-form="initial" 
d="M0 0c-13.333 0 -23.334 1.33105 -30.001 3.99805s-10 9.33398 -10 20.001c0 13.333 3.16699 22 9.5 26s16.5 6 30.5 6h72c16.667 0 28.834 3.83301 36.501 11.5s11.5 21.5 11.5 41.5v284c0 6.66699 3.33301 10 10 10h36c6.66699 0 10 -3.33301 10 -10v-267
c0 -43.333 -9 -75.166 -27 -95.499s-48 -30.5 -90 -30.5h-59zM95.999 -279.002c-6.66699 0 -10 3.33301 -10 10v60c0 6.66699 3.33301 10 10 10h52c6.66699 0 10 -3.33301 10 -10v-60c0 -6.66699 -3.33301 -10 -10 -10h-52zM156.999 -164.002c-6.66699 0 -10 3.33301 -10 10
v60c0 6.66699 3.33301 10 10 10h52c6.66699 0 10 -3.33301 10 -10v-60c0 -6.66699 -3.33301 -10 -10 -10h-52zM28.999 -164.002c-6.66699 0 -10 3.33301 -10 10v60c0 6.66699 3.33301 10 10 10h52c6.66699 0 10 -3.33301 10 -10v-60c0 -6.66699 -3.33301 -10 -10 -10h-52z
" />
    <glyph glyph-name="aPeh.medi" unicode="&#x67e;" horiz-adv-x="287" arabic-form="medial" 
d="M184 131c0 -25.333 8.83496 -44.167 26.502 -56.5s41.167 -18.5 70.5 -18.5h6c13.333 0 23.333 -1.83301 30 -5.5s10 -10.834 10 -21.501s-3 -18.167 -9 -22.5s-16.333 -6.5 -31 -6.5c-28 0 -52 3.16699 -72 9.5s-34.667 20.833 -44 43.5
c-8 -16 -18.667 -28.833 -32 -38.5s-32.666 -14.5 -57.999 -14.5h-81c-12.667 0 -21.834 1.83301 -27.501 5.5s-8.5 10.834 -8.5 21.501c0 11.333 2.66699 19 8 23s14.666 6 27.999 6h75c12.667 0 22.667 1.66699 30 5s12.666 8.5 15.999 15.5s5.5 15.833 6.5 26.5
s1.5 23 1.5 37v253c0 6.66699 3.33301 10 10 10h35c6.66699 0 10 -3.33301 10 -10v-262zM127.002 -279.001c-6.66699 0 -10 3.33301 -10 10v60c0 6.66699 3.33301 10 10 10h52c6.66699 0 10 -3.33301 10 -10v-60c0 -6.66699 -3.33301 -10 -10 -10h-52zM188.002 -164.001
c-6.66699 0 -10 3.33301 -10 10v60c0 6.66699 3.33301 10 10 10h52c6.66699 0 10 -3.33301 10 -10v-60c0 -6.66699 -3.33301 -10 -10 -10h-52zM60.002 -164.001c-6.66699 0 -10 3.33301 -10 10v60c0 6.66699 3.33301 10 10 10h52c6.66699 0 10 -3.33301 10 -10v-60
c0 -6.66699 -3.33301 -10 -10 -10h-52z" />
    <glyph glyph-name="aTteh.fina" unicode="&#x679;" horiz-adv-x="847" arabic-form="final" 
d="M744 126c0 -24 9.16602 -41.667 27.499 -53s41.5 -17 69.5 -17h6c13.333 0 23.333 -1.83301 30 -5.5s10 -10.167 10 -19.5c0 -15.333 -3.16699 -24.333 -9.5 -27s-16.5 -4 -30.5 -4c-26.667 0 -49.334 3.66699 -68.001 11s-33.667 20.333 -45 39
c-13.333 -33.333 -44.666 -50 -93.999 -50h-477c-42 -0 -72 8.33301 -90 25s-27 45 -27 85v219c0 6.66699 3.33301 10 10 10h35c6.66699 0 10 -3.33301 10 -10v-220c0 -19.333 3.83301 -33 11.5 -41s19.834 -12 36.501 -12h491c17.333 0 29.833 3.83301 37.5 11.5
s11.5 21.5 11.5 41.5v284c0 6.66699 3.33301 10 10 10h35c6.66699 0 10 -3.33301 10 -10v-267zM300.999 467c6.66699 0 10 5.00098 10 15.001v169c0 4.66699 2.66699 7 8 7h13c5.33301 0 8 -2.33301 8 -7v-90c10 5.33301 20.833 9.66602 32.5 12.999s23.167 5 34.5 5
c30 0 50.833 -7.83301 62.5 -23.5s17.5 -34.167 17.5 -55.5c0 -41.333 -18 -62 -54 -62h-144c-4.66699 0 -7 2.33301 -7 7v15c0 4.66699 2.33301 7 7 7h12zM410.999 550.001c-11.333 0 -23.332 -2 -35.999 -6s-24.334 -8.33301 -35.001 -13v-64h93
c11.333 0 18.333 2.16699 21 6.5s4 13.5 4 27.5c0 15.333 -3.16699 27.333 -9.5 36s-18.833 13 -37.5 13z" />
    <glyph glyph-name="aTteh.init" unicode="&#x679;" horiz-adv-x="255" arabic-form="initial" 
d="M0 0c-13.333 0 -23.333 1.66797 -30 5.00098s-10 10.666 -10 21.999c0 12.667 3.16699 20.667 9.5 24s16.5 5 30.5 5h73c16.667 0 29.5 4 38.5 12s13.5 21.667 13.5 41v284c0 6.66699 3.33301 10 10 10h35c6.66699 0 10 -3.33301 10 -10v-267
c0 -21.333 -1.66699 -40 -5 -56s-9.33301 -29.167 -18 -39.5s-20.5 -18 -35.5 -23s-34.5 -7.5 -58.5 -7.5h-63zM70 533.001c6.66699 0 10 5.00098 10 15.001v169c0 4.66699 2.66699 7 8 7h13c5.33301 0 8 -2.33301 8 -7v-90c10 5.33301 20.833 9.66602 32.5 12.999
s23.167 5 34.5 5c30 0 50.833 -7.83301 62.5 -23.5s17.5 -34.167 17.5 -55.5c0 -41.333 -18 -62 -54 -62h-144c-4.66699 0 -7 2.33301 -7 7v15c0 4.66699 2.33301 7 7 7h12zM180 616.002c-11.333 0 -23.332 -2 -35.999 -6s-24.334 -8.33301 -35.001 -13v-64h93
c11.333 0 18.333 2.16699 21 6.5s4 13.5 4 27.5c0 15.333 -3.16699 27.333 -9.5 36s-18.833 13 -37.5 13z" />
    <glyph glyph-name="aTteh.medi" unicode="&#x679;" horiz-adv-x="283" arabic-form="medial" 
d="M180 131c0 -25.333 8.83301 -44.167 26.5 -56.5s41.167 -18.5 70.5 -18.5h6c13.333 0 23.333 -1.83301 30 -5.5s10 -10.834 10 -21.501s-3 -18.167 -9 -22.5s-16.333 -6.5 -31 -6.5c-28 0 -52 3.16699 -72 9.5s-34.667 20.833 -44 43.5c-8 -16 -18.667 -28.833 -32 -38.5
s-32.666 -14.5 -57.999 -14.5h-77c-12.667 0 -22.5 1.83301 -29.5 5.5s-10.5 10.834 -10.5 21.501c0 11.333 3.33301 19 10 23s16.667 6 30 6h71c12.667 0 22.667 1.66699 30 5s12.666 8.5 15.999 15.5s5.5 15.833 6.5 26.5s1.5 23 1.5 37v253c0 6.66699 3.33301 10 10 10
h35c6.66699 0 10 -3.33301 10 -10v-262zM67 532.999c6.66699 0 10 5.00098 10 15.001v169c0 4.66699 2.66699 7 8 7h13c5.33301 0 8 -2.33301 8 -7v-90c10 5.33301 20.833 9.66602 32.5 12.999s23.167 5 34.5 5c30 0 50.833 -7.83301 62.5 -23.5s17.5 -34.167 17.5 -55.5
c0 -41.333 -18 -62 -54 -62h-144c-4.66699 0 -7 2.33301 -7 7v15c0 4.66699 2.33301 7 7 7h12zM177 616c-11.333 0 -23.332 -2 -35.999 -6s-24.334 -8.33301 -35.001 -13v-64h93c11.333 0 18.333 2.16699 21 6.5s4 13.5 4 27.5c0 15.333 -3.16699 27.333 -9.5 36
s-18.833 13 -37.5 13z" />
    <glyph glyph-name="aVeh.fina" unicode="&#x6a4;" horiz-adv-x="957" arabic-form="final" 
d="M698 363c-18.667 0 -35.833 -3 -51.5 -9s-29.334 -14.667 -41.001 -26s-20.834 -25 -27.501 -41s-10 -34 -10 -54c0 -19.333 3.5 -37.666 10.5 -54.999s16.5 -33 28.5 -47s25.833 -26.167 41.5 -36.5s32.167 -18.833 49.5 -25.5c17.333 6.66699 33.833 15.167 49.5 25.5
s29.334 22.5 41.001 36.5s21 29.667 28 47s10.5 35.666 10.5 54.999c0 41.333 -12.167 73.333 -36.5 96s-55.166 34 -92.499 34zM610.001 56c-29.333 21.333 -53.5039 46.666 -72.5039 75.999s-28.5 63.333 -28.5 102c0 24.667 4.33301 48.334 13 71.001s21 42.667 37 60
s35.667 31 59 41s50 15 80 15c30.667 0 57.834 -4.66699 81.501 -14s43.5 -22.333 59.5 -39s28.167 -36.167 36.5 -58.5s12.5 -46.5 12.5 -72.5c0 -19.333 -2.66699 -38 -8 -56s-12.666 -35 -21.999 -51s-20.333 -30.333 -33 -43s-26 -23 -40 -31h172
c13.333 0 23.333 -1.5 30 -4.5s10 -11.167 10 -24.5c0 -10 -3.16699 -17 -9.5 -21s-16.5 -6 -30.5 -6h-129c-24 0 -46.667 1 -68 3s-41.666 9 -60.999 21c-22 -12 -45.5 -19 -70.5 -21s-47.167 -3 -66.5 -3h-399c-42 -0 -72 8.33301 -90 25s-27 45 -27 85v219
c0 6.66699 3.33301 10 10 10h35c6.66699 0 10 -3.33301 10 -10v-220c0 -19.333 3.83301 -33 11.5 -41s19.834 -12 36.501 -12h461zM668.997 629c-6.66699 0 -10 3.33301 -10 10v60c0 6.66699 3.33301 10 10 10h52c6.66699 0 10 -3.33301 10 -10v-60
c0 -6.66699 -3.33301 -10 -10 -10h-52zM733.997 501c-6.66699 0 -10 3.33301 -10 10v60c0 6.66699 3.33301 10 10 10h52c6.66699 0 10 -3.33301 10 -10v-60c0 -6.66699 -3.33301 -10 -10 -10h-52zM605.997 501c-6.66699 0 -10 3.33301 -10 10v60c0 6.66699 3.33301 10 10 10
h52c6.66699 0 10 -3.33301 10 -10v-60c0 -6.66699 -3.33301 -10 -10 -10h-52z" />
    <glyph glyph-name="aVeh.init" unicode="&#x6a4;" horiz-adv-x="518" arabic-form="initial" 
d="M0 0c-14 0 -24.168 1.83301 -30.501 5.5s-9.5 12.167 -9.5 25.5c0 9.33301 3.33301 15.833 10 19.5s16.667 5.5 30 5.5h140c-11.333 18.667 -20.166 40.334 -26.499 65.001s-9.5 53.667 -9.5 87c0 71.333 16.167 124.666 48.5 159.999s74.833 53 127.5 53
c117.333 0 176 -71 176 -213c0 -74 -14.833 -127.167 -44.5 -159.5s-73.5 -48.5 -131.5 -48.5h-280zM279.999 365c-39.333 0 -69 -13.833 -89 -41.5s-30 -64.5 -30 -110.5c0 -54.667 9.33301 -94.5 28 -119.5s49 -37.5 91 -37.5s72.5 11.667 91.5 35s28.5 61.333 28.5 114
c0 49.333 -9.5 88.333 -28.5 117s-49.5 43 -91.5 43zM248.999 629c-6.66699 0 -10 3.33301 -10 10v60c0 6.66699 3.33301 10 10 10h52c6.66699 0 10 -3.33301 10 -10v-60c0 -6.66699 -3.33301 -10 -10 -10h-52zM313.999 501c-6.66699 0 -10 3.33301 -10 10v60
c0 6.66699 3.33301 10 10 10h52c6.66699 0 10 -3.33301 10 -10v-60c0 -6.66699 -3.33301 -10 -10 -10h-52zM185.999 501c-6.66699 0 -10 3.33301 -10 10v60c0 6.66699 3.33301 10 10 10h52c6.66699 0 10 -3.33301 10 -10v-60c0 -6.66699 -3.33301 -10 -10 -10h-52z" />
    <glyph glyph-name="aVeh.medi" unicode="&#x6a4;" horiz-adv-x="504" arabic-form="medial" 
d="M245 421c30.667 0 57.8311 -4.66797 81.498 -14.001s43.5 -22.333 59.5 -39s28.167 -36.167 36.5 -58.5s12.5 -46.5 12.5 -72.5c0 -19.333 -2.66699 -38 -8 -56s-12.666 -35 -21.999 -51s-20.333 -30.333 -33 -43s-26 -23 -40 -31h172c13.333 0 23.333 -1.5 30 -4.5
s10 -11.167 10 -24.5c0 -10 -3.16699 -17 -9.5 -21s-16.5 -6 -30.5 -6h-129c-24 0 -46.667 1 -68 3s-41.666 9 -60.999 21c-22 -12 -45.5 -19 -70.5 -21s-47.167 -3 -66.5 -3h-109c-26.667 0 -40 9.66699 -40 29c0 10.667 3.16699 17.834 9.5 21.501s16.5 5.5 30.5 5.5h157
c-29.333 21.333 -53.5 46.666 -72.5 75.999s-28.5 63.333 -28.5 102c0 24.667 4.33301 48.334 13 71.001s21 42.667 37 60s35.667 31 59 41s50 15 80 15zM244.997 362.999c-18.667 0 -35.833 -3 -51.5 -9s-29.334 -14.667 -41.001 -26s-20.834 -25 -27.501 -41
s-10 -34 -10 -54c0 -19.333 3.5 -37.666 10.5 -54.999s16.5 -33 28.5 -47s25.833 -26.167 41.5 -36.5s32.167 -18.833 49.5 -25.5c17.333 6.66699 33.833 15.167 49.5 25.5s29.334 22.5 41.001 36.5s21 29.667 28 47s10.5 35.666 10.5 54.999
c0 41.333 -12.167 73.333 -36.5 96s-55.166 34 -92.499 34zM218.998 628.999c-6.66699 0 -10 3.33301 -10 10v60c0 6.66699 3.33301 10 10 10h52c6.66699 0 10 -3.33301 10 -10v-60c0 -6.66699 -3.33301 -10 -10 -10h-52zM283.998 500.999c-6.66699 0 -10 3.33301 -10 10v60
c0 6.66699 3.33301 10 10 10h52c6.66699 0 10 -3.33301 10 -10v-60c0 -6.66699 -3.33301 -10 -10 -10h-52zM155.998 500.999c-6.66699 0 -10 3.33301 -10 10v60c0 6.66699 3.33301 10 10 10h52c6.66699 0 10 -3.33301 10 -10v-60c0 -6.66699 -3.33301 -10 -10 -10h-52z" />
    <glyph glyph-name="aTcheh.fina" unicode="&#x686;" horiz-adv-x="596" arabic-form="final" 
d="M155 0c-25.333 0 -42.5029 -6.99707 -51.5029 -20.9971s-13.5 -30 -13.5 -48c0 -24 6 -41.833 18 -53.5s33 -17.5 63 -17.5h65c6.66699 0 10 -3.33301 10 -10v-36c0 -6.66699 -3.33301 -10 -10 -10h-59c-96.667 0 -145 41 -145 123c0 25.333 3.66699 46.333 11 63
s16.833 29.834 28.5 39.501s24.334 16.5 38.001 20.5s26.5 6 38.5 6h196c20 0 35.833 1.66699 47.5 5s20.667 9.16602 27 17.499s10.333 19.166 12 32.499s2.5 30 2.5 50c0 31.333 -2.5 59.5 -7.5 84.5s-13.5 46.167 -25.5 63.5s-27.667 30.666 -47 39.999
s-43.333 14 -72 14c-23.333 0 -45.666 -4.16699 -66.999 -12.5s-40.666 -22.833 -57.999 -43.5c-4 -6 -8.66699 -6.66699 -14 -2l-27 24c-6 3.33301 -7 8 -3 14c17.333 22 39.5 40.5 66.5 55.5s61.5 22.5 103.5 22.5c43.333 0 78.833 -7.33301 106.5 -22
s49.167 -33.834 64.5 -57.501s26 -50.5 32 -80.5s9 -60.667 9 -92v-46c0 -22.667 7.83301 -39.5 23.5 -50.5s36.167 -16.5 61.5 -16.5h16c13.333 0 23.333 -1.83301 30 -5.5s10 -11.167 10 -22.5c0 -12 -3.16699 -19.667 -9.5 -23s-16.5 -5 -30.5 -5
c-28 0 -52.333 3.5 -73 10.5s-35.667 22.167 -45 45.5c-10 -20 -24.167 -34.333 -42.5 -43s-42.5 -13 -72.5 -13h-207zM309.997 -197.997c-5.33301 0 -8 2.33301 -8 7v43c0 5.33301 2.66699 8 8 8h37c5.33301 0 8 -2.66699 8 -8v-43c0 -4.66699 -2.66699 -7 -8 -7h-37z
M353.997 -114.997c-4.66699 0 -7 2.33301 -7 7v44c0 4.66699 2.33301 7 7 7h38c4.66699 0 7 -2.33301 7 -7v-44c0 -4.66699 -2.33301 -7 -7 -7h-38zM260.997 -114.997c-4.66699 0 -7 2.33301 -7 7v44c0 4.66699 2.33301 7 7 7h38c4.66699 0 7 -2.33301 7 -7v-44
c0 -4.66699 -2.33301 -7 -7 -7h-38z" />
    <glyph glyph-name="aTcheh.init" unicode="&#x686;" horiz-adv-x="511" arabic-form="initial" 
d="M0 0c-26.667 0 -40.002 8.66992 -40.002 26.0029c0 14 3.16699 22.5 9.5 25.5s16.5 4.5 30.5 4.5h302c20 0 35.833 1.66699 47.5 5s20.667 9.16602 27 17.499s10.333 19.166 12 32.499s2.5 30 2.5 50c0 31.333 -2.5 59.5 -7.5 84.5s-13.5 46.167 -25.5 63.5
s-27.667 30.666 -47 39.999s-43.333 14 -72 14c-23.333 0 -45.666 -4.16699 -66.999 -12.5s-40.666 -22.833 -57.999 -43.5c-4 -6 -8.66699 -6.66699 -14 -2l-27 24c-6 3.33301 -7 8 -3 14c17.333 22 39.5 40.5 66.5 55.5s61.5 22.5 103.5 22.5
c44 0 79.833 -7.5 107.5 -22.5s49.167 -34.5 64.5 -58.5s25.833 -51.333 31.5 -82s8.5 -61.667 8.5 -93c0 -30 -2 -55.5 -6 -76.5s-11 -38 -21 -51s-23.5 -22.5 -40.5 -28.5s-38.5 -9 -64.5 -9h-320zM235.998 -278.997c-6.66699 0 -10 3.33301 -10 10v60
c0 6.66699 3.33301 10 10 10h52c6.66699 0 10 -3.33301 10 -10v-60c0 -6.66699 -3.33301 -10 -10 -10h-52zM296.998 -163.997c-6.66699 0 -10 3.33301 -10 10v60c0 6.66699 3.33301 10 10 10h52c6.66699 0 10 -3.33301 10 -10v-60c0 -6.66699 -3.33301 -10 -10 -10h-52z
M168.998 -163.997c-6.66699 0 -10 3.33301 -10 10v60c0 6.66699 3.33301 10 10 10h52c6.66699 0 10 -3.33301 10 -10v-60c0 -6.66699 -3.33301 -10 -10 -10h-52z" />
    <glyph glyph-name="aTcheh.medi" unicode="&#x686;" horiz-adv-x="553" arabic-form="medial" 
d="M452 123c0 -22.667 7.83105 -39.4961 23.498 -50.4961s36.167 -16.5 61.5 -16.5h16c13.333 0 23.333 -1.83301 30 -5.5s10 -11.167 10 -22.5c0 -12 -3.16699 -19.667 -9.5 -23s-16.5 -5 -30.5 -5c-28 0 -52.333 3.5 -73 10.5s-35.667 22.167 -45 45.5
c-10 -20 -24.167 -34.333 -42.5 -43s-42.5 -13 -72.5 -13h-320c-26.667 0 -40 8.66699 -40 26c0 14 3.16699 22.5 9.5 25.5s16.5 4.5 30.5 4.5h302c20 0 35.833 1.66699 47.5 5s20.667 9.16602 27 17.499s10.333 19.166 12 32.499s2.5 30 2.5 50
c0 31.333 -2.5 59.5 -7.5 84.5s-13.5 46.167 -25.5 63.5s-27.667 30.666 -47 39.999s-43.333 14 -72 14c-23.333 0 -45.666 -4.16699 -66.999 -12.5s-40.666 -22.833 -57.999 -43.5c-4 -6 -8.66699 -6.66699 -14 -2l-27 24c-6 3.33301 -7 8 -3 14
c17.333 22 39.5 40.5 66.5 55.5s61.5 22.5 103.5 22.5c43.333 0 78.833 -7.33301 106.5 -22s49.167 -33.834 64.5 -57.501s26 -50.5 32 -80.5s9 -60.667 9 -92v-46zM235.998 -278.996c-6.66699 0 -10 3.33301 -10 10v60c0 6.66699 3.33301 10 10 10h52
c6.66699 0 10 -3.33301 10 -10v-60c0 -6.66699 -3.33301 -10 -10 -10h-52zM296.998 -163.996c-6.66699 0 -10 3.33301 -10 10v60c0 6.66699 3.33301 10 10 10h52c6.66699 0 10 -3.33301 10 -10v-60c0 -6.66699 -3.33301 -10 -10 -10h-52zM168.998 -163.996
c-6.66699 0 -10 3.33301 -10 10v60c0 6.66699 3.33301 10 10 10h52c6.66699 0 10 -3.33301 10 -10v-60c0 -6.66699 -3.33301 -10 -10 -10h-52z" />
    <glyph glyph-name="aDdal.fina" unicode="&#x688;" horiz-adv-x="529" arabic-form="final" 
d="M426 132c0 -25.333 8.83398 -44.332 26.501 -56.999s41.167 -19 70.5 -19h6c13.333 0 23.333 -2 30 -6s10 -11.667 10 -23s-3.16699 -18.666 -9.5 -21.999s-16.5 -5 -30.5 -5c-28 0 -53 3.66699 -75 11s-37 23 -45 47c-9.33301 -21.333 -23.333 -36.333 -42 -45
s-43 -13 -73 -13h-220c-6.66699 0 -10 3.33301 -10 10v36c0 6.66699 3.33301 10 10 10h200c20 0 36.167 1.66699 48.5 5s21.666 8.83301 27.999 16.5s10.5 18 12.5 31s3 29.167 3 48.5v97c0 37.333 -10 65.166 -30 83.499s-52 27.5 -96 27.5h-117
c-6.66699 0 -10 3.33301 -10 10v36c0 6.66699 3.33301 10 10 10h134c25.333 0 48.5 -3.33301 69.5 -10s38.833 -16.834 53.5 -30.501s26 -31.167 34 -52.5s12 -47 12 -77v-119zM135.001 533.001c6.66699 0 10 5.00098 10 15.001v169c0 4.66699 2.66699 7 8 7h13
c5.33301 0 8 -2.33301 8 -7v-90c10 5.33301 20.833 9.66602 32.5 12.999s23.167 5 34.5 5c30 0 50.833 -7.83301 62.5 -23.5s17.5 -34.167 17.5 -55.5c0 -41.333 -18 -62 -54 -62h-144c-4.66699 0 -7 2.33301 -7 7v15c0 4.66699 2.33301 7 7 7h12zM245.001 616.002
c-11.333 0 -23.332 -2 -35.999 -6s-24.334 -8.33301 -35.001 -13v-64h93c11.333 0 18.333 2.16699 21 6.5s4 13.5 4 27.5c0 15.333 -3.16699 27.333 -9.5 36s-18.833 13 -37.5 13z" />
    <glyph glyph-name="aJeh.fina" unicode="&#x698;" horiz-adv-x="273" arabic-form="final" 
d="M171 131c0 -25.333 8.83496 -44.168 26.502 -56.501s41.167 -18.5 70.5 -18.5h5c13.333 0 23.333 -1.83301 30 -5.5s10 -10.167 10 -19.5c0 -15.333 -3.16699 -24.333 -9.5 -27s-16.5 -4 -30.5 -4c-22 0 -41.333 1.66699 -58 5s-31.334 12 -44.001 26v-80
c0 -47.333 -11.667 -83.666 -35 -108.999s-60 -38 -110 -38h-17c-6.66699 0 -10 3.33301 -10 10v36c0 6.66699 3.33301 10 10 10h23c27.333 0 48.166 7 62.499 21s21.5 35.333 21.5 64v448c0 6.66699 3.33301 10 10 10h35c6.66699 0 10 -3.33301 10 -10v-262z
M119.002 628.998c-6.66699 0 -10 3.33301 -10 10v60c0 6.66699 3.33301 10 10 10h52c6.66699 0 10 -3.33301 10 -10v-60c0 -6.66699 -3.33301 -10 -10 -10h-52zM184.002 500.998c-6.66699 0 -10 3.33301 -10 10v60c0 6.66699 3.33301 10 10 10h52
c6.66699 0 10 -3.33301 10 -10v-60c0 -6.66699 -3.33301 -10 -10 -10h-52zM56.002 500.998c-6.66699 0 -10 3.33301 -10 10v60c0 6.66699 3.33301 10 10 10h52c6.66699 0 10 -3.33301 10 -10v-60c0 -6.66699 -3.33301 -10 -10 -10h-52z" />
    <glyph glyph-name="aRreh.fina" unicode="&#x691;" horiz-adv-x="273" arabic-form="final" 
d="M171 131c0 -25.333 8.83496 -44.168 26.502 -56.501s41.167 -18.5 70.5 -18.5h5c13.333 0 23.333 -1.83301 30 -5.5s10 -10.167 10 -19.5c0 -15.333 -3.16699 -24.333 -9.5 -27s-16.5 -4 -30.5 -4c-22 0 -41.333 1.66699 -58 5s-31.334 12 -44.001 26v-80
c0 -47.333 -11.667 -83.666 -35 -108.999s-60 -38 -110 -38h-17c-6.66699 0 -10 3.33301 -10 10v36c0 6.66699 3.33301 10 10 10h23c27.333 0 48.166 7 62.499 21s21.5 35.333 21.5 64v448c0 6.66699 3.33301 10 10 10h35c6.66699 0 10 -3.33301 10 -10v-262z
M60.002 532.998c6.66699 0 10 5.00098 10 15.001v169c0 4.66699 2.66699 7 8 7h13c5.33301 0 8 -2.33301 8 -7v-90c10 5.33301 20.833 9.66602 32.5 12.999s23.167 5 34.5 5c30 0 50.833 -7.83301 62.5 -23.5s17.5 -34.167 17.5 -55.5c0 -41.333 -18 -62 -54 -62h-144
c-4.66699 0 -7 2.33301 -7 7v15c0 4.66699 2.33301 7 7 7h12zM170.002 615.999c-11.333 0 -23.332 -2 -35.999 -6s-24.334 -8.33301 -35.001 -13v-64h93c11.333 0 18.333 2.16699 21 6.5s4 13.5 4 27.5c0 15.333 -3.16699 27.333 -9.5 36s-18.833 13 -37.5 13z" />
    <glyph glyph-name="aKeheh.fina" unicode="&#x6a9;" horiz-adv-x="868" arabic-form="final" 
d="M414 347c-6.66699 0 -10 3.33496 -10 10.002v37c0 6 1 9 3 9l222 261c4.66699 5.33301 9 6.33301 13 3l29 -23c6.66699 -4.66699 8 -9.33398 4 -14.001l-192 -227h113c25.333 0 48.5 -3.33301 69.5 -10s38.833 -16.834 53.5 -30.501s26 -31.167 34 -52.5s12 -47 12 -77
v-101c0 -25.333 8.83301 -44.333 26.5 -57s41.167 -19 70.5 -19h6c13.333 0 23.333 -2 30 -6s10 -11.667 10 -23s-3.16699 -18.666 -9.5 -21.999s-16.5 -5 -30.5 -5c-28 0 -53 3.66699 -75 11s-37 23 -45 47c-9.33301 -21.333 -23.333 -36.333 -42 -45s-43 -13 -73 -13h-470
c-42 0 -72 8.33301 -90 25s-27 45 -27 85v219c0 6.66699 3.33301 10 10 10h35c6.66699 0 10 -3.33301 10 -10v-220c0 -19.333 3.83301 -33 11.5 -41s19.834 -12 36.501 -12h464c20 0 36.167 1.66699 48.5 5s21.666 8.83301 27.999 16.5s10.5 18 12.5 31s3 29.167 3 48.5v79
c0 37.333 -10 65.166 -30 83.499s-52 27.5 -96 27.5h-165z" />
    <glyph glyph-name="aKeheh.init" unicode="&#x6a9;" horiz-adv-x="492" arabic-form="initial" 
d="M81 347c-6.66699 0 -9.99805 3.33594 -9.99805 10.0029v37c0 6 1 9 3 9l222 261c4.66699 5.33301 9 6.33301 13 3l29 -23c6.66699 -4.66699 8 -9.33398 4 -14.001l-192 -227h115c25.333 0 48.5 -3.33301 69.5 -10s38.833 -16.834 53.5 -30.501s26 -31.167 34 -52.5
s12 -47 12 -77v-62c0 -33.333 -2.33301 -61 -7 -83s-12.5 -39.5 -23.5 -52.5s-25.333 -22.167 -43 -27.5s-39.834 -8 -66.501 -8h-294c-13.333 0 -23.333 1.83301 -30 5.5s-10 11.167 -10 22.5c0 12 3.16699 19.667 9.5 23s16.5 5 30.5 5h282c20 0 36.167 1.66699 48.5 5
s21.666 8.83301 27.999 16.5s10.5 18 12.5 31s3 29.167 3 48.5v79c0 37.333 -10 65.166 -30 83.499s-52 27.5 -96 27.5h-167z" />
    <glyph glyph-name="aKeheh.medi" unicode="&#x6a9;" horiz-adv-x="535" arabic-form="medial" 
d="M265 403c25.333 0 48.501 -3.33105 69.501 -9.99805s38.833 -16.834 53.5 -30.501s26 -31.167 34 -52.5s12 -47 12 -77v-101c0 -25.333 8.83301 -44.333 26.5 -57s41.167 -19 70.5 -19h6c13.333 0 23.333 -2 30 -6s10 -11.667 10 -23s-3.16699 -18.666 -9.5 -21.999
s-16.5 -5 -30.5 -5c-28 0 -53 3.66699 -75 11s-37 23 -45 47c-9.33301 -21.333 -23.333 -36.333 -42 -45s-43 -13 -73 -13h-302c-26.667 0 -40 9.33301 -40 28c0 13.333 3.16699 21.333 9.5 24s16.5 4 30.5 4h282c20 0 36.167 1.66699 48.5 5s21.666 8.83301 27.999 16.5
s10.5 18 12.5 31s3 29.167 3 48.5v79c0 37.333 -10 65.166 -30 83.499s-52 27.5 -96 27.5h-167c-6.66699 0 -10 3.33301 -10 10v37c0 6 1 9 3 9l222 261c4.66699 5.33301 9 6.33301 13 3l29 -23c6.66699 -4.66699 8 -9.33398 4 -14.001l-192 -227h115z" />
    <glyph glyph-name="aGaf.fina" unicode="&#x6af;" horiz-adv-x="868" arabic-form="final" 
d="M414 347c-6.66699 0 -10 3.33496 -10 10.002v37c0 6 1 9 3 9l222 261c4.66699 5.33301 9 6.33301 13 3l29 -23c6.66699 -4.66699 8 -9.33398 4 -14.001l-192 -227h113c25.333 0 48.5 -3.33301 69.5 -10s38.833 -16.834 53.5 -30.501s26 -31.167 34 -52.5s12 -47 12 -77
v-101c0 -25.333 8.83301 -44.333 26.5 -57s41.167 -19 70.5 -19h6c13.333 0 23.333 -2 30 -6s10 -11.667 10 -23s-3.16699 -18.666 -9.5 -21.999s-16.5 -5 -30.5 -5c-28 0 -53 3.66699 -75 11s-37 23 -45 47c-9.33301 -21.333 -23.333 -36.333 -42 -45s-43 -13 -73 -13h-470
c-42 0 -72 8.33301 -90 25s-27 45 -27 85v219c0 6.66699 3.33301 10 10 10h35c6.66699 0 10 -3.33301 10 -10v-220c0 -19.333 3.83301 -33 11.5 -41s19.834 -12 36.501 -12h464c20 0 36.167 1.66699 48.5 5s21.666 8.83301 27.999 16.5s10.5 18 12.5 31s3 29.167 3 48.5v79
c0 37.333 -10 65.166 -30 83.499s-52 27.5 -96 27.5h-165zM364 445.002c-5.33301 -6 -10 -7 -14 -3l-26 22c-6 5.33301 -7.33301 10 -4 14l218 256c4.66699 6 9 7 13 3l27 -22c6 -5.33301 7.33301 -10 4 -14z" />
    <glyph glyph-name="aGaf.init" unicode="&#x6af;" horiz-adv-x="482" arabic-form="initial" 
d="M41 445c-5.33301 -6 -10 -7 -14 -3l-26 22c-6 5.33301 -7.33301 10 -4 14l218 256c4.66699 6 9 7 13 3l27 -22c6 -5.33301 7.33301 -10 4 -14zM81 347c-6.66699 0 -9.99805 3.33594 -9.99805 10.0029v37c0 6 1 9 3 9l222 261c4.66699 5.33301 9 6.33301 13 3l29 -23
c6.66699 -4.66699 8 -9.33398 4 -14.001l-192 -227h115c25.333 0 48.5 -3.33301 69.5 -10s38.833 -16.834 53.5 -30.501s26 -31.167 34 -52.5s12 -47 12 -77v-62c0 -33.333 -2.33301 -61 -7 -83s-12.5 -39.5 -23.5 -52.5s-25.333 -22.167 -43 -27.5s-39.834 -8 -66.501 -8
h-294c-13.333 0 -23.333 1.83301 -30 5.5s-10 11.167 -10 22.5c0 12 3.16699 19.667 9.5 23s16.5 5 30.5 5h282c20 0 36.167 1.66699 48.5 5s21.666 8.83301 27.999 16.5s10.5 18 12.5 31s3 29.167 3 48.5v79c0 37.333 -10 65.166 -30 83.499s-52 27.5 -96 27.5h-167z" />
    <glyph glyph-name="aGaf.medi" unicode="&#x6af;" horiz-adv-x="536" arabic-form="medial" 
d="M265 403c25.333 0 48.501 -3.33105 69.501 -9.99805s38.833 -16.834 53.5 -30.501s26 -31.167 34 -52.5s12 -47 12 -77v-101c0 -25.333 8.83301 -44.333 26.5 -57s41.167 -19 70.5 -19h6c13.333 0 23.333 -2 30 -6s10 -11.667 10 -23s-3.16699 -18.666 -9.5 -21.999
s-16.5 -5 -30.5 -5c-28 0 -53 3.66699 -75 11s-37 23 -45 47c-9.33301 -21.333 -23.333 -36.333 -42 -45s-43 -13 -73 -13h-302c-26.667 0 -40 9.33301 -40 28c0 13.333 3.16699 21.333 9.5 24s16.5 4 30.5 4h282c20 0 36.167 1.66699 48.5 5s21.666 8.83301 27.999 16.5
s10.5 18 12.5 31s3 29.167 3 48.5v79c0 37.333 -10 65.166 -30 83.499s-52 27.5 -96 27.5h-167c-6.66699 0 -10 3.33301 -10 10v37c0 6 1 9 3 9l222 261c4.66699 5.33301 9 6.33301 13 3l29 -23c6.66699 -4.66699 8 -9.33398 4 -14.001l-192 -227h115zM41.001 445.002
c-5.33301 -6 -10 -7 -14 -3l-26 22c-6 5.33301 -7.33301 10 -4 14l218 256c4.66699 6 9 7 13 3l27 -22c6 -5.33301 7.33301 -10 4 -14z" />
    <glyph glyph-name="aNunGhunna.fina" unicode="&#x6ba;" horiz-adv-x="592" arabic-form="final" 
d="M443 305c0 6.66699 3.33398 10 10.001 10h35c6.66699 0 10 -3.33301 10 -10v-174c0 -25.333 7.83301 -44.166 23.5 -56.499s37.5 -18.5 65.5 -18.5h5c16 0 26.667 -1.83301 32 -5.5s8 -11.167 8 -22.5s-3.16699 -18.833 -9.5 -22.5s-16.5 -5.5 -30.5 -5.5
c-20 0 -37.833 2.33301 -53.5 7s-29.167 13 -40.5 25v-13c0 -30.667 -4.5 -58.834 -13.5 -84.501s-22.667 -47.834 -41 -66.501s-41.833 -33.334 -70.5 -44.001s-62.334 -16 -101.001 -16c-36 0 -68.167 5 -96.5 15s-52 24.167 -71 42.5s-33.5 40.5 -43.5 66.5
s-15 54.667 -15 86c0 42 6.83301 80.333 20.5 115s28.5 63.334 44.5 86.001c2.66699 4 7.33398 4 14.001 0l31 -20c5.33301 -3.33301 6.33301 -7.66602 3 -12.999c-13.333 -20.667 -26 -45.167 -38 -73.5s-18 -57.833 -18 -88.5c0 -31.333 5.66699 -57.166 17 -77.499
s25.666 -36.333 42.999 -48s36.166 -19.834 56.499 -24.501s39.833 -7 58.5 -7c22.667 0 44.167 2.66699 64.5 8s37.833 14 52.5 26s26.334 27.5 35.001 46.5s13 42.167 13 69.5v288z" />
    <glyph glyph-name="aHehYeh.fina" unicode="&#x6c0;" horiz-adv-x="482" arabic-form="final" 
d="M328 421l-0.000976562 43c0 6.66699 3.33301 10 10 10h35c6.66699 0 10 -3.33301 10 -10v-355c0 -20 3.83301 -33.833 11.5 -41.5s19.834 -11.5 36.501 -11.5h50c13.333 0 23.333 -2 30 -6s10 -11.667 10 -23c0 -13.333 -3.16699 -21.166 -9.5 -23.499
s-16.5 -3.5 -30.5 -3.5h-36c-64 0 -101.667 27.667 -113 83c-12 -12 -27.333 -21 -46 -27s-39 -9 -61 -9c-52 0 -94.667 14.667 -128 44s-50 73.666 -50 132.999c0 36 5 66.5 15 91.5s23.5 45.333 40.5 61s36.667 27 59 34s45.5 10.5 69.5 10.5h97zM213.999 103
c44 0 74.001 13.167 90.001 39.5s24 61.833 24 106.5v116h-107c-17.333 0 -33 -2.33301 -47 -7s-26.333 -12.5 -37 -23.5s-18.834 -25.5 -24.501 -43.5s-8.5 -40.333 -8.5 -67c0 -38.667 9.33301 -68.5 28 -89.5s46 -31.5 82 -31.5zM169 545
c-5.33301 8 -10 17.832 -14 29.499s-6 24.167 -6 37.5c0 9.33301 1.5 19.666 4.5 30.999s8.16699 22 15.5 32s17.333 18.333 30 25s28.667 10 48 10c15.333 0 29.333 -2.5 42 -7.5s23 -13.167 31 -24.5c1.33301 -3.33301 1.83301 -5.66602 1.5 -6.99902
s-0.833008 -2.66602 -1.5 -3.99902l-17 -10c-4.66699 -4 -8.33398 -4.66699 -11.001 -2c-5.33301 6 -12.166 11.333 -20.499 16s-17.833 7 -28.5 7c-21.333 0 -36.833 -6.66699 -46.5 -20s-14.5 -28 -14.5 -44c0 -15.333 4.16699 -29.333 12.5 -42s16.5 -21.667 24.5 -27
h104c4 0 6 -2.33301 6 -7v-19c0 -4.66699 -2 -7 -6 -7h-193c-4 0 -6 2.33301 -6 7v19c0 4.66699 2 7 6 7h39z" />
    <glyph glyph-name="aHehGoal.fina" unicode="&#x6c1;" horiz-adv-x="470" arabic-form="final" 
d="M354 128c0 -23.333 4.83203 -41.166 14.499 -53.499s28.5 -18.5 56.5 -18.5h45c14 0 24.167 -2 30.5 -6s9.5 -11.667 9.5 -23c0 -12.667 -3.33301 -20.334 -10 -23.001s-16.667 -4 -30 -4h-49c-42 0 -72.833 10.5 -92.5 31.5s-29.5 48.5 -29.5 82.5v226h-78
c-46 0 -78.5 -11.667 -97.5 -35s-28.5 -57 -28.5 -101v-194c0 -6.66699 -3.33301 -10 -10 -10h-35c-6.66699 -0 -10 3.33301 -10 10v206c0 38.667 5.83301 70.167 17.5 94.5s26.834 43.333 45.501 57s39.667 23 63 28s47 7.5 71 7.5h107c6.66699 0 10 -3.33301 10 -10v-265z
" />
    <glyph glyph-name="aHehGoal.init" unicode="&#x6c1;" horiz-adv-x="261" arabic-form="initial" 
d="M193 -133c-3.33301 -0.666992 -7.00195 -0.998047 -11.002 -0.998047h-11c-15.333 0 -30.5 1.83301 -45.5 5.5s-28.333 9.66699 -40 18s-21.167 19 -28.5 32s-11 29.167 -11 48.5c0 8.66699 1 18.667 3 30h-49c-13.333 0 -23.333 1.66699 -30 5s-10 10.666 -10 21.999
c0 13.333 3.16699 21.5 9.5 24.5s16.5 4.5 30.5 4.5h77c16.667 0 28.834 3.83301 36.501 11.5s11.5 21.5 11.5 41.5v284c0 6.66699 3.33301 10 10 10h35c6.66699 0 10 -3.33301 10 -10v-267c0 -34.667 -5.5 -61.834 -16.5 -81.501s-29.167 -32.834 -54.5 -39.501
c-2.66699 -10.667 -4 -20.667 -4 -30c0 -12 2.5 -21.667 7.5 -29s11.667 -13 20 -17s17.833 -6.66699 28.5 -8s21.334 -2 32.001 -2c6.66699 0 10 -3.33301 10 -10v-32c0 -5.33301 -3.33301 -8.66602 -10 -9.99902z" />
    <glyph glyph-name="aHehGoal.medi" unicode="&#x6c1;" horiz-adv-x="418" arabic-form="medial" 
d="M124 56c6.66699 0 10.001 -3.33398 10.001 -10.001v-71c0 -30 8.16699 -52.667 24.5 -68s40.166 -23 71.499 -23v50c0 17.333 1.66699 33.5 5 48.5s9.16602 28 17.499 39s19.333 19.5 33 25.5s30.834 9 51.501 9h81c13.333 0 23.333 -1.66699 30 -5
s10 -10.666 10 -21.999c0 -19.333 -13.333 -29 -40 -29h-71c-21.333 -0 -37 -4.16699 -47 -12.5s-15 -23.833 -15 -46.5v-104c0 -6.66699 -3.33301 -10 -10 -10h-17c-54 0 -97.333 11.333 -130 34s-49 59.667 -49 111v28h-79c-26.667 -0 -40 9.33301 -40 28
c0 11.333 3.16699 18.833 9.5 22.5s16.5 5.5 30.5 5.5h124z" />
    <glyph glyph-name="aHehDoachashmi.fina" unicode="&#x6be;" horiz-adv-x="544" arabic-form="final" 
d="M94 0c-15.333 0 -25.167 -2.16309 -29.5 -6.49609s-6.5 -13.5 -6.5 -27.5v-23c0 -6.66699 -3.33301 -10 -10 -10h-35c-6.66699 0 -10 3.33301 -10 10v57c0 12 1.83301 21.667 5.5 29s8.5 13 14.5 17s12.5 6.66699 19.5 8s14.167 2 21.5 2h56v149
c0 71.333 16 125.166 48 161.499s73.667 54.5 125 54.5c58.667 0 102.834 -17.833 132.501 -53.5s44.5 -87.834 44.5 -156.501c0 -30.667 -4.5 -59.834 -13.5 -87.501s-19.5 -50.167 -31.5 -67.5h119c27.333 0 41 -9.66699 41 -29c0 -10 -3.5 -17 -10.5 -21
s-17.167 -6 -30.5 -6h-108c7.33301 -8 13.333 -18 18 -30s7 -24.667 7 -38c0 -16.667 -3 -32.834 -9 -48.501s-15.833 -29.667 -29.5 -42s-31.334 -22.333 -53.001 -30s-48.167 -11.5 -79.5 -11.5c-61.333 0 -105 11.833 -131 35.5s-39 56.5 -39 98.5v66h-26z
M291.999 365.004c-35.333 0 -63.5 -12.668 -84.5 -38.001s-31.5 -62 -31.5 -110v-161h140c17.333 0 32.166 4.83301 44.499 14.5s22.333 22 30 37s13.334 31.5 17.001 49.5s5.5 35.333 5.5 52c0 48.667 -9.83301 86.834 -29.5 114.501s-50.167 41.5 -91.5 41.5z
M292.999 -143.997c40.667 0 69.333 6 86 18s25 30 25 54c0 10 -1.5 19.5 -4.5 28.5s-8.83301 16.667 -17.5 23s-20.834 11.333 -36.501 15s-36.167 5.5 -61.5 5.5h-108v-64c0 -31.333 9.83301 -52.5 29.5 -63.5s48.834 -16.5 87.501 -16.5z" />
    <glyph glyph-name="aHehDoachashmi.init" unicode="&#x6be;" horiz-adv-x="606" arabic-form="initial" 
d="M295 363c-25.333 0 -51.3271 -3.3291 -77.9941 -9.99609s-52.667 -17 -78 -31c-2.66699 -1.33301 -5.33398 -2.5 -8.00098 -3.5s-4.66699 -0.166992 -6 2.5l-17 30c-4 7.33301 -4 12.333 0 15c32 19.333 64.167 33 96.5 41s65.833 12 100.5 12
c45.333 0 83.5 -6.66699 114.5 -20s56 -31 75 -53s32.5 -46.833 40.5 -74.5s12 -55.834 12 -84.501c0 -34 -2.83301 -62.833 -8.5 -86.5s-14.834 -43 -27.501 -58s-29.334 -25.833 -50.001 -32.5s-45.667 -10 -75 -10h-386c-13.333 0 -23.333 1.66699 -30 5
s-10 10.333 -10 21c0 13.333 3.16699 21.666 9.5 24.999s16.5 5 30.5 5h132c-6.66699 9.33301 -11.834 22.166 -15.501 38.499s-5.5 32.166 -5.5 47.499c0 48 12.333 84.333 37 109s57 37 97 37c36.667 0 67.167 -12 91.5 -36s36.5 -57 36.5 -99
c0 -26.667 -2.83301 -48 -8.5 -64s-10.834 -27 -15.501 -33h23c26.667 0 47.667 2.66699 63 8s26.833 13.5 34.5 24.5s12.5 24.667 14.5 41s3 35.5 3 57.5c0 58 -16.833 101.833 -50.5 131.5s-80.834 44.5 -141.501 44.5zM242.006 231.004
c-13.333 0 -24.6689 -2.5 -34.002 -7.5s-16.833 -11.667 -22.5 -20s-9.66699 -17.666 -12 -27.999s-3.5 -20.833 -3.5 -31.5c0 -17.333 1.83301 -31.666 5.5 -42.999s8.66699 -20.333 15 -27s13.5 -11.334 21.5 -14.001s16 -4 24 -4h13c8.66699 0 16.834 1.16699 24.501 3.5
s14.334 6.66602 20.001 12.999s10.167 15 13.5 26s5 25.5 5 43.5c0 11.333 -1 22.333 -3 33s-5.66699 20.167 -11 28.5s-12.5 15 -21.5 20s-20.5 7.5 -34.5 7.5z" />
    <glyph glyph-name="aHehDoachashmi.medi" unicode="&#x6be;" horiz-adv-x="548" arabic-form="medial" 
d="M-40 28c0 12.667 3.16699 20.5039 9.5 23.5039s16.5 4.5 30.5 4.5h124v149c0 71.333 16 125.166 48 161.499s73.667 54.5 125 54.5c58.667 0 102.834 -17.833 132.501 -53.5s44.5 -87.834 44.5 -156.501c0 -30.667 -4.5 -59.834 -13.5 -87.501s-19.5 -50.167 -31.5 -67.5
h119c27.333 0 41 -9.66699 41 -29c0 -10 -3.5 -17 -10.5 -21s-17.167 -6 -30.5 -6h-108c7.33301 -8 13.333 -18 18 -30s7 -24.667 7 -38c0 -16.667 -3 -32.834 -9 -48.501s-15.833 -29.667 -29.5 -42s-31.334 -22.333 -53.001 -30s-48.167 -11.5 -79.5 -11.5
c-61.333 0 -105 11.833 -131 35.5s-39 56.5 -39 98.5v66h-124c-26.667 -0 -40 9.33301 -40 28zM296 365.004c-35.333 0 -63.5 -12.668 -84.5 -38.001s-31.5 -62 -31.5 -110v-161h140c17.333 0 32.166 4.83301 44.499 14.5s22.333 22 30 37s13.334 31.5 17.001 49.5
s5.5 35.333 5.5 52c0 48.667 -9.83301 86.834 -29.5 114.501s-50.167 41.5 -91.5 41.5zM297 -143.997c40.667 0 69.333 6 86 18s25 30 25 54c0 10 -1.5 19.5 -4.5 28.5s-8.83301 16.667 -17.5 23s-20.834 11.333 -36.501 15s-36.167 5.5 -61.5 5.5h-108v-64
c0 -31.333 9.83301 -52.5 29.5 -63.5s48.834 -16.5 87.501 -16.5z" />
    <glyph glyph-name="aYehBarri.fina" unicode="&#x6d2;" horiz-adv-x="326" arabic-form="final" 
d="M571 -140c6.66699 0 10.0029 -3.33203 10.0029 -9.99902v-36c0 -6.66699 -3.33301 -10 -10 -10h-411c-26 0 -47.833 3.16699 -65.5 9.5s-31.834 15.166 -42.501 26.499s-18.167 24.5 -22.5 39.5s-6.5 31.167 -6.5 48.5c0 24.667 4.33301 45.167 13 61.5
s19.834 29.5 33.501 39.5s29.167 17 46.5 21s35 6 53 6h157c13.333 0 23.333 -1.5 30 -4.5s10 -10.833 10 -23.5c0 -18.667 -13.333 -28 -40 -28h-165c-31.333 0 -53.833 -6.33301 -67.5 -19s-20.5 -29.667 -20.5 -51c0 -14.667 2.16699 -26.5 6.5 -35.5
s10.666 -16 18.999 -21s18.666 -8.5 30.999 -10.5s26.166 -3 41.499 -3h400z" />
    <glyph glyph-name="aYehBarriHamzaabove.fina" unicode="&#x6d3;" horiz-adv-x="326" arabic-form="final" 
d="M571 -140c6.66699 0 10.0029 -3.33203 10.0029 -9.99902v-36c0 -6.66699 -3.33301 -10 -10 -10h-411c-26 0 -47.833 3.16699 -65.5 9.5s-31.834 15.166 -42.501 26.499s-18.167 24.5 -22.5 39.5s-6.5 31.167 -6.5 48.5c0 24.667 4.33301 45.167 13 61.5
s19.834 29.5 33.501 39.5s29.167 17 46.5 21s35 6 53 6h157c13.333 0 23.333 -1.5 30 -4.5s10 -10.833 10 -23.5c0 -18.667 -13.333 -28 -40 -28h-165c-31.333 0 -53.833 -6.33301 -67.5 -19s-20.5 -29.667 -20.5 -51c0 -14.667 2.16699 -26.5 6.5 -35.5
s10.666 -16 18.999 -21s18.666 -8.5 30.999 -10.5s26.166 -3 41.499 -3h400zM95.0029 154.001c-5.33301 8.66699 -9.83008 17.9961 -13.4971 27.9961s-5.5 22.667 -5.5 38c0 8.66699 1.5 18.334 4.5 29.001s8.16699 20.834 15.5 30.501s17.333 17.834 30 24.501
s28.667 10 48 10c15.333 0 30.166 -3.16699 44.499 -9.5s25.166 -15.166 32.499 -26.499c2 -4 1.33301 -7.66699 -2 -11l-15 -13c-3.33301 -3.33301 -7 -3 -11 1c-6 6.66699 -13.5 12 -22.5 16s-19.167 6 -30.5 6c-17.333 0 -30.833 -6 -40.5 -18s-14.5 -26.667 -14.5 -44
c0 -12.667 3.16699 -24.5 9.5 -35.5s13.166 -19.5 20.499 -25.5h105c4 0 6 -2.33301 6 -7v-24c0 -4.66699 -2 -7 -6 -7h-193c-4 0 -6 2.33301 -6 7v24c0 4.66699 2 7 6 7h38z" />
    <glyph glyph-name="aAlifMaksura.init" unicode="&#x649;" horiz-adv-x="255" arabic-form="initial" 
d="M0 0c-13.333 0 -23.333 1.66797 -30 5.00098s-10 10.666 -10 21.999c0 12.667 3.16699 20.667 9.5 24s16.5 5 30.5 5h73c16.667 0 29.5 4 38.5 12s13.5 21.667 13.5 41v284c0 6.66699 3.33301 10 10 10h35c6.66699 0 10 -3.33301 10 -10v-267
c0 -21.333 -1.66699 -40 -5 -56s-9.33301 -29.167 -18 -39.5s-20.5 -18 -35.5 -23s-34.5 -7.5 -58.5 -7.5h-63z" />
    <glyph glyph-name="aAlifMaksura.medi" unicode="&#x649;" horiz-adv-x="283" arabic-form="medial" 
d="M180 131c0 -25.333 8.83301 -44.167 26.5 -56.5s41.167 -18.5 70.5 -18.5h6c13.333 0 23.333 -1.83301 30 -5.5s10 -10.834 10 -21.501s-3 -18.167 -9 -22.5s-16.333 -6.5 -31 -6.5c-28 0 -52 3.16699 -72 9.5s-34.667 20.833 -44 43.5c-8 -16 -18.667 -28.833 -32 -38.5
s-32.666 -14.5 -57.999 -14.5h-77c-12.667 0 -22.5 1.83301 -29.5 5.5s-10.5 10.834 -10.5 21.501c0 11.333 3.33301 19 10 23s16.667 6 30 6h71c12.667 0 22.667 1.66699 30 5s12.666 8.5 15.999 15.5s5.5 15.833 6.5 26.5s1.5 23 1.5 37v253c0 6.66699 3.33301 10 10 10
h35c6.66699 0 10 -3.33301 10 -10v-262z" />
    <glyph glyph-name="aYehFarsi.fina" unicode="&#x6cc;" horiz-adv-x="728" arabic-form="final" 
d="M94 25c0 -30 4.66992 -55.3379 14.0029 -76.0049s21.833 -37.5 37.5 -50.5s34 -22.333 55 -28s43.5 -8.5 67.5 -8.5h248c39.333 0 66.666 6.16699 81.999 18.5s23 29.5 23 51.5c0 17.333 -4.83301 31.833 -14.5 43.5s-23.834 22.5 -42.501 32.5s-41.5 19.667 -68.5 29
l-91.5 33c-6 2 -8 6 -6 12l17 40c2 6.66699 6 9 12 7c21.333 -8 42.166 -16.333 62.499 -25s40.5 -16.5 60.5 -23.5s39.5 -12.833 58.5 -17.5s38.167 -7 57.5 -7h62c13.333 0 23.333 -1 30 -3s10 -8.66699 10 -20c0 -13.333 -3.16699 -22.166 -9.5 -26.499
s-16.5 -6.5 -30.5 -6.5h-74c3.33301 -5.33301 7.5 -14.666 12.5 -27.999s7.5 -27.666 7.5 -42.999s-2.5 -30.5 -7.5 -45.5s-13.333 -28.333 -25 -40s-26.834 -21.167 -45.501 -28.5s-41.334 -11 -68.001 -11h-269c-69.333 0 -123.666 19 -162.999 57s-59 90.667 -59 158
c0 42 6.83301 80.333 20.5 115s28.5 63.334 44.5 86.001c2.66699 4 7.33398 4 14.001 0l31 -20c5.33301 -3.33301 6.33301 -7.66602 3 -12.999c-13.333 -20.667 -26 -45.167 -38 -73.5s-18 -57.833 -18 -88.5z" />
    <glyph glyph-name="aYehFarsi.init" unicode="&#x6cc;" horiz-adv-x="254" arabic-form="initial" 
d="M0 0c-13.333 0 -23.334 1.33105 -30.001 3.99805s-10 9.33398 -10 20.001c0 13.333 3.16699 22 9.5 26s16.5 6 30.5 6h72c16.667 0 28.834 3.83301 36.501 11.5s11.5 21.5 11.5 41.5v284c0 6.66699 3.33301 10 10 10h36c6.66699 0 10 -3.33301 10 -10v-267
c0 -43.333 -9 -75.166 -27 -95.499s-48 -30.5 -90 -30.5h-59zM153.999 -164.002c-6.66699 0 -10 3.33301 -10 10v60c0 6.66699 3.33301 10 10 10h52c6.66699 0 10 -3.33301 10 -10v-60c0 -6.66699 -3.33301 -10 -10 -10h-52zM25.999 -164.002c-6.66699 0 -10 3.33301 -10 10
v60c0 6.66699 3.33301 10 10 10h52c6.66699 0 10 -3.33301 10 -10v-60c0 -6.66699 -3.33301 -10 -10 -10h-52z" />
    <glyph glyph-name="aYehFarsi.medi" unicode="&#x6cc;" horiz-adv-x="287" arabic-form="medial" 
d="M184 131c0 -25.333 8.83496 -44.167 26.502 -56.5s41.167 -18.5 70.5 -18.5h6c13.333 0 23.333 -1.83301 30 -5.5s10 -10.834 10 -21.501s-3 -18.167 -9 -22.5s-16.333 -6.5 -31 -6.5c-28 0 -52 3.16699 -72 9.5s-34.667 20.833 -44 43.5
c-8 -16 -18.667 -28.833 -32 -38.5s-32.666 -14.5 -57.999 -14.5h-81c-12.667 0 -21.834 1.83301 -27.501 5.5s-8.5 10.834 -8.5 21.501c0 11.333 2.66699 19 8 23s14.666 6 27.999 6h75c12.667 0 22.667 1.66699 30 5s12.666 8.5 15.999 15.5s5.5 15.833 6.5 26.5
s1.5 23 1.5 37v253c0 6.66699 3.33301 10 10 10h35c6.66699 0 10 -3.33301 10 -10v-262zM189.002 -164.001c-6.66699 0 -10 3.33301 -10 10v60c0 6.66699 3.33301 10 10 10h52c6.66699 0 10 -3.33301 10 -10v-60c0 -6.66699 -3.33301 -10 -10 -10h-52zM61.002 -164.001
c-6.66699 0 -10 3.33301 -10 10v60c0 6.66699 3.33301 10 10 10h52c6.66699 0 10 -3.33301 10 -10v-60c0 -6.66699 -3.33301 -10 -10 -10h-52z" />
    <glyph glyph-name="aShadda_aDammatan" unicode="&#xfc5e;" horiz-adv-x="0" arabic-form="isolated" 
d="M-127 896c0 6.66699 3.33301 10 10 10h16c6.66699 0 10 -3.33301 10 -10v-74c0 -12.667 3.33301 -22.5 10 -29.5s15.334 -10.5 26.001 -10.5s19.334 3.16699 26.001 9.5s10 15.166 10 26.499v78c0 6.66699 3.33301 10 10 10h16c6.66699 0 10 -3.33301 10 -10v-78
c0 -11.333 3.33301 -20.166 10 -26.499s15.334 -9.5 26.001 -9.5c10 0 18.5 3.5 25.5 10.5s10.5 16.833 10.5 29.5v74c0 6.66699 3.33301 10 10 10h16c6.66699 0 10 -3.33301 10 -10v-71c0 -23.333 -6.83301 -42 -20.5 -56s-30.834 -21 -51.501 -21
c-22.667 0 -40.334 7.33301 -53.001 22c-12.667 -14.667 -31 -22 -55 -22c-20.667 0 -37.834 7 -51.501 21s-20.5 32.667 -20.5 56v71zM-145 1082c-6.66699 0 -9.99902 3.33398 -9.99902 10.001v12c0 6.66699 3.33301 10 10 10h4c21.333 0 39.166 -6.83301 53.499 -20.5
s21.5 -36.167 21.5 -67.5c0 -17.333 5.16699 -28 15.5 -32s25.5 -6 45.5 -6c15.333 0 28 1.5 38 4.5s18.333 6.83301 25 11.5s11.5 9.5 14.5 14.5s5.16699 9.5 6.5 13.5h-35c-22 0 -39.5 6 -52.5 18s-19.5 28 -19.5 48c0 21.333 7.16699 39 21.5 53s31.5 21 51.5 21
c21.333 0 39 -7 53 -21s21 -37 21 -69c0 -24 -3.16699 -44 -9.5 -60s-15 -29 -26 -39s-24 -17 -39 -21s-31.5 -6 -49.5 -6c-13.333 0 -25.666 0.666992 -36.999 2s-21.333 4.5 -30 9.5s-15.334 12.167 -20.001 21.5s-7 21.666 -7 36.999c0 19.333 -3.5 33.5 -10.5 42.5
s-16.167 13.5 -27.5 13.5h-8zM85.001 1063c1.33301 2.66699 2.00098 5.83203 2.00098 9.49902v9.5c0 19.333 -4 34 -12 44s-18 15 -30 15c-13.333 0 -23.333 -4.66699 -30 -14s-10 -19 -10 -29c0 -7.33301 1.66699 -13.166 5 -17.499s7.16602 -7.83301 11.499 -10.5
s9 -4.5 14 -5.5s9.5 -1.5 13.5 -1.5h36z" />
    <glyph glyph-name="aShadda_aKasratan" unicode="&#xfc5f;" horiz-adv-x="0" arabic-form="isolated" 
d="M-127 1057c0 6.66699 3.33301 10 10 10h16c6.66699 0 10 -3.33301 10 -10v-74c0 -12.667 3.33301 -22.5 10 -29.5s15.334 -10.5 26.001 -10.5s19.334 3.16699 26.001 9.5s10 15.166 10 26.499v78c0 6.66699 3.33301 10 10 10h16c6.66699 0 10 -3.33301 10 -10v-78
c0 -11.333 3.33301 -20.166 10 -26.499s15.334 -9.5 26.001 -9.5c10 0 18.5 3.5 25.5 10.5s10.5 16.833 10.5 29.5v74c0 6.66699 3.33301 10 10 10h16c6.66699 0 10 -3.33301 10 -10v-71c0 -23.333 -6.83301 -42 -20.5 -56s-30.834 -21 -51.501 -21
c-22.667 0 -40.334 7.33301 -53.001 22c-12.667 -14.667 -31 -22 -55 -22c-20.667 0 -37.834 7 -51.501 21s-20.5 32.667 -20.5 56v71zM-126 750c-6.66699 0 -10 3.33301 -10 10v11c0 6.66699 3.33301 10 10 10h254c6.66699 0 10 -3.33301 10 -10v-11
c0 -6.66699 -3.33301 -10 -10 -10h-254zM-126 820c-6.66699 0 -10 3.33301 -10 10v11c0 6.66699 3.33301 10 10 10h254c6.66699 0 10 -3.33301 10 -10v-11c0 -6.66699 -3.33301 -10 -10 -10h-254z" />
    <glyph glyph-name="aShadda_aFatha" unicode="&#xfc60;" horiz-adv-x="0" arabic-form="isolated" 
d="M-128 961c-6.66699 0 -10 3.33301 -10 10v11c0 6.66699 3.33301 10 10 10h254c6.66699 0 10 -3.33301 10 -10v-11c0 -6.66699 -3.33301 -10 -10 -10h-254zM-127 896c0 6.66699 3.33301 10 10 10h16c6.66699 0 10 -3.33301 10 -10v-74c0 -12.667 3.33301 -22.5 10 -29.5
s15.334 -10.5 26.001 -10.5s19.334 3.16699 26.001 9.5s10 15.166 10 26.499v78c0 6.66699 3.33301 10 10 10h16c6.66699 0 10 -3.33301 10 -10v-78c0 -11.333 3.33301 -20.166 10 -26.499s15.334 -9.5 26.001 -9.5c10 0 18.5 3.5 25.5 10.5s10.5 16.833 10.5 29.5v74
c0 6.66699 3.33301 10 10 10h16c6.66699 0 10 -3.33301 10 -10v-71c0 -23.333 -6.83301 -42 -20.5 -56s-30.834 -21 -51.501 -21c-22.667 0 -40.334 7.33301 -53.001 22c-12.667 -14.667 -31 -22 -55 -22c-20.667 0 -37.834 7 -51.501 21s-20.5 32.667 -20.5 56v71z" />
    <glyph glyph-name="aShadda_aDamma" unicode="&#xfc61;" horiz-adv-x="0" arabic-form="isolated" 
d="M45 1060c0.666992 3.33301 1 6.66602 1 9.99902v10c0 19.333 -3.83301 33.833 -11.5 43.5s-17.5 14.5 -29.5 14.5c-13.333 0 -23.5 -4.66699 -30.5 -14s-10.5 -18.666 -10.5 -27.999c0 -14 5.5 -23.5 16.5 -28.5s20.5 -7.5 28.5 -7.5h36zM-45 985
c15.333 0 28.0029 1.49902 38.0029 4.49902s18.167 6.83301 24.5 11.5s11.166 9.66699 14.499 15s5.66602 10 6.99902 14h-35c-22.667 0 -40.334 5.83301 -53.001 17.5s-19 27.834 -19 48.501s7 38.167 21 52.5s31.333 21.5 52 21.5s38.167 -7 52.5 -21s21.5 -37 21.5 -69
c0 -24 -3.16699 -44.167 -9.5 -60.5s-15 -29.5 -26 -39.5s-24 -17 -39 -21s-31.5 -6 -49.5 -6h-28c-6.66699 0 -10 3.33301 -10 10v12c0 6.66699 3.33301 10 10 10h28zM-126.997 895.999c0 6.66699 3.33301 10 10 10h16c6.66699 0 10 -3.33301 10 -10v-74
c0 -12.667 3.33301 -22.5 10 -29.5s15.334 -10.5 26.001 -10.5s19.334 3.16699 26.001 9.5s10 15.166 10 26.499v78c0 6.66699 3.33301 10 10 10h16c6.66699 0 10 -3.33301 10 -10v-78c0 -11.333 3.33301 -20.166 10 -26.499s15.334 -9.5 26.001 -9.5
c10 0 18.5 3.5 25.5 10.5s10.5 16.833 10.5 29.5v74c0 6.66699 3.33301 10 10 10h16c6.66699 0 10 -3.33301 10 -10v-71c0 -23.333 -6.83301 -42 -20.5 -56s-30.834 -21 -51.501 -21c-22.667 0 -40.334 7.33301 -53.001 22c-12.667 -14.667 -31 -22 -55 -22
c-20.667 0 -37.834 7 -51.501 21s-20.5 32.667 -20.5 56v71z" />
    <glyph glyph-name="aShadda_aKasra" unicode="&#xfc62;" horiz-adv-x="0" arabic-form="isolated" 
d="M-128 753c-6.66699 0 -10 3.33301 -10 10v11c0 6.66699 3.33301 10 10 10h254c6.66699 0 10 -3.33301 10 -10v-11c0 -6.66699 -3.33301 -10 -10 -10h-254zM-127 978c0 6.66699 3.33301 10 10 10h16c6.66699 0 10 -3.33301 10 -10v-74c0 -12.667 3.33301 -22.5 10 -29.5
s15.334 -10.5 26.001 -10.5s19.334 3.16699 26.001 9.5s10 15.166 10 26.499v78c0 6.66699 3.33301 10 10 10h16c6.66699 0 10 -3.33301 10 -10v-78c0 -11.333 3.33301 -20.166 10 -26.499s15.334 -9.5 26.001 -9.5c10 0 18.5 3.5 25.5 10.5s10.5 16.833 10.5 29.5v74
c0 6.66699 3.33301 10 10 10h16c6.66699 0 10 -3.33301 10 -10v-71c0 -23.333 -6.83301 -42 -20.5 -56s-30.834 -21 -51.501 -21c-22.667 0 -40.334 7.33301 -53.001 22c-12.667 -14.667 -31 -22 -55 -22c-20.667 0 -37.834 7 -51.501 21s-20.5 32.667 -20.5 56v71z" />
    <glyph glyph-name="aShadda_aAlifabove" unicode="&#xfc63;" horiz-adv-x="0" arabic-form="isolated" 
d="M-127 896c0 6.66699 3.33301 10 10 10h16c6.66699 0 10 -3.33301 10 -10v-74c0 -12.667 3.33301 -22.5 10 -29.5s15.334 -10.5 26.001 -10.5s19.334 3.16699 26.001 9.5s10 15.166 10 26.499v78c0 6.66699 3.33301 10 10 10h16c6.66699 0 10 -3.33301 10 -10v-78
c0 -11.333 3.33301 -20.166 10 -26.499s15.334 -9.5 26.001 -9.5c10 0 18.5 3.5 25.5 10.5s10.5 16.833 10.5 29.5v74c0 6.66699 3.33301 10 10 10h16c6.66699 0 10 -3.33301 10 -10v-71c0 -23.333 -6.83301 -42 -20.5 -56s-30.834 -21 -51.501 -21
c-22.667 0 -40.334 7.33301 -53.001 22c-12.667 -14.667 -31 -22 -55 -22c-20.667 0 -37.834 7 -51.501 21s-20.5 32.667 -20.5 56v71zM17 950c0 -6.66699 -3.33301 -10 -10 -10h-15c-6.66699 0 -10 3.33301 -10 10v124c0 6.66699 3.33301 10 10 10h15
c6.66699 0 10 -3.33301 10 -10v-124z" />
    <glyph glyph-name="aAllah" unicode="&#xfdf2;" horiz-adv-x="1265" arabic-form="isolated" 
d="M753 0c-28 0 -51.833 3.16602 -71.5 9.49902s-34.167 20.833 -43.5 43.5c-8 -16 -18.667 -28.833 -32 -38.5s-32.666 -14.5 -57.999 -14.5h-129c-12 0 -24 1.16699 -36 3.5s-22.667 6.5 -32 12.5s-17 14.667 -23 26s-9 26 -9 44c-12 -12 -27 -21.5 -45 -28.5
s-41.667 -10.5 -71 -10.5c-50 0 -89.833 14.5 -119.5 43.5s-44.5 73.5 -44.5 133.5c0 36 4.5 66.5 13.5 91.5s21.667 45.333 38 61s35.666 27 57.999 34s46.833 10.5 73.5 10.5h97v43c0 6.66699 3.33301 10 10 10h35c6.66699 0 10 -3.33301 10 -10v-355
c0 -20 3.83301 -33.833 11.5 -41.5s19.834 -11.5 36.501 -11.5h120c12.667 0 22.667 1.66699 30 5s12.666 8.5 15.999 15.5s5.5 15.833 6.5 26.5s1.5 23 1.5 37v530c0 6.66699 3.33301 10 10 10h35c6.66699 0 10 -3.33301 10 -10v-539c0 -25.333 8.33301 -44.166 25 -56.499
s39 -18.5 67 -18.5h83c16.667 0 29.5 4 38.5 12s13.5 21.667 13.5 41v561c0 6.66699 3.33301 10 10 10h35c6.66699 0 10 -3.33301 10 -10v-544c0 -21.333 -1.66699 -40 -5 -56s-9.33301 -29.167 -18 -39.5s-20.5 -18 -35.5 -23s-34.5 -7.5 -58.5 -7.5h-63zM207 102.999
c42.667 0 72 9.66895 88 29.002s24 45.666 24 78.999v154h-107c-36 0 -64.5 -10.333 -85.5 -31s-31.5 -57.334 -31.5 -110.001c0 -42.667 9.5 -73.5 28.5 -92.5s46.833 -28.5 83.5 -28.5zM1185 10.001c0 -6.66699 -3.33301 -10 -10 -10h-35c-6.66699 0 -10 3.33301 -10 10
v660c0 6.66699 3.33301 10 10 10h35c6.66699 0 10 -3.33301 10 -10v-660z" />
    <glyph glyph-name="aAllahlong" unicode="&#xfdfa;" horiz-adv-x="1057" arabic-form="isolated" 
d="M1017 437c0 -9.33301 -5.33398 -22.3359 -16.001 -39.0029c-10 -16 -20.333 -26.333 -31 -31c-31.333 -14 -70 -21 -116 -21h-23c-8 0 -16.333 0.666992 -25 2c-16 -31.333 -28.667 -47 -38 -47c-2.66699 0 -4 2 -4 6c0 10.667 7.33301 26.334 22 47.001
c-28.667 11.333 -44.667 20 -48 26c-26.667 -17.333 -43.334 -26 -50.001 -26c5.33301 -94 13.666 -152.667 24.999 -176c12.667 -25.333 41.667 -38.333 87 -39c-14.667 11.333 -22 26 -22 44c0 22 10.667 47.333 32 76c16 21.333 36.333 32 61 32
c18.667 0 36.334 -5.66699 53.001 -17c16 -11.333 24 -21.666 24 -30.999c-17.333 6 -34.666 9 -51.999 9c-23.333 0 -45 -4.66699 -65 -14c-17.333 -9.33301 -26 -18.333 -26 -27c0 -9.33301 8.33301 -22.333 25 -39c16 -16.667 30.667 -26.334 44 -29.001
c12.667 1.33301 35.334 7.33301 68.001 18c16.667 5.33301 30.667 10 42 14s19.666 7.66699 24.999 11l-17 -37c-67.333 -35.333 -131 -53 -191 -53c-64.667 0 -104.334 24.333 -119.001 73c-20 -43.333 -39 -65 -57 -65c-17.333 0 -39.666 14.667 -66.999 44
c-43.333 -37.333 -109 -56 -197 -56c-13.333 0 -25.833 0.5 -37.5 1.5s-22.5 2.16699 -32.5 3.5c2.66699 -21.333 5.66699 -38.666 9 -51.999c6 -24 13.667 -40.667 23 -50c29.333 -29.333 88 -44 176 -44c75.333 0 130.333 10.667 165 32c10 24.667 19.333 37 28 37
c2.66699 0 4 -2.66699 4 -8c0 -9.33301 -4 -24 -12 -44c4 -8.66699 13 -13 27 -13c17.333 0 33.666 4 48.999 12c14 44 25 66 33 66c2.66699 0 4 -3.66699 4 -11c0 -12.667 -3.33301 -27 -10 -43c20 -8.66699 34.667 -13 44 -13c0.666992 0 2.16699 0.166992 4.5 0.5
s3.5 1.5 3.5 3.5c0 2.66699 -2.66699 15.334 -8 38.001l17 36c8 -24 12 -41.333 12 -52c0 -44.667 -14.667 -67 -44 -67c-15.333 0 -31.333 6.33301 -48 19c-10 -17.333 -29.667 -26 -59 -26c-32 0 -48 8.66699 -48 26c-13.333 -9.33301 -34.666 -17.333 -63.999 -24
c-35.333 -7.33301 -75.666 -11 -120.999 -11c-64.667 0 -112.334 9.33301 -143.001 28c-39.333 22.667 -59.333 64.667 -60 126l-22 -32c-10.667 -16 -19.334 -24.667 -26.001 -26c8 -14 12 -27.667 12 -41c0 -17.333 -5.33301 -31.333 -16 -42
c-5.33301 -5.33301 -12.333 -8 -21 -8c-13.333 0 -33.666 7.66699 -60.999 23c-8.66699 -20 -22.667 -35.667 -42 -47c-2 -1.33301 -5.16699 -2.33301 -9.5 -3s-8.83301 -1.16699 -13.5 -1.5s-9 -0.666016 -13 -0.999023s-7 -0.833008 -9 -1.5l-11 -4c-4 0 -6 1.66699 -6 5
c0 2.66699 8 7.66699 24 15c20.667 8 33.667 14.333 39 19l34 26c-6.66699 11.333 -10 24.666 -10 39.999c0 14 6 27.667 18 41c12 14 23.333 21 34 21c1.33301 0 3.33301 -0.666992 6 -2c11.333 -6.66699 21 -10 29 -10c12 0 24 7.66699 36 23l23 42
c-26 8 -44.333 17 -55 27c-19.333 17.333 -33 45.666 -41 84.999c-19.333 -33.333 -45.666 -50 -78.999 -50c-12 0 -25 2.66699 -39 8c-10.667 4.66699 -16 8.66699 -16 12c0 16.667 14.333 36 43 58c13.333 10.667 27.166 19.5 41.499 26.5s28.833 12.833 43.5 17.5l-2 17
l20 33c4.66699 -72 11.667 -119 21 -141c8.66699 -20.667 27.334 -35.667 56.001 -45l-13 132l19 43l17 -180c34.667 -4 66.334 -6 95.001 -6c69.333 0 128.333 13.333 177 40c9.33301 25.333 15.666 38 18.999 38c2.66699 0 4 -3 4 -9c0 -6.66699 -1.33301 -15 -4 -25
c24.667 -23.333 44.334 -35 59.001 -35c17.333 0 31.333 14.333 42 43l-13 161c-48.667 0 -78.667 24.667 -90 74c-4.66699 -18.667 -9.33398 -32.667 -14.001 -42c-7.33301 -17.333 -16.333 -27.333 -27 -30l3 -3c23.333 0 40.666 -2.66699 51.999 -8s17 -15.333 17 -30
c0 -20 -8.33301 -35.333 -25 -46c-57.333 -39.333 -110.666 -59 -159.999 -59c-30.667 0 -55.334 7.83301 -74.001 23.5s-28 37.5 -28 65.5c0 21.333 5.33301 43.666 16 66.999c-18 4.66699 -30.667 19 -38 43c-12 -34 -31 -51 -57 -51c-31.333 0 -47 25.667 -47 77l-27 -24
c-4.66699 -4.66699 -17.667 -7 -39 -7c-32.667 0 -49 6 -49 18c0 7.33301 4.33301 17.666 13 30.999c8.66699 14.667 17 23.667 25 27l76 37v10l17 36l4 -120c0.666992 -28 11.334 -42 32.001 -42c10 0 19.833 3.5 29.5 10.5s15.167 14.5 16.5 22.5l-16 114l18 39l28 -161
c6 -14 17 -21 33 -21c15.333 0 23 4.33301 23 13c0 14.667 -5.33301 39.334 -16 74.001l-10 32l-10 33l13 33c26.667 -82.667 40 -135 40 -157c0 -14 -3.33301 -28.667 -10 -44c-6.66699 -18.667 -15 -28 -25 -28c-3.33301 0 -6.33301 1 -9 3
c-4.66699 -13.333 -7 -26.333 -7 -39c0 -50 30.333 -75 91 -75c47.333 0 94.666 16 141.999 48c1.33301 1.33301 2 2.33301 2 3c0 4 -12.667 8 -38 12c-39.333 6 -59.666 9.33301 -60.999 10c-2.66699 2 -4 4.66699 -4 8c0 6.66699 5.66699 17.334 17 32.001
c40 16.667 61.333 34.334 64 53.001c0.666992 2 1 6.66699 1 14c0 32.667 -1.66699 68.167 -5 106.5s-8.33301 79.833 -15 124.5l17 56c16 -140.667 28.667 -226 38 -256c12 -38 36 -60 72 -66l-5 96l21 45l8 -140c18.667 6.66699 38.667 18.667 60 36l30 -21
c12.667 -8 25.667 -13 39 -15c15.333 16 37 34.333 65 55c34.667 25.333 58 38 70 38s25.667 -4.66699 41 -14c17.333 -10 26 -21 26 -33zM1008 1.99707c0 -33.333 -13 -69.333 -39 -108c-28 -42.667 -57.667 -64 -89 -64c-15.333 0 -35 5.33301 -59 16
c-24.667 10.667 -37 18.334 -37 23.001c0 2.66699 1.66699 4 5 4c4 0 13 -2.33301 27 -7c5.33301 -2 11.5 -3.83301 18.5 -5.5s13.167 -2.5 18.5 -2.5c45.333 0 91.333 35.333 138 106l-7 22c-12 -17.333 -24.333 -26 -37 -26c-10 0 -18.5 4.66699 -25.5 14
s-10.5 19.666 -10.5 30.999c0 14 5 30.667 15 50c10.667 20.667 20 31 28 31s18.667 -8 32 -24c14.667 -17.333 22 -37.333 22 -60zM969.999 638.997c-24 -8.66699 -62.666 -25.6689 -115.999 -51.002c-64 -31.333 -96 -51.666 -96 -60.999
c0 -7.33301 8.66699 -15.666 26 -24.999l-9 -24c-22 6.66699 -33 20 -33 40s8.66699 34.667 26 44c85.333 49.333 155.666 83.333 210.999 102zM476 446.995c-2 -44 -6.33301 -68.333 -13 -73l-25 242l22 57zM602 36.9951l-26 -31l-48 35l-28 -36l-50 36l29 35l47 -35l27 33
zM989 419.995c0 4.66699 -6.00098 9.99902 -18.001 15.999c-11.333 6 -20 9 -26 9c-14 0 -34 -8 -60 -24c-20 -12.667 -35.667 -24 -47 -34c2.66699 -0.666992 9.33398 -1 20.001 -1c26 0 53.333 2.66699 82 8c32.667 6.66699 49 15.334 49 26.001zM631.999 -121.006
c0 -13.333 -0.666016 -23.333 -1.99902 -30c-4 -8.66699 -12.333 -13 -25 -13c-6.66699 0 -11.334 1.33301 -14.001 4c-10 -10.667 -20 -16 -30 -16c-5.33301 0 -10.833 2.83301 -16.5 8.5s-9.83398 8.5 -12.501 8.5c-5.33301 0 -17.666 -5.66699 -36.999 -17
c-19.333 -12 -42.666 -18 -69.999 -18c-29.333 0 -44 2.66699 -44 8c0 4.66699 10.667 7 32 7c11.333 0 21 0.166992 29 0.5s13.667 0.833008 17 1.5c10 2 21.667 7.33301 35 16c19.333 12.667 32.666 19 39.999 19c5.33301 0 11.666 -2.66699 18.999 -8
s11.666 -8 12.999 -8c10 0 16 5.66699 18 17c0.666992 8.66699 4.33398 13 11.001 13c2.66699 0 4 -2 4 -6s-0.333008 -7 -1 -9c0.666992 -2.66699 4.33398 -4.66699 11.001 -6c8 0 12 4 12 12c0 10.667 3.66699 16 11 16zM815 704.994l-6 -22l-195 -96l4 25zM169 262.994
c-58.667 -22.667 -88 -40 -88 -52c0 -6.66699 10.333 -10 31 -10c22 0 41.667 8 59 24zM324 664.994c0 -21.333 -7.00098 -31.999 -21.001 -31.999c-8.66699 0 -15.667 2.66699 -21 8c-12 -10 -22 -15 -30 -15c-14 0 -21 9 -21 27c0 12.667 1 21.667 3 27l6 6
c0 -24.667 5.66699 -37 17 -37c8 0 14.333 5.33301 19 16l-2 23l9 14l4 -30c0.666992 -10.667 5.66699 -16 15 -16c7.33301 0 11 4 11 12c0 0.666992 -0.166992 2.16699 -0.5 4.5s-1.16602 9.16602 -2.49902 20.499l7 10c4.66699 -12 7 -24.667 7 -38zM188.999 486.995
c-6.66699 -3.33301 -13.333 -6.33398 -20 -9.00098l-21 -8c-22.667 -11.333 -34 -19.666 -34 -24.999c0 -6.66699 8.33301 -10 25 -10c19.333 0 36.333 4.33301 51 13zM214 -39.0059c0 5.33301 -2.5 11.5 -7.5 18.5s-10.5 12.5 -16.5 16.5c-12.667 9.33301 -24 14 -34 14
c-9.33301 0 -14 -4 -14 -12c0 -8.66699 8.66699 -17.667 26 -27c16 -10 29 -15 39 -15c4.66699 0 7 1.66699 7 5zM979 9.99414c-4 21.333 -12.666 32 -25.999 32c-10.667 0 -17.334 -8.33301 -20.001 -25c2.66699 -12 13 -18 31 -18c8.66699 0 13.667 3.66699 15 11z" />
    <glyph glyph-name="aAlifMadda.fina" unicode="&#x622;" horiz-adv-x="231" arabic-form="final" 
d="M-62 777c3.33301 12 7.83496 21.4971 13.502 28.4971s11.667 12.5 18 16.5s13 6.5 20 7.5s13.5 1.5 19.5 1.5c15.333 0 31.5 -2.66699 48.5 -8s34 -11.166 51 -17.499s33.667 -12.166 50 -17.499s32.166 -8 47.499 -8c11.333 0 19.5 2.5 24.5 7.5s7.5 13.833 7.5 26.5
c0 6.66699 3.33301 10 10 10h19c6.66699 0 10 -3.33301 10 -10c0 -15.333 -2.16699 -27.833 -6.5 -37.5s-10 -17 -17 -22s-15 -8.33301 -24 -10s-17.833 -2.5 -26.5 -2.5c-16.667 0 -33.834 2.66699 -51.501 8s-35.167 11.333 -52.5 18s-34 12.667 -50 18s-30.333 8 -43 8
c-6.66699 0 -13 -1.83301 -19 -5.5s-10.667 -11.167 -14 -22.5c-2 -5.33301 -5.66699 -7.66602 -11 -6.99902l-18 7c-6 1.33301 -8 5 -6 11zM75.002 669.997c0 6.66699 3.33203 10 9.99902 10h35c6.66699 0 10 -3.33301 10 -10v-561c0 -20 4.33301 -33.833 13 -41.5
s21.334 -11.5 38.001 -11.5h50c26.667 0 40 -9.33301 40 -28c0 -13.333 -3.16699 -21.333 -9.5 -24s-16.5 -4 -30.5 -4h-39c-42 0 -72 8.5 -90 25.5s-27 44.833 -27 83.5v561z" />
    <glyph glyph-name="aAlifHamza.fina" unicode="&#x623;" horiz-adv-x="231" arabic-form="final" 
d="M75 670c0 6.66699 3.33203 10 9.99902 10h35c6.66699 0 10 -3.33301 10 -10v-561c0 -20 4.33301 -33.833 13 -41.5s21.334 -11.5 38.001 -11.5h50c26.667 0 40 -9.33301 40 -28c0 -13.333 -3.16699 -21.333 -9.5 -24s-16.5 -4 -30.5 -4h-39c-42 0 -72 8.5 -90 25.5
s-27 44.833 -27 83.5v561zM47.999 768c-5.33301 8.66699 -9.83008 17.9961 -13.4971 27.9961s-5.5 22.667 -5.5 38c0 8.66699 1.5 18.334 4.5 29.001s8.16699 20.834 15.5 30.501s17.333 17.834 30 24.501s28.667 10 48 10c15.333 0 30.166 -3.16699 44.499 -9.5
s25.166 -15.166 32.499 -26.499c2 -4 1.33301 -7.66699 -2 -11l-15 -13c-3.33301 -3.33301 -7 -3 -11 1c-6 6.66699 -13.5 12 -22.5 16s-19.167 6 -30.5 6c-17.333 0 -30.833 -6 -40.5 -18s-14.5 -26.667 -14.5 -44c0 -12.667 3.16699 -24.5 9.5 -35.5
s13.166 -19.5 20.499 -25.5h105c4 0 6 -2.33301 6 -7v-24c0 -4.66699 -2 -7 -6 -7h-193c-4 0 -6 2.33301 -6 7v24c0 4.66699 2 7 6 7h38z" />
    <glyph glyph-name="aWawHamza.fina" unicode="&#x624;" horiz-adv-x="489" arabic-form="final" 
d="M145 -196c-6.66699 0 -9.99805 3.33301 -9.99805 10v36c0 6.66699 3.33301 10 10 10h122c32.667 0 56.834 6 72.501 18s23.5 36 23.5 72v50h-113c-28 -0 -53.333 3.33301 -76 10s-42.167 17.667 -58.5 33s-28.833 35.833 -37.5 61.5s-13 57.5 -13 95.5
c0 36 4.66699 67.833 14 95.5s22.166 50.667 38.499 69s35.333 32.333 57 42s45.167 14.5 70.5 14.5c59.333 0 103.166 -17.667 131.499 -53s42.5 -89.333 42.5 -162v-150h70c13.333 0 23.333 -1.66699 30 -5s10 -10 10 -20c0 -13.333 -3.16699 -21.833 -9.5 -25.5
s-16.5 -5.5 -30.5 -5.5h-70v-49c0 -52 -10.833 -89.5 -32.5 -112.5s-55.834 -34.5 -102.501 -34.5h-139zM245.002 365c-36.667 0 -66.167 -14 -88.5 -42s-33.5 -69.667 -33.5 -125c0 -26.667 2.5 -49 7.5 -67s12.833 -32.5 23.5 -43.5s24 -19 40 -24s34.667 -7.5 56 -7.5
h113v148c0 51.333 -9 91 -27 119s-48.333 42 -91 42zM169.002 529c-5.33301 6.66699 -10.002 14.832 -14.002 24.499s-6 21.167 -6 34.5c0 8.66699 1.5 18.334 4.5 29.001s8.5 20.834 16.5 30.501s19 17.667 33 24s31.667 9.5 53 9.5c17.333 0 33 -3.33301 47 -10
s25 -14.667 33 -24c3.33301 -4 3 -8 -1 -12l-20 -18c-1.33301 -0.666992 -3.66602 0.666016 -6.99902 3.99902c-6.66699 5.33301 -14.667 10.333 -24 15s-20.666 7 -33.999 7c-22.667 0 -38.5 -6.16699 -47.5 -18.5s-13.5 -24.833 -13.5 -37.5c0 -16 4 -28.667 12 -38
s15.667 -16 23 -20h117c4 0 6 -2.33301 6 -7v-25c0 -4.66699 -2 -7 -6 -7h-205c-4 0 -6 2.33301 -6 7v25c0 4.66699 2 7 6 7h33z" />
    <glyph glyph-name="aAlifHamzabelow.fina" unicode="&#x625;" horiz-adv-x="231" arabic-form="final" 
d="M75 670c0 6.66699 3.33203 10 9.99902 10h35c6.66699 0 10 -3.33301 10 -10v-561c0 -20 4.33301 -33.833 13 -41.5s21.334 -11.5 38.001 -11.5h50c26.667 0 40 -9.33301 40 -28c0 -13.333 -3.16699 -21.333 -9.5 -24s-16.5 -4 -30.5 -4h-39c-42 0 -72 8.5 -90 25.5
s-27 44.833 -27 83.5v561zM47.999 -230c-5.33301 8.66699 -9.8291 17.9971 -13.4961 27.9971s-5.5 22.667 -5.5 38c0 8.66699 1.5 18.334 4.5 29.001s8.16699 20.834 15.5 30.501s17.333 17.834 30 24.501s28.667 10 48 10c15.333 0 30.166 -3.16699 44.499 -9.5
s25.166 -15.166 32.499 -26.499c1.33301 -2.66699 1.66602 -4.83398 0.999023 -6.50098s-1.66699 -3.16699 -3 -4.5l-15 -13c-3.33301 -3.33301 -7 -3 -11 1c-6 6.66699 -13.5 12 -22.5 16s-19.167 6 -30.5 6c-17.333 0 -30.833 -6 -40.5 -18s-14.5 -26.667 -14.5 -44
c0 -12.667 3.16699 -24.5 9.5 -35.5s13.166 -19.5 20.499 -25.5h105c4 0 6 -2.33301 6 -7v-24c0 -4.66699 -2 -7 -6 -7h-193c-4 0 -6 2.33301 -6 7v24c0 4.66699 2 7 6 7h38z" />
    <glyph glyph-name="aYehHamza.fina" unicode="&#x626;" horiz-adv-x="737" arabic-form="final" 
d="M122 352c-5.33301 6.66699 -10.002 14.832 -14.002 24.499s-6 21.167 -6 34.5c0 8.66699 1.5 18.334 4.5 29.001s8.5 20.834 16.5 30.501s19 17.667 33 24s31.667 9.5 53 9.5c17.333 0 33 -3.33301 47 -10s25 -14.667 33 -24c3.33301 -4 3 -8 -1 -12l-20 -18
c-1.33301 -0.666992 -3.66602 0.666016 -6.99902 3.99902c-6.66699 5.33301 -14.667 10.333 -24 15s-20.666 7 -33.999 7c-22.667 0 -38.5 -6.16699 -47.5 -18.5s-13.5 -24.833 -13.5 -37.5c0 -16 4 -28.667 12 -38s15.667 -16 23 -20h117c4 0 6 -2.33301 6 -7v-25
c0 -4.66699 -2 -7 -6 -7h-205c-4 0 -6 2.33301 -6 7v25c0 4.66699 2 7 6 7h33zM102.998 24.998c0 -30 4.66992 -55.3379 14.0029 -76.0049s21.833 -37.5 37.5 -50.5s34 -22.333 55 -28s43.5 -8.5 67.5 -8.5h248c39.333 0 66.666 6.16699 81.999 18.5s23 29.5 23 51.5
c0 17.333 -4.83301 31.833 -14.5 43.5s-23.834 22.5 -42.501 32.5s-41.5 19.667 -68.5 29l-91.5 33c-6 2 -8 6 -6 12l17 40c2 6.66699 6 9 12 7c21.333 -8 42.166 -16.333 62.499 -25s40.5 -16.5 60.5 -23.5s39.5 -12.833 58.5 -17.5s38.167 -7 57.5 -7h62
c13.333 0 23.333 -1 30 -3s10 -8.66699 10 -20c0 -13.333 -3.16699 -22.166 -9.5 -26.499s-16.5 -6.5 -30.5 -6.5h-74c3.33301 -5.33301 7.5 -14.666 12.5 -27.999s7.5 -27.666 7.5 -42.999s-2.5 -30.5 -7.5 -45.5s-13.333 -28.333 -25 -40s-26.834 -21.167 -45.501 -28.5
s-41.334 -11 -68.001 -11h-269c-69.333 0 -123.666 19 -162.999 57s-59 90.667 -59 158c0 42 6.83301 80.333 20.5 115s28.5 63.334 44.5 86.001c2.66699 4 7.33398 4 14.001 0l31 -20c5.33301 -3.33301 6.33301 -7.66602 3 -12.999c-13.333 -20.667 -26 -45.167 -38 -73.5
s-18 -57.833 -18 -88.5z" />
    <glyph glyph-name="aYehHamza.init" unicode="&#x626;" horiz-adv-x="275" arabic-form="initial" 
d="M89 529c-5.33301 6.66699 -10.002 14.832 -14.002 24.499s-6 21.167 -6 34.5c0 8.66699 1.5 18.334 4.5 29.001s8.5 20.834 16.5 30.501s19 17.667 33 24s31.667 9.5 53 9.5c17.333 0 33 -3.33301 47 -10s25 -14.667 33 -24c3.33301 -4 3 -8 -1 -12l-20 -18
c-1.33301 -0.666992 -3.66602 0.666016 -6.99902 3.99902c-6.66699 5.33301 -14.667 10.333 -24 15s-20.666 7 -33.999 7c-22.667 0 -38.5 -6.16699 -47.5 -18.5s-13.5 -24.833 -13.5 -37.5c0 -16 4 -28.667 12 -38s15.667 -16 23 -20h117c4 0 6 -2.33301 6 -7v-25
c0 -4.66699 -2 -7 -6 -7h-205c-4 0 -6 2.33301 -6 7v25c0 4.66699 2 7 6 7h33zM8.99805 -0.00195312c-13.333 0 -23.333 1.66797 -30 5.00098s-10 10.666 -10 21.999c0 12.667 3.16699 20.667 9.5 24s16.5 5 30.5 5h73c16.667 0 29.5 4 38.5 12s13.5 21.667 13.5 41v284
c0 6.66699 3.33301 10 10 10h35c6.66699 0 10 -3.33301 10 -10v-267c0 -21.333 -1.66699 -40 -5 -56s-9.33301 -29.167 -18 -39.5s-20.5 -18 -35.5 -23s-34.5 -7.5 -58.5 -7.5h-63z" />
    <glyph glyph-name="aYehHamza.medi" unicode="&#x626;" horiz-adv-x="282" arabic-form="medial" 
d="M87 529c-5.33301 6.66699 -10.002 14.832 -14.002 24.499s-6 21.167 -6 34.5c0 8.66699 1.5 18.334 4.5 29.001s8.5 20.834 16.5 30.501s19 17.667 33 24s31.667 9.5 53 9.5c17.333 0 33 -3.33301 47 -10s25 -14.667 33 -24c3.33301 -4 3 -8 -1 -12l-20 -18
c-1.33301 -0.666992 -3.66602 0.666016 -6.99902 3.99902c-6.66699 5.33301 -14.667 10.333 -24 15s-20.666 7 -33.999 7c-22.667 0 -38.5 -6.16699 -47.5 -18.5s-13.5 -24.833 -13.5 -37.5c0 -16 4 -28.667 12 -38s15.667 -16 23 -20h117c4 0 6 -2.33301 6 -7v-25
c0 -4.66699 -2 -7 -6 -7h-205c-4 0 -6 2.33301 -6 7v25c0 4.66699 2 7 6 7h33zM188.998 130.998c0 -25.333 8.83301 -44.167 26.5 -56.5s41.167 -18.5 70.5 -18.5h6c13.333 0 23.333 -1.83301 30 -5.5s10 -10.834 10 -21.501s-3 -18.167 -9 -22.5s-16.333 -6.5 -31 -6.5
c-28 0 -52 3.16699 -72 9.5s-34.667 20.833 -44 43.5c-8 -16 -18.667 -28.833 -32 -38.5s-32.666 -14.5 -57.999 -14.5h-77c-12.667 0 -22.5 1.83301 -29.5 5.5s-10.5 10.834 -10.5 21.501c0 11.333 3.33301 19 10 23s16.667 6 30 6h71c12.667 0 22.667 1.66699 30 5
s12.666 8.5 15.999 15.5s5.5 15.833 6.5 26.5s1.5 23 1.5 37v253c0 6.66699 3.33301 10 10 10h35c6.66699 0 10 -3.33301 10 -10v-262z" />
    <glyph glyph-name="aAlif.fina" unicode="&#x627;" horiz-adv-x="231" arabic-form="final" 
d="M75 670c0 6.66699 3.33203 10 9.99902 10h35c6.66699 0 10 -3.33301 10 -10v-561c0 -20 4.33301 -33.833 13 -41.5s21.334 -11.5 38.001 -11.5h50c26.667 0 40 -9.33301 40 -28c0 -13.333 -3.16699 -21.333 -9.5 -24s-16.5 -4 -30.5 -4h-39c-42 0 -72 8.5 -90 25.5
s-27 44.833 -27 83.5v561z" />
    <glyph glyph-name="aBeh.fina" unicode="&#x628;" horiz-adv-x="847" arabic-form="final" 
d="M744 126c0 -24 9.16602 -41.667 27.499 -53s41.5 -17 69.5 -17h6c13.333 0 23.333 -1.83301 30 -5.5s10 -10.167 10 -19.5c0 -15.333 -3.16699 -24.333 -9.5 -27s-16.5 -4 -30.5 -4c-26.667 0 -49.334 3.66699 -68.001 11s-33.667 20.333 -45 39
c-13.333 -33.333 -44.666 -50 -93.999 -50h-477c-42 -0 -72 8.33301 -90 25s-27 45 -27 85v219c0 6.66699 3.33301 10 10 10h35c6.66699 0 10 -3.33301 10 -10v-220c0 -19.333 3.83301 -33 11.5 -41s19.834 -12 36.501 -12h491c17.333 0 29.833 3.83301 37.5 11.5
s11.5 21.5 11.5 41.5v284c0 6.66699 3.33301 10 10 10h35c6.66699 0 10 -3.33301 10 -10v-267zM363.999 -164c-6.66699 0 -10 3.33301 -10 10v60c0 6.66699 3.33301 10 10 10h52c6.66699 0 10 -3.33301 10 -10v-60c0 -6.66699 -3.33301 -10 -10 -10h-52z" />
    <glyph glyph-name="aBeh.init" unicode="&#x628;" horiz-adv-x="255" arabic-form="initial" 
d="M0 0c-13.333 0 -23.333 1.66797 -30 5.00098s-10 10.666 -10 21.999c0 12.667 3.16699 20.667 9.5 24s16.5 5 30.5 5h73c16.667 0 29.5 4 38.5 12s13.5 21.667 13.5 41v284c0 6.66699 3.33301 10 10 10h35c6.66699 0 10 -3.33301 10 -10v-267
c0 -21.333 -1.66699 -40 -5 -56s-9.33301 -29.167 -18 -39.5s-20.5 -18 -35.5 -23s-34.5 -7.5 -58.5 -7.5h-63zM98 -159.999c-6.66699 0 -10 3.33301 -10 10v60c0 6.66699 3.33301 10 10 10h52c6.66699 0 10 -3.33301 10 -10v-60c0 -6.66699 -3.33301 -10 -10 -10h-52z" />
    <glyph glyph-name="aBeh.medi" unicode="&#x628;" horiz-adv-x="283" arabic-form="medial" 
d="M180 131c0 -25.333 8.83301 -44.167 26.5 -56.5s41.167 -18.5 70.5 -18.5h6c13.333 0 23.333 -1.83301 30 -5.5s10 -10.834 10 -21.501s-3 -18.167 -9 -22.5s-16.333 -6.5 -31 -6.5c-28 0 -52 3.16699 -72 9.5s-34.667 20.833 -44 43.5c-8 -16 -18.667 -28.833 -32 -38.5
s-32.666 -14.5 -57.999 -14.5h-77c-12.667 0 -22.5 1.83301 -29.5 5.5s-10.5 10.834 -10.5 21.501c0 11.333 3.33301 19 10 23s16.667 6 30 6h71c12.667 0 22.667 1.66699 30 5s12.666 8.5 15.999 15.5s5.5 15.833 6.5 26.5s1.5 23 1.5 37v253c0 6.66699 3.33301 10 10 10
h35c6.66699 0 10 -3.33301 10 -10v-262zM129 -160.001c-6.66699 0 -10 3.33301 -10 10v60c0 6.66699 3.33301 10 10 10h52c6.66699 0 10 -3.33301 10 -10v-60c0 -6.66699 -3.33301 -10 -10 -10h-52z" />
    <glyph glyph-name="aTehMarbuta.fina" unicode="&#x629;" horiz-adv-x="473" arabic-form="final" 
d="M319 421v42.999c0 6.66699 3.33301 10 10 10h35c6.66699 0 10 -3.33301 10 -10v-355c0 -20 3.83301 -33.833 11.5 -41.5s19.834 -11.5 36.501 -11.5h51c13.333 0 23.333 -2 30 -6s10 -11.667 10 -23c0 -13.333 -3.16699 -21.166 -9.5 -23.499s-16.5 -3.5 -30.5 -3.5h-54
c-12 0 -24 1.16699 -36 3.5s-22.667 6.5 -32 12.5s-17 14.667 -23 26s-9 26 -9 44c-12 -12 -27 -21.5 -45 -28.5s-41.667 -10.5 -71 -10.5c-50 0 -89.833 14.5 -119.5 43.5s-44.5 73.5 -44.5 133.5c0 36 4.5 66.5 13.5 91.5s21.667 45.333 38 61s35.666 27 57.999 34
s46.833 10.5 73.5 10.5h97zM207 102.999c42.667 0 72 9.66895 88 29.002s24 45.666 24 78.999v154h-107c-36 0 -64.5 -10.333 -85.5 -31s-31.5 -57.334 -31.5 -110.001c0 -42.667 9.5 -73.5 28.5 -92.5s46.833 -28.5 83.5 -28.5zM251 541.001c-6.66699 0 -10 3.33301 -10 10
v60c0 6.66699 3.33301 10 10 10h52c6.66699 0 10 -3.33301 10 -10v-60c0 -6.66699 -3.33301 -10 -10 -10h-52zM123 541.001c-6.66699 0 -10 3.33301 -10 10v60c0 6.66699 3.33301 10 10 10h52c6.66699 0 10 -3.33301 10 -10v-60c0 -6.66699 -3.33301 -10 -10 -10h-52z" />
    <glyph glyph-name="aTeh.fina" unicode="&#x62a;" horiz-adv-x="847" arabic-form="final" 
d="M744 126c0 -24 9.16602 -41.667 27.499 -53s41.5 -17 69.5 -17h6c13.333 0 23.333 -1.83301 30 -5.5s10 -10.167 10 -19.5c0 -15.333 -3.16699 -24.333 -9.5 -27s-16.5 -4 -30.5 -4c-26.667 0 -49.334 3.66699 -68.001 11s-33.667 20.333 -45 39
c-13.333 -33.333 -44.666 -50 -93.999 -50h-477c-42 -0 -72 8.33301 -90 25s-27 45 -27 85v219c0 6.66699 3.33301 10 10 10h35c6.66699 0 10 -3.33301 10 -10v-220c0 -19.333 3.83301 -33 11.5 -41s19.834 -12 36.501 -12h491c17.333 0 29.833 3.83301 37.5 11.5
s11.5 21.5 11.5 41.5v284c0 6.66699 3.33301 10 10 10h35c6.66699 0 10 -3.33301 10 -10v-267zM435.999 442c-6.66699 0 -10 3.33301 -10 10v60c0 6.66699 3.33301 10 10 10h52c6.66699 0 10 -3.33301 10 -10v-60c0 -6.66699 -3.33301 -10 -10 -10h-52zM307.999 442
c-6.66699 0 -10 3.33301 -10 10v60c0 6.66699 3.33301 10 10 10h52c6.66699 0 10 -3.33301 10 -10v-60c0 -6.66699 -3.33301 -10 -10 -10h-52z" />
    <glyph glyph-name="aTeh.init" unicode="&#x62a;" horiz-adv-x="254" arabic-form="initial" 
d="M0 0c-13.333 0 -23.334 1.33105 -30.001 3.99805s-10 9.33398 -10 20.001c0 13.333 3.16699 22 9.5 26s16.5 6 30.5 6h72c16.667 0 28.834 3.83301 36.501 11.5s11.5 21.5 11.5 41.5v284c0 6.66699 3.33301 10 10 10h36c6.66699 0 10 -3.33301 10 -10v-267
c0 -43.333 -9 -75.166 -27 -95.499s-48 -30.5 -90 -30.5h-59zM189.999 500.998c-6.66699 0 -10 3.33301 -10 10v60c0 6.66699 3.33301 10 10 10h52c6.66699 0 10 -3.33301 10 -10v-60c0 -6.66699 -3.33301 -10 -10 -10h-52zM61.999 500.998c-6.66699 0 -10 3.33301 -10 10
v60c0 6.66699 3.33301 10 10 10h52c6.66699 0 10 -3.33301 10 -10v-60c0 -6.66699 -3.33301 -10 -10 -10h-52z" />
    <glyph glyph-name="aTeh.medi" unicode="&#x62a;" horiz-adv-x="287" arabic-form="medial" 
d="M184 131c0 -25.333 8.83496 -44.167 26.502 -56.5s41.167 -18.5 70.5 -18.5h6c13.333 0 23.333 -1.83301 30 -5.5s10 -10.834 10 -21.501s-3 -18.167 -9 -22.5s-16.333 -6.5 -31 -6.5c-28 0 -52 3.16699 -72 9.5s-34.667 20.833 -44 43.5
c-8 -16 -18.667 -28.833 -32 -38.5s-32.666 -14.5 -57.999 -14.5h-81c-12.667 0 -21.834 1.83301 -27.501 5.5s-8.5 10.834 -8.5 21.501c0 11.333 2.66699 19 8 23s14.666 6 27.999 6h75c12.667 0 22.667 1.66699 30 5s12.666 8.5 15.999 15.5s5.5 15.833 6.5 26.5
s1.5 23 1.5 37v253c0 6.66699 3.33301 10 10 10h35c6.66699 0 10 -3.33301 10 -10v-262zM191.002 500.999c-6.66699 0 -10 3.33301 -10 10v60c0 6.66699 3.33301 10 10 10h52c6.66699 0 10 -3.33301 10 -10v-60c0 -6.66699 -3.33301 -10 -10 -10h-52zM63.002 500.999
c-6.66699 0 -10 3.33301 -10 10v60c0 6.66699 3.33301 10 10 10h52c6.66699 0 10 -3.33301 10 -10v-60c0 -6.66699 -3.33301 -10 -10 -10h-52z" />
    <glyph glyph-name="aTheh.fina" unicode="&#x62b;" horiz-adv-x="847" arabic-form="final" 
d="M744 126c0 -24 9.16602 -41.667 27.499 -53s41.5 -17 69.5 -17h6c13.333 0 23.333 -1.83301 30 -5.5s10 -10.167 10 -19.5c0 -15.333 -3.16699 -24.333 -9.5 -27s-16.5 -4 -30.5 -4c-26.667 0 -49.334 3.66699 -68.001 11s-33.667 20.333 -45 39
c-13.333 -33.333 -44.666 -50 -93.999 -50h-477c-42 -0 -72 8.33301 -90 25s-27 45 -27 85v219c0 6.66699 3.33301 10 10 10h35c6.66699 0 10 -3.33301 10 -10v-220c0 -19.333 3.83301 -33 11.5 -41s19.834 -12 36.501 -12h491c17.333 0 29.833 3.83301 37.5 11.5
s11.5 21.5 11.5 41.5v284c0 6.66699 3.33301 10 10 10h35c6.66699 0 10 -3.33301 10 -10v-267zM369.999 570c-6.66699 0 -10 3.33301 -10 10v60c0 6.66699 3.33301 10 10 10h52c6.66699 0 10 -3.33301 10 -10v-60c0 -6.66699 -3.33301 -10 -10 -10h-52zM434.999 442
c-6.66699 0 -10 3.33301 -10 10v60c0 6.66699 3.33301 10 10 10h52c6.66699 0 10 -3.33301 10 -10v-60c0 -6.66699 -3.33301 -10 -10 -10h-52zM306.999 442c-6.66699 0 -10 3.33301 -10 10v60c0 6.66699 3.33301 10 10 10h52c6.66699 0 10 -3.33301 10 -10v-60
c0 -6.66699 -3.33301 -10 -10 -10h-52z" />
    <glyph glyph-name="aTheh.init" unicode="&#x62b;" horiz-adv-x="254" arabic-form="initial" 
d="M0 0c-13.333 0 -23.334 1.33105 -30.001 3.99805s-10 9.33398 -10 20.001c0 13.333 3.16699 22 9.5 26s16.5 6 30.5 6h72c16.667 0 28.834 3.83301 36.501 11.5s11.5 21.5 11.5 41.5v284c0 6.66699 3.33301 10 10 10h36c6.66699 0 10 -3.33301 10 -10v-267
c0 -43.333 -9 -75.166 -27 -95.499s-48 -30.5 -90 -30.5h-59zM121.999 628.998c-6.66699 0 -10 3.33301 -10 10v60c0 6.66699 3.33301 10 10 10h52c6.66699 0 10 -3.33301 10 -10v-60c0 -6.66699 -3.33301 -10 -10 -10h-52zM186.999 500.998c-6.66699 0 -10 3.33301 -10 10
v60c0 6.66699 3.33301 10 10 10h52c6.66699 0 10 -3.33301 10 -10v-60c0 -6.66699 -3.33301 -10 -10 -10h-52zM58.999 500.998c-6.66699 0 -10 3.33301 -10 10v60c0 6.66699 3.33301 10 10 10h52c6.66699 0 10 -3.33301 10 -10v-60c0 -6.66699 -3.33301 -10 -10 -10h-52z
" />
    <glyph glyph-name="aTheh.medi" unicode="&#x62b;" horiz-adv-x="287" arabic-form="medial" 
d="M184 131c0 -25.333 8.83496 -44.167 26.502 -56.5s41.167 -18.5 70.5 -18.5h6c13.333 0 23.333 -1.83301 30 -5.5s10 -10.834 10 -21.501s-3 -18.167 -9 -22.5s-16.333 -6.5 -31 -6.5c-28 0 -52 3.16699 -72 9.5s-34.667 20.833 -44 43.5
c-8 -16 -18.667 -28.833 -32 -38.5s-32.666 -14.5 -57.999 -14.5h-81c-12.667 0 -21.834 1.83301 -27.501 5.5s-8.5 10.834 -8.5 21.501c0 11.333 2.66699 19 8 23s14.666 6 27.999 6h75c12.667 0 22.667 1.66699 30 5s12.666 8.5 15.999 15.5s5.5 15.833 6.5 26.5
s1.5 23 1.5 37v253c0 6.66699 3.33301 10 10 10h35c6.66699 0 10 -3.33301 10 -10v-262zM127.002 628.999c-6.66699 0 -10 3.33301 -10 10v60c0 6.66699 3.33301 10 10 10h52c6.66699 0 10 -3.33301 10 -10v-60c0 -6.66699 -3.33301 -10 -10 -10h-52zM192.002 500.999
c-6.66699 0 -10 3.33301 -10 10v60c0 6.66699 3.33301 10 10 10h52c6.66699 0 10 -3.33301 10 -10v-60c0 -6.66699 -3.33301 -10 -10 -10h-52zM64.002 500.999c-6.66699 0 -10 3.33301 -10 10v60c0 6.66699 3.33301 10 10 10h52c6.66699 0 10 -3.33301 10 -10v-60
c0 -6.66699 -3.33301 -10 -10 -10h-52z" />
    <glyph glyph-name="aJim.fina" unicode="&#x62c;" horiz-adv-x="596" arabic-form="final" 
d="M155 0c-25.333 0 -42.5029 -6.99707 -51.5029 -20.9971s-13.5 -30 -13.5 -48c0 -24 6 -41.833 18 -53.5s33 -17.5 63 -17.5h65c6.66699 0 10 -3.33301 10 -10v-36c0 -6.66699 -3.33301 -10 -10 -10h-59c-96.667 0 -145 41 -145 123c0 25.333 3.66699 46.333 11 63
s16.833 29.834 28.5 39.501s24.334 16.5 38.001 20.5s26.5 6 38.5 6h196c20 0 35.833 1.66699 47.5 5s20.667 9.16602 27 17.499s10.333 19.166 12 32.499s2.5 30 2.5 50c0 31.333 -2.5 59.5 -7.5 84.5s-13.5 46.167 -25.5 63.5s-27.667 30.666 -47 39.999
s-43.333 14 -72 14c-23.333 0 -45.666 -4.16699 -66.999 -12.5s-40.666 -22.833 -57.999 -43.5c-4 -6 -8.66699 -6.66699 -14 -2l-27 24c-6 3.33301 -7 8 -3 14c17.333 22 39.5 40.5 66.5 55.5s61.5 22.5 103.5 22.5c43.333 0 78.833 -7.33301 106.5 -22
s49.167 -33.834 64.5 -57.501s26 -50.5 32 -80.5s9 -60.667 9 -92v-46c0 -22.667 7.83301 -39.5 23.5 -50.5s36.167 -16.5 61.5 -16.5h16c13.333 0 23.333 -1.83301 30 -5.5s10 -11.167 10 -22.5c0 -12 -3.16699 -19.667 -9.5 -23s-16.5 -5 -30.5 -5
c-28 0 -52.333 3.5 -73 10.5s-35.667 22.167 -45 45.5c-10 -20 -24.167 -34.333 -42.5 -43s-42.5 -13 -72.5 -13h-207zM297.997 -168.997c-6.66699 0 -10 3.33301 -10 10v60c0 6.66699 3.33301 10 10 10h52c6.66699 0 10 -3.33301 10 -10v-60
c0 -6.66699 -3.33301 -10 -10 -10h-52z" />
    <glyph glyph-name="aJim.init" unicode="&#x62c;" horiz-adv-x="511" arabic-form="initial" 
d="M0 0c-26.667 0 -40.002 8.66992 -40.002 26.0029c0 14 3.16699 22.5 9.5 25.5s16.5 4.5 30.5 4.5h302c20 0 35.833 1.66699 47.5 5s20.667 9.16602 27 17.499s10.333 19.166 12 32.499s2.5 30 2.5 50c0 31.333 -2.5 59.5 -7.5 84.5s-13.5 46.167 -25.5 63.5
s-27.667 30.666 -47 39.999s-43.333 14 -72 14c-23.333 0 -45.666 -4.16699 -66.999 -12.5s-40.666 -22.833 -57.999 -43.5c-4 -6 -8.66699 -6.66699 -14 -2l-27 24c-6 3.33301 -7 8 -3 14c17.333 22 39.5 40.5 66.5 55.5s61.5 22.5 103.5 22.5
c44 0 79.833 -7.5 107.5 -22.5s49.167 -34.5 64.5 -58.5s25.833 -51.333 31.5 -82s8.5 -61.667 8.5 -93c0 -30 -2 -55.5 -6 -76.5s-11 -38 -21 -51s-23.5 -22.5 -40.5 -28.5s-38.5 -9 -64.5 -9h-320zM226.998 -161.997c-6.66699 0 -10 3.33301 -10 10v60
c0 6.66699 3.33301 10 10 10h52c6.66699 0 10 -3.33301 10 -10v-60c0 -6.66699 -3.33301 -10 -10 -10h-52z" />
    <glyph glyph-name="aJim.medi" unicode="&#x62c;" horiz-adv-x="553" arabic-form="medial" 
d="M452 123c0 -22.667 7.83105 -39.4961 23.498 -50.4961s36.167 -16.5 61.5 -16.5h16c13.333 0 23.333 -1.83301 30 -5.5s10 -11.167 10 -22.5c0 -12 -3.16699 -19.667 -9.5 -23s-16.5 -5 -30.5 -5c-28 0 -52.333 3.5 -73 10.5s-35.667 22.167 -45 45.5
c-10 -20 -24.167 -34.333 -42.5 -43s-42.5 -13 -72.5 -13h-320c-26.667 0 -40 8.66699 -40 26c0 14 3.16699 22.5 9.5 25.5s16.5 4.5 30.5 4.5h302c20 0 35.833 1.66699 47.5 5s20.667 9.16602 27 17.499s10.333 19.166 12 32.499s2.5 30 2.5 50
c0 31.333 -2.5 59.5 -7.5 84.5s-13.5 46.167 -25.5 63.5s-27.667 30.666 -47 39.999s-43.333 14 -72 14c-23.333 0 -45.666 -4.16699 -66.999 -12.5s-40.666 -22.833 -57.999 -43.5c-4 -6 -8.66699 -6.66699 -14 -2l-27 24c-6 3.33301 -7 8 -3 14
c17.333 22 39.5 40.5 66.5 55.5s61.5 22.5 103.5 22.5c43.333 0 78.833 -7.33301 106.5 -22s49.167 -33.834 64.5 -57.501s26 -50.5 32 -80.5s9 -60.667 9 -92v-46zM225.998 -161.996c-6.66699 0 -10 3.33301 -10 10v60c0 6.66699 3.33301 10 10 10h52
c6.66699 0 10 -3.33301 10 -10v-60c0 -6.66699 -3.33301 -10 -10 -10h-52z" />
    <glyph glyph-name="aHah.fina" unicode="&#x62d;" horiz-adv-x="586" arabic-form="final" 
d="M155 0c-25.333 0 -42.5029 -6.99707 -51.5029 -20.9971s-13.5 -30 -13.5 -48c0 -24 6 -41.833 18 -53.5s33 -17.5 63 -17.5h116c6.66699 0 10 -3.33301 10 -10v-36c0 -6.66699 -3.33301 -10 -10 -10h-110c-96.667 0 -145 41 -145 123c0 25.333 3.66699 46.333 11 63
s16.833 29.834 28.5 39.501s24.334 16.5 38.001 20.5s26.5 6 38.5 6h187c20 0 35.833 1.66699 47.5 5s20.667 9.16602 27 17.499s10.333 19.166 12 32.499s2.5 30 2.5 50c0 31.333 -2.5 59.5 -7.5 84.5s-13.5 46.167 -25.5 63.5s-27.667 30.666 -47 39.999
s-43.333 14 -72 14c-23.333 0 -45.666 -4.16699 -66.999 -12.5s-40.666 -22.833 -57.999 -43.5c-4 -6 -8.66699 -6.66699 -14 -2l-27 24c-6 3.33301 -7 8 -3 14c17.333 22 39.5 40.5 66.5 55.5s61.5 22.5 103.5 22.5c43.333 0 78.833 -7.33301 106.5 -22
s49.167 -33.834 64.5 -57.501s26 -50.5 32 -80.5s9 -60.667 9 -92v-46c0 -22.667 7.83301 -39.5 23.5 -50.5s36.167 -16.5 61.5 -16.5h16c13.333 0 23.333 -1.83301 30 -5.5s10 -11.167 10 -22.5c0 -12 -3.16699 -19.667 -9.5 -23s-16.5 -5 -30.5 -5
c-28 0 -52.333 3.5 -73 10.5s-35.667 22.167 -45 45.5c-10 -20 -24.167 -34.333 -42.5 -43s-42.5 -13 -72.5 -13h-198z" />
    <glyph glyph-name="aHah.init" unicode="&#x62d;" horiz-adv-x="511" arabic-form="initial" 
d="M0 0c-26.667 0 -40.002 8.66992 -40.002 26.0029c0 14 3.16699 22.5 9.5 25.5s16.5 4.5 30.5 4.5h302c20 0 35.833 1.66699 47.5 5s20.667 9.16602 27 17.499s10.333 19.166 12 32.499s2.5 30 2.5 50c0 31.333 -2.5 59.5 -7.5 84.5s-13.5 46.167 -25.5 63.5
s-27.667 30.666 -47 39.999s-43.333 14 -72 14c-23.333 0 -45.666 -4.16699 -66.999 -12.5s-40.666 -22.833 -57.999 -43.5c-4 -6 -8.66699 -6.66699 -14 -2l-27 24c-6 3.33301 -7 8 -3 14c17.333 22 39.5 40.5 66.5 55.5s61.5 22.5 103.5 22.5
c44 0 79.833 -7.5 107.5 -22.5s49.167 -34.5 64.5 -58.5s25.833 -51.333 31.5 -82s8.5 -61.667 8.5 -93c0 -30 -2 -55.5 -6 -76.5s-11 -38 -21 -51s-23.5 -22.5 -40.5 -28.5s-38.5 -9 -64.5 -9h-320z" />
    <glyph glyph-name="aHah.medi" unicode="&#x62d;" horiz-adv-x="553" arabic-form="medial" 
d="M452 123c0 -22.667 7.83105 -39.4961 23.498 -50.4961s36.167 -16.5 61.5 -16.5h16c13.333 0 23.333 -1.83301 30 -5.5s10 -11.167 10 -22.5c0 -12 -3.16699 -19.667 -9.5 -23s-16.5 -5 -30.5 -5c-28 0 -52.333 3.5 -73 10.5s-35.667 22.167 -45 45.5
c-10 -20 -24.167 -34.333 -42.5 -43s-42.5 -13 -72.5 -13h-320c-26.667 0 -40 8.66699 -40 26c0 14 3.16699 22.5 9.5 25.5s16.5 4.5 30.5 4.5h302c20 0 35.833 1.66699 47.5 5s20.667 9.16602 27 17.499s10.333 19.166 12 32.499s2.5 30 2.5 50
c0 31.333 -2.5 59.5 -7.5 84.5s-13.5 46.167 -25.5 63.5s-27.667 30.666 -47 39.999s-43.333 14 -72 14c-23.333 0 -45.666 -4.16699 -66.999 -12.5s-40.666 -22.833 -57.999 -43.5c-4 -6 -8.66699 -6.66699 -14 -2l-27 24c-6 3.33301 -7 8 -3 14
c17.333 22 39.5 40.5 66.5 55.5s61.5 22.5 103.5 22.5c43.333 0 78.833 -7.33301 106.5 -22s49.167 -33.834 64.5 -57.501s26 -50.5 32 -80.5s9 -60.667 9 -92v-46z" />
    <glyph glyph-name="aKhah.fina" unicode="&#x62e;" horiz-adv-x="586" arabic-form="final" 
d="M155 0c-25.333 0 -42.5029 -6.99707 -51.5029 -20.9971s-13.5 -30 -13.5 -48c0 -24 6 -41.833 18 -53.5s33 -17.5 63 -17.5h116c6.66699 0 10 -3.33301 10 -10v-36c0 -6.66699 -3.33301 -10 -10 -10h-110c-96.667 0 -145 41 -145 123c0 25.333 3.66699 46.333 11 63
s16.833 29.834 28.5 39.501s24.334 16.5 38.001 20.5s26.5 6 38.5 6h187c20 0 35.833 1.66699 47.5 5s20.667 9.16602 27 17.499s10.333 19.166 12 32.499s2.5 30 2.5 50c0 31.333 -2.5 59.5 -7.5 84.5s-13.5 46.167 -25.5 63.5s-27.667 30.666 -47 39.999
s-43.333 14 -72 14c-23.333 0 -45.666 -4.16699 -66.999 -12.5s-40.666 -22.833 -57.999 -43.5c-4 -6 -8.66699 -6.66699 -14 -2l-27 24c-6 3.33301 -7 8 -3 14c17.333 22 39.5 40.5 66.5 55.5s61.5 22.5 103.5 22.5c43.333 0 78.833 -7.33301 106.5 -22
s49.167 -33.834 64.5 -57.501s26 -50.5 32 -80.5s9 -60.667 9 -92v-46c0 -22.667 7.83301 -39.5 23.5 -50.5s36.167 -16.5 61.5 -16.5h16c13.333 0 23.333 -1.83301 30 -5.5s10 -11.167 10 -22.5c0 -12 -3.16699 -19.667 -9.5 -23s-16.5 -5 -30.5 -5
c-28 0 -52.333 3.5 -73 10.5s-35.667 22.167 -45 45.5c-10 -20 -24.167 -34.333 -42.5 -43s-42.5 -13 -72.5 -13h-198zM250.997 501.003c-6.66699 0 -10 3.33301 -10 10v60c0 6.66699 3.33301 10 10 10h40c6.66699 0 10 -3.33301 10 -10v-60
c0 -6.66699 -3.33301 -10 -10 -10h-40z" />
    <glyph glyph-name="aKhah.init" unicode="&#x62e;" horiz-adv-x="511" arabic-form="initial" 
d="M226 500c-6.66699 0 -10 3.33301 -10 10v60c0 6.66699 3.33301 10 10 10h40c6.66699 0 10 -3.33301 10 -10v-60c0 -6.66699 -3.33301 -10 -10 -10h-40zM0 0c-26.667 0 -40.002 8.66992 -40.002 26.0029c0 14 3.16699 22.5 9.5 25.5s16.5 4.5 30.5 4.5h302
c20 0 35.833 1.66699 47.5 5s20.667 9.16602 27 17.499s10.333 19.166 12 32.499s2.5 30 2.5 50c0 31.333 -2.5 59.5 -7.5 84.5s-13.5 46.167 -25.5 63.5s-27.667 30.666 -47 39.999s-43.333 14 -72 14c-23.333 0 -45.666 -4.16699 -66.999 -12.5
s-40.666 -22.833 -57.999 -43.5c-4 -6 -8.66699 -6.66699 -14 -2l-27 24c-6 3.33301 -7 8 -3 14c17.333 22 39.5 40.5 66.5 55.5s61.5 22.5 103.5 22.5c44 0 79.833 -7.5 107.5 -22.5s49.167 -34.5 64.5 -58.5s25.833 -51.333 31.5 -82s8.5 -61.667 8.5 -93
c0 -30 -2 -55.5 -6 -76.5s-11 -38 -21 -51s-23.5 -22.5 -40.5 -28.5s-38.5 -9 -64.5 -9h-320z" />
    <glyph glyph-name="aKhah.medi" unicode="&#x62e;" horiz-adv-x="553" arabic-form="medial" 
d="M452 123c0 -22.667 7.83105 -39.4961 23.498 -50.4961s36.167 -16.5 61.5 -16.5h16c13.333 0 23.333 -1.83301 30 -5.5s10 -11.167 10 -22.5c0 -12 -3.16699 -19.667 -9.5 -23s-16.5 -5 -30.5 -5c-28 0 -52.333 3.5 -73 10.5s-35.667 22.167 -45 45.5
c-10 -20 -24.167 -34.333 -42.5 -43s-42.5 -13 -72.5 -13h-320c-26.667 0 -40 8.66699 -40 26c0 14 3.16699 22.5 9.5 25.5s16.5 4.5 30.5 4.5h302c20 0 35.833 1.66699 47.5 5s20.667 9.16602 27 17.499s10.333 19.166 12 32.499s2.5 30 2.5 50
c0 31.333 -2.5 59.5 -7.5 84.5s-13.5 46.167 -25.5 63.5s-27.667 30.666 -47 39.999s-43.333 14 -72 14c-23.333 0 -45.666 -4.16699 -66.999 -12.5s-40.666 -22.833 -57.999 -43.5c-4 -6 -8.66699 -6.66699 -14 -2l-27 24c-6 3.33301 -7 8 -3 14
c17.333 22 39.5 40.5 66.5 55.5s61.5 22.5 103.5 22.5c43.333 0 78.833 -7.33301 106.5 -22s49.167 -33.834 64.5 -57.501s26 -50.5 32 -80.5s9 -60.667 9 -92v-46zM225.998 500.004c-6.66699 0 -10 3.33301 -10 10v60c0 6.66699 3.33301 10 10 10h40
c6.66699 0 10 -3.33301 10 -10v-60c0 -6.66699 -3.33301 -10 -10 -10h-40z" />
    <glyph glyph-name="aDal.fina" unicode="&#x62f;" horiz-adv-x="529" arabic-form="final" 
d="M426 132c0 -25.333 8.83398 -44.332 26.501 -56.999s41.167 -19 70.5 -19h6c13.333 0 23.333 -2 30 -6s10 -11.667 10 -23s-3.16699 -18.666 -9.5 -21.999s-16.5 -5 -30.5 -5c-28 0 -53 3.66699 -75 11s-37 23 -45 47c-9.33301 -21.333 -23.333 -36.333 -42 -45
s-43 -13 -73 -13h-220c-6.66699 0 -10 3.33301 -10 10v36c0 6.66699 3.33301 10 10 10h200c20 0 36.167 1.66699 48.5 5s21.666 8.83301 27.999 16.5s10.5 18 12.5 31s3 29.167 3 48.5v97c0 37.333 -10 65.166 -30 83.499s-52 27.5 -96 27.5h-117
c-6.66699 0 -10 3.33301 -10 10v36c0 6.66699 3.33301 10 10 10h134c25.333 0 48.5 -3.33301 69.5 -10s38.833 -16.834 53.5 -30.501s26 -31.167 34 -52.5s12 -47 12 -77v-119z" />
    <glyph glyph-name="aDhal.fina" unicode="&#x630;" horiz-adv-x="529" arabic-form="final" 
d="M426 132c0 -25.333 8.83398 -44.332 26.501 -56.999s41.167 -19 70.5 -19h6c13.333 0 23.333 -2 30 -6s10 -11.667 10 -23s-3.16699 -18.666 -9.5 -21.999s-16.5 -5 -30.5 -5c-28 0 -53 3.66699 -75 11s-37 23 -45 47c-9.33301 -21.333 -23.333 -36.333 -42 -45
s-43 -13 -73 -13h-220c-6.66699 0 -10 3.33301 -10 10v36c0 6.66699 3.33301 10 10 10h200c20 0 36.167 1.66699 48.5 5s21.666 8.83301 27.999 16.5s10.5 18 12.5 31s3 29.167 3 48.5v97c0 37.333 -10 65.166 -30 83.499s-52 27.5 -96 27.5h-117
c-6.66699 0 -10 3.33301 -10 10v36c0 6.66699 3.33301 10 10 10h134c25.333 0 48.5 -3.33301 69.5 -10s38.833 -16.834 53.5 -30.501s26 -31.167 34 -52.5s12 -47 12 -77v-119zM180.001 501.001c-6.66699 0 -10 3.33301 -10 10v60c0 6.66699 3.33301 10 10 10h40
c6.66699 0 10 -3.33301 10 -10v-60c0 -6.66699 -3.33301 -10 -10 -10h-40z" />
    <glyph glyph-name="aReh.fina" unicode="&#x631;" horiz-adv-x="273" arabic-form="final" 
d="M171 131c0 -25.333 8.83496 -44.168 26.502 -56.501s41.167 -18.5 70.5 -18.5h5c13.333 0 23.333 -1.83301 30 -5.5s10 -10.167 10 -19.5c0 -15.333 -3.16699 -24.333 -9.5 -27s-16.5 -4 -30.5 -4c-22 0 -41.333 1.66699 -58 5s-31.334 12 -44.001 26v-80
c0 -47.333 -11.667 -83.666 -35 -108.999s-60 -38 -110 -38h-17c-6.66699 0 -10 3.33301 -10 10v36c0 6.66699 3.33301 10 10 10h23c27.333 0 48.166 7 62.499 21s21.5 35.333 21.5 64v448c0 6.66699 3.33301 10 10 10h35c6.66699 0 10 -3.33301 10 -10v-262z" />
    <glyph glyph-name="aZeh.fina" unicode="&#x632;" horiz-adv-x="273" arabic-form="final" 
d="M171 131c0 -25.333 8.83496 -44.168 26.502 -56.501s41.167 -18.5 70.5 -18.5h5c13.333 0 23.333 -1.83301 30 -5.5s10 -10.167 10 -19.5c0 -15.333 -3.16699 -24.333 -9.5 -27s-16.5 -4 -30.5 -4c-22 0 -41.333 1.66699 -58 5s-31.334 12 -44.001 26v-80
c0 -47.333 -11.667 -83.666 -35 -108.999s-60 -38 -110 -38h-17c-6.66699 0 -10 3.33301 -10 10v36c0 6.66699 3.33301 10 10 10h23c27.333 0 48.166 7 62.499 21s21.5 35.333 21.5 64v448c0 6.66699 3.33301 10 10 10h35c6.66699 0 10 -3.33301 10 -10v-262z
M123.002 500.998c-6.66699 0 -10 3.33301 -10 10v60c0 6.66699 3.33301 10 10 10h40c6.66699 0 10 -3.33301 10 -10v-60c0 -6.66699 -3.33301 -10 -10 -10h-40z" />
    <glyph glyph-name="aSin.fina" unicode="&#x633;" horiz-adv-x="1080" arabic-form="final" 
d="M51 18c0 42 6.83398 80.335 20.501 115.002s28.5 63.334 44.5 86.001c2.66699 4 7.33398 4 14.001 0l31 -20c5.33301 -3.33301 6.33301 -7.66602 3 -12.999c-13.333 -20.667 -26 -45.167 -38 -73.5s-18 -57.833 -18 -88.5c0 -31.333 5.66699 -57.166 17 -77.499
s25.666 -36.333 42.999 -48s36.166 -19.834 56.499 -24.501s39.833 -7 58.5 -7c23.333 0 45.166 2.66699 65.499 8s37.833 14 52.5 26s26.167 27.5 34.5 46.5s12.5 42.167 12.5 69.5v283c0 6.66699 3.33301 10 10 10h36c6.66699 0 10 -3.33301 10 -10v-170
c0 -24 9 -42.333 27 -55s42 -19 72 -19c18.667 0 33.5 1 44.5 3s19.333 6.16699 25 12.5s9.16699 15.166 10.5 26.499s2 26.333 2 45v157c0 6.66699 3.33301 10 10 10h36c6.66699 0 10 -3.33301 10 -10v-175c0 -22.667 9.33301 -39.834 28 -51.501
s43.334 -17.5 74.001 -17.5c18.667 0 33.334 1.16699 44.001 3.5s18.5 6.83301 23.5 13.5s8.16699 15.5 9.5 26.5s2 25.5 2 43.5v250c0 6.66699 3.33301 10 10 10h36c6.66699 0 10 -3.33301 10 -10v-262c0 -25.333 8.83301 -44.166 26.5 -56.499s41.167 -18.5 70.5 -18.5h5
c13.333 0 23.333 -2 30 -6s10 -11.667 10 -23s-3.16699 -18.666 -9.5 -21.999s-16.5 -5 -30.5 -5c-27.333 0 -50.666 3.33301 -69.999 10s-34.333 21 -45 43c-8 -17.333 -19.167 -30.5 -33.5 -39.5s-35.5 -13.5 -63.5 -13.5h-46c-18.667 0 -37 4.16699 -55 12.5
s-31.333 21.166 -40 38.499c-8 -16 -19.333 -28.5 -34 -37.5s-35.334 -13.5 -62.001 -13.5h-46c-14.667 0 -29.5 2.66699 -44.5 8s-27.5 13.333 -37.5 24v-13c0 -30.667 -4.5 -58.834 -13.5 -84.501s-22.667 -47.834 -41 -66.501s-41.833 -33.334 -70.5 -44.001
s-62.334 -16 -101.001 -16c-36 0 -68.167 5 -96.5 15s-52 24.167 -71 42.5s-33.5 40.5 -43.5 66.5s-15 54.667 -15 86z" />
    <glyph glyph-name="aSin.init" unicode="&#x633;" horiz-adv-x="753" arabic-form="initial" 
d="M685 131c0 -28 -3.00098 -50.4971 -9.00098 -67.4971s-14.167 -30.167 -24.5 -39.5s-22.5 -15.666 -36.5 -18.999s-29 -5 -45 -5h-41c-18.667 0 -37 4.16699 -55 12.5s-31.333 21.166 -40 38.499c-8 -16 -19.333 -28.5 -34 -37.5s-35.334 -13.5 -62.001 -13.5h-46
c-18.667 0 -37 4.16699 -55 12.5s-31.333 21.166 -40 38.499c-8 -16 -19.167 -28.5 -33.5 -37.5s-35.5 -13.5 -63.5 -13.5h-107c-10 0 -18 2 -24 6s-9 10 -9 18c0 13.333 3.16699 22 9.5 26s16.5 6 30.5 6h103c12.667 0 22.5 1.83301 29.5 5.5s12.167 9 15.5 16
s5.33301 16 6 27s1 23.833 1 38.5v157c0 6.66699 3.33301 10 10 10h36c6.66699 0 10 -3.33301 10 -10v-170c0 -24 9 -42.333 27 -55s42 -19 72 -19c18.667 0 33.5 1 44.5 3s19.333 6.16699 25 12.5s9.16699 15.166 10.5 26.499s2 26.333 2 45v157
c0 6.66699 3.33301 10 10 10h36c6.66699 0 10 -3.33301 10 -10v-175c0 -22.667 9.33301 -39.834 28 -51.501s43.334 -17.5 74.001 -17.5c18.667 0 33.334 1.16699 44.001 3.5s18.5 6.83301 23.5 13.5s8.16699 15.5 9.5 26.5s2 25.5 2 43.5v250c0 6.66699 3.33301 10 10 10
h36c6.66699 0 10 -3.33301 10 -10v-262z" />
    <glyph glyph-name="aSin.medi" unicode="&#x633;" horiz-adv-x="787" arabic-form="medial" 
d="M211 130c0 -24 8.99805 -42.3311 26.998 -54.998s42 -19 72 -19c18.667 0 33.5 1 44.5 3s19.333 6.16699 25 12.5s9.16699 15.166 10.5 26.499s2 26.333 2 45v157c0 6.66699 3.33301 10 10 10h36c6.66699 0 10 -3.33301 10 -10v-175
c0 -22.667 9.33301 -39.834 28 -51.501s43.334 -17.5 74.001 -17.5c18.667 0 33.334 1.16699 44.001 3.5s18.5 6.83301 23.5 13.5s8.16699 15.5 9.5 26.5s2 25.5 2 43.5v250c0 6.66699 3.33301 10 10 10h36c6.66699 0 10 -3.33301 10 -10v-262
c0 -25.333 8.83301 -44.166 26.5 -56.499s41.167 -18.5 70.5 -18.5h5c13.333 0 23.333 -2 30 -6s10 -11.667 10 -23s-3.16699 -18.666 -9.5 -21.999s-16.5 -5 -30.5 -5c-27.333 0 -50.666 3.33301 -69.999 10s-34.333 21 -45 43c-8 -17.333 -19.167 -30.5 -33.5 -39.5
s-35.5 -13.5 -63.5 -13.5h-46c-18.667 0 -37 4.16699 -55 12.5s-31.333 21.166 -40 38.499c-8 -16 -19.333 -28.5 -34 -37.5s-35.334 -13.5 -62.001 -13.5h-46c-18.667 0 -37 4.16699 -55 12.5s-31.333 21.166 -40 38.499c-8 -16 -19.167 -28.5 -33.5 -37.5
s-35.5 -13.5 -63.5 -13.5h-107c-10 0 -18 2 -24 6s-9 10 -9 18c0 13.333 3.16699 22 9.5 26s16.5 6 30.5 6h103c12.667 0 22.5 1.83301 29.5 5.5s12.167 9 15.5 16s5.33301 16 6 27s1 23.833 1 38.5v157c0 6.66699 3.33301 10 10 10h36c6.66699 0 10 -3.33301 10 -10v-170z
" />
    <glyph glyph-name="aShin.fina" unicode="&#x634;" horiz-adv-x="1080" arabic-form="final" 
d="M51 18c0 42 6.83398 80.335 20.501 115.002s28.5 63.334 44.5 86.001c2.66699 4 7.33398 4 14.001 0l31 -20c5.33301 -3.33301 6.33301 -7.66602 3 -12.999c-13.333 -20.667 -26 -45.167 -38 -73.5s-18 -57.833 -18 -88.5c0 -31.333 5.66699 -57.166 17 -77.499
s25.666 -36.333 42.999 -48s36.166 -19.834 56.499 -24.501s39.833 -7 58.5 -7c23.333 0 45.166 2.66699 65.499 8s37.833 14 52.5 26s26.167 27.5 34.5 46.5s12.5 42.167 12.5 69.5v283c0 6.66699 3.33301 10 10 10h36c6.66699 0 10 -3.33301 10 -10v-170
c0 -24 9 -42.333 27 -55s42 -19 72 -19c18.667 0 33.5 1 44.5 3s19.333 6.16699 25 12.5s9.16699 15.166 10.5 26.499s2 26.333 2 45v157c0 6.66699 3.33301 10 10 10h36c6.66699 0 10 -3.33301 10 -10v-175c0 -22.667 9.33301 -39.834 28 -51.501
s43.334 -17.5 74.001 -17.5c18.667 0 33.334 1.16699 44.001 3.5s18.5 6.83301 23.5 13.5s8.16699 15.5 9.5 26.5s2 25.5 2 43.5v250c0 6.66699 3.33301 10 10 10h36c6.66699 0 10 -3.33301 10 -10v-262c0 -25.333 8.83301 -44.166 26.5 -56.499s41.167 -18.5 70.5 -18.5h5
c13.333 0 23.333 -2 30 -6s10 -11.667 10 -23s-3.16699 -18.666 -9.5 -21.999s-16.5 -5 -30.5 -5c-27.333 0 -50.666 3.33301 -69.999 10s-34.333 21 -45 43c-8 -17.333 -19.167 -30.5 -33.5 -39.5s-35.5 -13.5 -63.5 -13.5h-46c-18.667 0 -37 4.16699 -55 12.5
s-31.333 21.166 -40 38.499c-8 -16 -19.333 -28.5 -34 -37.5s-35.334 -13.5 -62.001 -13.5h-46c-14.667 0 -29.5 2.66699 -44.5 8s-27.5 13.333 -37.5 24v-13c0 -30.667 -4.5 -58.834 -13.5 -84.501s-22.667 -47.834 -41 -66.501s-41.833 -33.334 -70.5 -44.001
s-62.334 -16 -101.001 -16c-36 0 -68.167 5 -96.5 15s-52 24.167 -71 42.5s-33.5 40.5 -43.5 66.5s-15 54.667 -15 86zM684.001 629.002c-6.66699 0 -10 3.33301 -10 10v60c0 6.66699 3.33301 10 10 10h52c6.66699 0 10 -3.33301 10 -10v-60
c0 -6.66699 -3.33301 -10 -10 -10h-52zM749.001 501.002c-6.66699 0 -10 3.33301 -10 10v60c0 6.66699 3.33301 10 10 10h52c6.66699 0 10 -3.33301 10 -10v-60c0 -6.66699 -3.33301 -10 -10 -10h-52zM621.001 501.002c-6.66699 0 -10 3.33301 -10 10v60
c0 6.66699 3.33301 10 10 10h52c6.66699 0 10 -3.33301 10 -10v-60c0 -6.66699 -3.33301 -10 -10 -10h-52z" />
    <glyph glyph-name="aShin.init" unicode="&#x634;" horiz-adv-x="753" arabic-form="initial" 
d="M685 131c0 -28 -3.00098 -50.4971 -9.00098 -67.4971s-14.167 -30.167 -24.5 -39.5s-22.5 -15.666 -36.5 -18.999s-29 -5 -45 -5h-41c-18.667 0 -37 4.16699 -55 12.5s-31.333 21.166 -40 38.499c-8 -16 -19.333 -28.5 -34 -37.5s-35.334 -13.5 -62.001 -13.5h-46
c-18.667 0 -37 4.16699 -55 12.5s-31.333 21.166 -40 38.499c-8 -16 -19.167 -28.5 -33.5 -37.5s-35.5 -13.5 -63.5 -13.5h-107c-10 0 -18 2 -24 6s-9 10 -9 18c0 13.333 3.16699 22 9.5 26s16.5 6 30.5 6h103c12.667 0 22.5 1.83301 29.5 5.5s12.167 9 15.5 16
s5.33301 16 6 27s1 23.833 1 38.5v157c0 6.66699 3.33301 10 10 10h36c6.66699 0 10 -3.33301 10 -10v-170c0 -24 9 -42.333 27 -55s42 -19 72 -19c18.667 0 33.5 1 44.5 3s19.333 6.16699 25 12.5s9.16699 15.166 10.5 26.499s2 26.333 2 45v157
c0 6.66699 3.33301 10 10 10h36c6.66699 0 10 -3.33301 10 -10v-175c0 -22.667 9.33301 -39.834 28 -51.501s43.334 -17.5 74.001 -17.5c18.667 0 33.334 1.16699 44.001 3.5s18.5 6.83301 23.5 13.5s8.16699 15.5 9.5 26.5s2 25.5 2 43.5v250c0 6.66699 3.33301 10 10 10
h36c6.66699 0 10 -3.33301 10 -10v-262zM391.999 629.003c-6.66699 0 -10 3.33301 -10 10v60c0 6.66699 3.33301 10 10 10h52c6.66699 0 10 -3.33301 10 -10v-60c0 -6.66699 -3.33301 -10 -10 -10h-52zM456.999 501.003c-6.66699 0 -10 3.33301 -10 10v60
c0 6.66699 3.33301 10 10 10h52c6.66699 0 10 -3.33301 10 -10v-60c0 -6.66699 -3.33301 -10 -10 -10h-52zM328.999 501.003c-6.66699 0 -10 3.33301 -10 10v60c0 6.66699 3.33301 10 10 10h52c6.66699 0 10 -3.33301 10 -10v-60c0 -6.66699 -3.33301 -10 -10 -10h-52z" />
    <glyph glyph-name="aShin.medi" unicode="&#x634;" horiz-adv-x="787" arabic-form="medial" 
d="M211 130c0 -24 8.99805 -42.3311 26.998 -54.998s42 -19 72 -19c18.667 0 33.5 1 44.5 3s19.333 6.16699 25 12.5s9.16699 15.166 10.5 26.499s2 26.333 2 45v157c0 6.66699 3.33301 10 10 10h36c6.66699 0 10 -3.33301 10 -10v-175
c0 -22.667 9.33301 -39.834 28 -51.501s43.334 -17.5 74.001 -17.5c18.667 0 33.334 1.16699 44.001 3.5s18.5 6.83301 23.5 13.5s8.16699 15.5 9.5 26.5s2 25.5 2 43.5v250c0 6.66699 3.33301 10 10 10h36c6.66699 0 10 -3.33301 10 -10v-262
c0 -25.333 8.83301 -44.166 26.5 -56.499s41.167 -18.5 70.5 -18.5h5c13.333 0 23.333 -2 30 -6s10 -11.667 10 -23s-3.16699 -18.666 -9.5 -21.999s-16.5 -5 -30.5 -5c-27.333 0 -50.666 3.33301 -69.999 10s-34.333 21 -45 43c-8 -17.333 -19.167 -30.5 -33.5 -39.5
s-35.5 -13.5 -63.5 -13.5h-46c-18.667 0 -37 4.16699 -55 12.5s-31.333 21.166 -40 38.499c-8 -16 -19.333 -28.5 -34 -37.5s-35.334 -13.5 -62.001 -13.5h-46c-18.667 0 -37 4.16699 -55 12.5s-31.333 21.166 -40 38.499c-8 -16 -19.167 -28.5 -33.5 -37.5
s-35.5 -13.5 -63.5 -13.5h-107c-10 0 -18 2 -24 6s-9 10 -9 18c0 13.333 3.16699 22 9.5 26s16.5 6 30.5 6h103c12.667 0 22.5 1.83301 29.5 5.5s12.167 9 15.5 16s5.33301 16 6 27s1 23.833 1 38.5v157c0 6.66699 3.33301 10 10 10h36c6.66699 0 10 -3.33301 10 -10v-170z
M391.998 629.002c-6.66699 0 -10 3.33301 -10 10v60c0 6.66699 3.33301 10 10 10h52c6.66699 0 10 -3.33301 10 -10v-60c0 -6.66699 -3.33301 -10 -10 -10h-52zM456.998 501.002c-6.66699 0 -10 3.33301 -10 10v60c0 6.66699 3.33301 10 10 10h52
c6.66699 0 10 -3.33301 10 -10v-60c0 -6.66699 -3.33301 -10 -10 -10h-52zM328.998 501.002c-6.66699 0 -10 3.33301 -10 10v60c0 6.66699 3.33301 10 10 10h52c6.66699 0 10 -3.33301 10 -10v-60c0 -6.66699 -3.33301 -10 -10 -10h-52z" />
    <glyph glyph-name="aSad.fina" unicode="&#x635;" horiz-adv-x="1080" arabic-form="final" 
d="M918 187c0 27.333 -2.66895 52.001 -8.00195 74.001s-14.5 40.667 -27.5 56s-30.5 27.166 -52.5 35.499s-49.333 12.5 -82 12.5c-22 0 -44.167 -2.16699 -66.5 -6.5s-44.166 -10 -65.499 -17s-41.666 -14.667 -60.999 -23s-37 -16.5 -53 -24.5v-238h300
c21.333 0 39.333 1.16699 54 3.5s26.667 8 36 17s16 22.167 20 39.5s6 41 6 71zM500.998 0.000976562c-2 -27.333 -8.00098 -52.8369 -18.001 -76.5039s-24.167 -44 -42.5 -61s-41.166 -30.333 -68.499 -40s-59.333 -14.5 -96 -14.5c-36 0 -68.167 5 -96.5 15
s-52 24.167 -71 42.5s-33.5 40.5 -43.5 66.5s-15 54.667 -15 86c0 42 6.83301 80.333 20.5 115s28.5 63.334 44.5 86.001c2.66699 4 7.33398 4 14.001 0l31 -20c5.33301 -3.33301 6.33301 -7.66602 3 -12.999c-13.333 -20.667 -26 -45.167 -38 -73.5s-18 -57.833 -18 -88.5
c0 -31.333 5.66699 -57.166 17 -77.499s25.666 -36.333 42.999 -48s36.166 -19.834 56.499 -24.501s39.833 -7 58.5 -7c22.667 0 44.167 2.66699 64.5 8s37.833 14 52.5 26s26.334 27.5 35.001 46.5s13 42.167 13 69.5v373c0 6.66699 3.33301 10 10 10h35
c6.66699 0 10 -3.33301 10 -10v-37c34 18.667 71.833 34.667 113.5 48s84.5 20 128.5 20c50 0 90.167 -7.16699 120.5 -21.5s54 -32.833 71 -55.5s28.333 -48 34 -76s8.5 -55.333 8.5 -82c0 -10.667 -0.166992 -20.667 -0.5 -30s-0.5 -17.666 -0.5 -24.999
c0 -25.333 8.83301 -44.166 26.5 -56.499s41.167 -18.5 70.5 -18.5h5c13.333 0 23.333 -1.5 30 -4.5s10 -10.5 10 -22.5c0 -12.667 -3.16699 -20.667 -9.5 -24s-16.5 -5 -30.5 -5c-28.667 0 -54.167 4 -76.5 12s-37.166 24.333 -44.499 49
c-6.66699 -14 -15.334 -25.167 -26.001 -33.5s-23.5 -14.5 -38.5 -18.5s-32.333 -6.5 -52 -7.5s-41.5 -1.5 -65.5 -1.5h-275z" />
    <glyph glyph-name="aSad.init" unicode="&#x635;" horiz-adv-x="716" arabic-form="initial" 
d="M481 56c21.333 0 39.3311 1.16992 53.998 3.50293s26.667 8 36 17s16 22.167 20 39.5s6 41 6 71c0 27.333 -2.66699 52 -8 74s-14.5 40.667 -27.5 56s-30.5 27.166 -52.5 35.499s-49.333 12.5 -82 12.5c-22 0 -44.167 -2.16699 -66.5 -6.5
s-44.166 -9.83301 -65.499 -16.5s-41.666 -14.334 -60.999 -23.001s-37 -17 -53 -25v-185c0 -20.667 -2 -38.334 -6 -53.001h306zM180.998 353.003c34 18.667 71.833 34.666 113.5 47.999s84.5 20 128.5 20c50 0 90.167 -7.16699 120.5 -21.5s54 -32.833 71 -55.5
s28.333 -48 34 -76s8.5 -55.333 8.5 -82c0 -43.333 -3.83301 -77.5 -11.5 -102.5s-19.5 -43.667 -35.5 -56s-36.833 -20 -62.5 -23s-56.5 -4.5 -92.5 -4.5h-262c-10 0 -20.667 1 -32 3s-20 5 -26 9c-9.33301 -5.33301 -20.5 -8.66602 -33.5 -9.99902s-26.167 -2 -39.5 -2
h-62c-13.333 0 -23.333 2 -30 6s-10 11 -10 21c0 11.333 3.16699 19 9.5 23s16.5 6 30.5 6h74c24 0 38.667 6.66699 44 20s8 35 8 65v248c0 6.66699 3.33301 10 10 10h35c6.66699 0 10 -3.33301 10 -10v-36z" />
    <glyph glyph-name="aSad.medi" unicode="&#x635;" horiz-adv-x="758" arabic-form="medial" 
d="M481 56c21.333 0 39.3311 1.16992 53.998 3.50293s26.667 8 36 17s16 22.167 20 39.5s6 41 6 71c0 27.333 -2.66699 52 -8 74s-14.5 40.667 -27.5 56s-30.5 27.166 -52.5 35.499s-49.333 12.5 -82 12.5c-22 0 -44.167 -2.16699 -66.5 -6.5
s-44.166 -9.83301 -65.499 -16.5s-41.666 -14.334 -60.999 -23.001s-37 -17 -53 -25v-185c0 -20.667 -2 -38.334 -6 -53.001h306zM656.998 186.003c0 -10.667 -0.167969 -20.6699 -0.500977 -30.0029s-0.5 -17.666 -0.5 -24.999c0 -25.333 8.83301 -44.166 26.5 -56.499
s41.167 -18.5 70.5 -18.5h5c13.333 0 23.333 -1.5 30 -4.5s10 -10.5 10 -22.5c0 -12.667 -3.16699 -20.667 -9.5 -24s-16.5 -5 -30.5 -5c-28.667 0 -54.167 4 -76.5 12s-37.166 24.333 -44.499 49c-6.66699 -14 -15.334 -25.167 -26.001 -33.5s-23.5 -14.5 -38.5 -18.5
s-32.333 -6.5 -52 -7.5s-41.5 -1.5 -65.5 -1.5h-262c-10 0 -20.667 1 -32 3s-20 5 -26 9c-9.33301 -5.33301 -20.5 -8.66602 -33.5 -9.99902s-26.167 -2 -39.5 -2h-62c-13.333 0 -23.333 2 -30 6s-10 11 -10 21c0 11.333 3.16699 19 9.5 23s16.5 6 30.5 6h74
c24 0 38.667 6.66699 44 20s8 35 8 65v248c0 6.66699 3.33301 10 10 10h35c6.66699 0 10 -3.33301 10 -10v-36c34 18.667 71.833 34.667 113.5 48s84.5 20 128.5 20c78.667 0 137.334 -20 176.001 -60s58 -98.333 58 -175z" />
    <glyph glyph-name="aDad.fina" unicode="&#x636;" horiz-adv-x="1080" arabic-form="final" 
d="M918 187c0 27.333 -2.66895 52.001 -8.00195 74.001s-14.5 40.667 -27.5 56s-30.5 27.166 -52.5 35.499s-49.333 12.5 -82 12.5c-22 0 -44.167 -2.16699 -66.5 -6.5s-44.166 -10 -65.499 -17s-41.666 -14.667 -60.999 -23s-37 -16.5 -53 -24.5v-238h300
c21.333 0 39.333 1.16699 54 3.5s26.667 8 36 17s16 22.167 20 39.5s6 41 6 71zM500.998 0.000976562c-2 -27.333 -8.00098 -52.8369 -18.001 -76.5039s-24.167 -44 -42.5 -61s-41.166 -30.333 -68.499 -40s-59.333 -14.5 -96 -14.5c-36 0 -68.167 5 -96.5 15
s-52 24.167 -71 42.5s-33.5 40.5 -43.5 66.5s-15 54.667 -15 86c0 42 6.83301 80.333 20.5 115s28.5 63.334 44.5 86.001c2.66699 4 7.33398 4 14.001 0l31 -20c5.33301 -3.33301 6.33301 -7.66602 3 -12.999c-13.333 -20.667 -26 -45.167 -38 -73.5s-18 -57.833 -18 -88.5
c0 -31.333 5.66699 -57.166 17 -77.499s25.666 -36.333 42.999 -48s36.166 -19.834 56.499 -24.501s39.833 -7 58.5 -7c22.667 0 44.167 2.66699 64.5 8s37.833 14 52.5 26s26.334 27.5 35.001 46.5s13 42.167 13 69.5v373c0 6.66699 3.33301 10 10 10h35
c6.66699 0 10 -3.33301 10 -10v-37c34 18.667 71.833 34.667 113.5 48s84.5 20 128.5 20c50 0 90.167 -7.16699 120.5 -21.5s54 -32.833 71 -55.5s28.333 -48 34 -76s8.5 -55.333 8.5 -82c0 -10.667 -0.166992 -20.667 -0.5 -30s-0.5 -17.666 -0.5 -24.999
c0 -25.333 8.83301 -44.166 26.5 -56.499s41.167 -18.5 70.5 -18.5h5c13.333 0 23.333 -1.5 30 -4.5s10 -10.5 10 -22.5c0 -12.667 -3.16699 -20.667 -9.5 -24s-16.5 -5 -30.5 -5c-28.667 0 -54.167 4 -76.5 12s-37.166 24.333 -44.499 49
c-6.66699 -14 -15.334 -25.167 -26.001 -33.5s-23.5 -14.5 -38.5 -18.5s-32.333 -6.5 -52 -7.5s-41.5 -1.5 -65.5 -1.5h-275zM729.997 500.997c-6.66699 0 -10 3.33301 -10 10v60c0 6.66699 3.33301 10 10 10h40c6.66699 0 10 -3.33301 10 -10v-60
c0 -6.66699 -3.33301 -10 -10 -10h-40z" />
    <glyph glyph-name="aDad.init" unicode="&#x636;" horiz-adv-x="716" arabic-form="initial" 
d="M481 56c21.333 0 39.3311 1.16992 53.998 3.50293s26.667 8 36 17s16 22.167 20 39.5s6 41 6 71c0 27.333 -2.66699 52 -8 74s-14.5 40.667 -27.5 56s-30.5 27.166 -52.5 35.499s-49.333 12.5 -82 12.5c-22 0 -44.167 -2.16699 -66.5 -6.5
s-44.166 -9.83301 -65.499 -16.5s-41.666 -14.334 -60.999 -23.001s-37 -17 -53 -25v-185c0 -20.667 -2 -38.334 -6 -53.001h306zM180.998 353.003c34 18.667 71.833 34.666 113.5 47.999s84.5 20 128.5 20c50 0 90.167 -7.16699 120.5 -21.5s54 -32.833 71 -55.5
s28.333 -48 34 -76s8.5 -55.333 8.5 -82c0 -43.333 -3.83301 -77.5 -11.5 -102.5s-19.5 -43.667 -35.5 -56s-36.833 -20 -62.5 -23s-56.5 -4.5 -92.5 -4.5h-262c-10 0 -20.667 1 -32 3s-20 5 -26 9c-9.33301 -5.33301 -20.5 -8.66602 -33.5 -9.99902s-26.167 -2 -39.5 -2
h-62c-13.333 0 -23.333 2 -30 6s-10 11 -10 21c0 11.333 3.16699 19 9.5 23s16.5 6 30.5 6h74c24 0 38.667 6.66699 44 20s8 35 8 65v248c0 6.66699 3.33301 10 10 10h35c6.66699 0 10 -3.33301 10 -10v-36zM409.998 501.002c-6.66699 0 -10 3.33301 -10 10v60
c0 6.66699 3.33301 10 10 10h40c6.66699 0 10 -3.33301 10 -10v-60c0 -6.66699 -3.33301 -10 -10 -10h-40z" />
    <glyph glyph-name="aDad.medi" unicode="&#x636;" horiz-adv-x="758" arabic-form="medial" 
d="M481 56c21.333 0 39.3311 1.16992 53.998 3.50293s26.667 8 36 17s16 22.167 20 39.5s6 41 6 71c0 27.333 -2.66699 52 -8 74s-14.5 40.667 -27.5 56s-30.5 27.166 -52.5 35.499s-49.333 12.5 -82 12.5c-22 0 -44.167 -2.16699 -66.5 -6.5
s-44.166 -9.83301 -65.499 -16.5s-41.666 -14.334 -60.999 -23.001s-37 -17 -53 -25v-185c0 -20.667 -2 -38.334 -6 -53.001h306zM656.998 186.003c0 -10.667 -0.167969 -20.6699 -0.500977 -30.0029s-0.5 -17.666 -0.5 -24.999c0 -25.333 8.83301 -44.166 26.5 -56.499
s41.167 -18.5 70.5 -18.5h5c13.333 0 23.333 -1.5 30 -4.5s10 -10.5 10 -22.5c0 -12.667 -3.16699 -20.667 -9.5 -24s-16.5 -5 -30.5 -5c-28.667 0 -54.167 4 -76.5 12s-37.166 24.333 -44.499 49c-6.66699 -14 -15.334 -25.167 -26.001 -33.5s-23.5 -14.5 -38.5 -18.5
s-32.333 -6.5 -52 -7.5s-41.5 -1.5 -65.5 -1.5h-262c-10 0 -20.667 1 -32 3s-20 5 -26 9c-9.33301 -5.33301 -20.5 -8.66602 -33.5 -9.99902s-26.167 -2 -39.5 -2h-62c-13.333 0 -23.333 2 -30 6s-10 11 -10 21c0 11.333 3.16699 19 9.5 23s16.5 6 30.5 6h74
c24 0 38.667 6.66699 44 20s8 35 8 65v248c0 6.66699 3.33301 10 10 10h35c6.66699 0 10 -3.33301 10 -10v-36c34 18.667 71.833 34.667 113.5 48s84.5 20 128.5 20c78.667 0 137.334 -20 176.001 -60s58 -98.333 58 -175zM409.997 501c-6.66699 0 -10 3.33301 -10 10v60
c0 6.66699 3.33301 10 10 10h40c6.66699 0 10 -3.33301 10 -10v-60c0 -6.66699 -3.33301 -10 -10 -10h-40z" />
    <glyph glyph-name="aTah.fina" unicode="&#x637;" horiz-adv-x="766" arabic-form="final" 
d="M41 0c-6.66699 0 -9.99805 3.33105 -9.99805 9.99805v36c0 6.66699 3.33301 10 10 10h32c11.333 0 20.833 1.16699 28.5 3.5s13.667 6.83301 18 13.5s7.33301 15.5 9 26.5s2.5 25.167 2.5 42.5v528c0 6.66699 3.33301 10 10 10h36c6.66699 0 10 -3.33301 10 -10v-317
c34 18.667 71.667 34.667 113 48s84 20 128 20c50 0 90.333 -7.16699 121 -21.5s54.5 -32.833 71.5 -55.5s28.333 -48 34 -76s8.5 -55.333 8.5 -82c0 -10.667 -0.166992 -20.667 -0.5 -30s-0.5 -17.666 -0.5 -24.999c0 -25.333 8.83301 -44.166 26.5 -56.499
s41.167 -18.5 70.5 -18.5h5c13.333 0 23.333 -1.83301 30 -5.5s10 -10.167 10 -19.5c0 -15.333 -3.16699 -24.333 -9.5 -27s-16.5 -4 -30.5 -4c-28.667 0 -54.334 4 -77.001 12s-37.334 24.333 -44.001 49c-7.33301 -14 -16.5 -25.167 -27.5 -33.5
s-23.833 -14.5 -38.5 -18.5s-31.667 -6.5 -51 -7.5s-41 -1.5 -65 -1.5h-298c-5.33301 0 -11 0.666992 -17 2s-11 3.66602 -15 6.99902c-6.66699 -3.33301 -14 -5.66602 -22 -6.99902s-18.333 -2 -31 -2h-37zM487.002 55.998c21.333 0 39.332 1.16797 53.999 3.50098
s26.5 8 35.5 17s15.5 22.167 19.5 39.5s6 41 6 71c0 27.333 -2.66699 52 -8 74s-14.5 40.667 -27.5 56s-30.333 27.166 -52 35.499s-48.834 12.5 -81.501 12.5c-22 0 -44.333 -2.16699 -67 -6.5s-44.667 -9.83301 -66 -16.5s-41.666 -14.334 -60.999 -23.001
s-36.666 -17 -51.999 -25v-175c0 -10 -1 -21.167 -3 -33.5s-4.66699 -22.166 -8 -29.499h311z" />
    <glyph glyph-name="aTah.init" unicode="&#x637;" horiz-adv-x="710" arabic-form="initial" 
d="M61 56c11.333 0 20.833 1.16797 28.5 3.50098s13.667 6.83301 18 13.5s7.33301 15.5 9 26.5s2.5 25.167 2.5 42.5v528c0 6.66699 3.33301 10 10 10h36c6.66699 0 10 -3.33301 10 -10v-317c34 18.667 71.667 34.667 113 48s84 20 128 20c50 0 90.333 -7.16699 121 -21.5
s54.5 -32.833 71.5 -55.5s28.333 -48 34 -76s8.5 -55.333 8.5 -82c0 -43.333 -3.83301 -77.333 -11.5 -102s-19.5 -43.334 -35.5 -56.001s-36.833 -20.5 -62.5 -23.5s-56.5 -4.5 -92.5 -4.5h-298c-5.33301 0 -11 0.666992 -17 2s-11 3.66602 -15 6.99902
c-6.66699 -3.33301 -14 -5.66602 -22 -6.99902s-18.333 -2 -31 -2h-66c-13.333 0 -23.333 1.66699 -30 5s-10 11 -10 23c0 18.667 13.333 28 40 28h61zM475 56.001c21.333 0 39.332 1.16797 53.999 3.50098s26.5 8 35.5 17s15.5 22.167 19.5 39.5s6 41 6 71
c0 27.333 -2.66699 52 -8 74s-14.5 40.667 -27.5 56s-30.333 27.166 -52 35.499s-48.834 12.5 -81.501 12.5c-22 0 -44.333 -2.16699 -67 -6.5s-44.667 -9.83301 -66 -16.5s-41.666 -14.334 -60.999 -23.001s-36.666 -17 -51.999 -25v-175c0 -10 -1 -21.167 -3 -33.5
s-4.66699 -22.166 -8 -29.499h311z" />
    <glyph glyph-name="aTah.medi" unicode="&#x637;" horiz-adv-x="752" arabic-form="medial" 
d="M631 61c-7.33301 -14 -16.498 -25.1689 -27.498 -33.502s-23.833 -14.5 -38.5 -18.5s-31.667 -6.5 -51 -7.5s-41 -1.5 -65 -1.5h-298c-5.33301 0 -11 0.666992 -17 2s-11 3.66602 -15 6.99902c-6.66699 -3.33301 -14 -5.66602 -22 -6.99902s-18.333 -2 -31 -2h-66
c-13.333 0 -23.333 1.66699 -30 5s-10 11 -10 23c0 18.667 13.333 28 40 28h61c11.333 0 20.833 1.16699 28.5 3.5s13.667 6.83301 18 13.5s7.33301 15.5 9 26.5s2.5 25.167 2.5 42.5v528c0 6.66699 3.33301 10 10 10h36c6.66699 0 10 -3.33301 10 -10v-317
c34 18.667 71.667 34.667 113 48s84 20 128 20c50 0 90.333 -7.16699 121 -21.5s54.5 -32.833 71.5 -55.5s28.333 -48 34 -76s8.5 -55.333 8.5 -82c0 -10.667 -0.166992 -20.667 -0.5 -30s-0.5 -17.666 -0.5 -24.999c0 -25.333 8.83301 -44.166 26.5 -56.499
s41.167 -18.5 70.5 -18.5h5c13.333 0 23.333 -1.83301 30 -5.5s10 -10.167 10 -19.5c0 -15.333 -3.16699 -24.333 -9.5 -27s-16.5 -4 -30.5 -4c-28.667 0 -54.334 4 -77.001 12s-37.334 24.333 -44.001 49zM475.002 55.998c21.333 0 39.332 1.16797 53.999 3.50098
s26.5 8 35.5 17s15.5 22.167 19.5 39.5s6 41 6 71c0 27.333 -2.66699 52 -8 74s-14.5 40.667 -27.5 56s-30.333 27.166 -52 35.499s-48.834 12.5 -81.501 12.5c-22 0 -44.333 -2.16699 -67 -6.5s-44.667 -9.83301 -66 -16.5s-41.666 -14.334 -60.999 -23.001
s-36.666 -17 -51.999 -25v-175c0 -10 -1 -21.167 -3 -33.5s-4.66699 -22.166 -8 -29.499h311z" />
    <glyph glyph-name="aZah.fina" unicode="&#x638;" horiz-adv-x="766" arabic-form="final" 
d="M41 0c-6.66699 0 -9.99805 3.33105 -9.99805 9.99805v36c0 6.66699 3.33301 10 10 10h32c11.333 0 20.833 1.16699 28.5 3.5s13.667 6.83301 18 13.5s7.33301 15.5 9 26.5s2.5 25.167 2.5 42.5v528c0 6.66699 3.33301 10 10 10h36c6.66699 0 10 -3.33301 10 -10v-317
c34 18.667 71.667 34.667 113 48s84 20 128 20c50 0 90.333 -7.16699 121 -21.5s54.5 -32.833 71.5 -55.5s28.333 -48 34 -76s8.5 -55.333 8.5 -82c0 -10.667 -0.166992 -20.667 -0.5 -30s-0.5 -17.666 -0.5 -24.999c0 -25.333 8.83301 -44.166 26.5 -56.499
s41.167 -18.5 70.5 -18.5h5c13.333 0 23.333 -1.83301 30 -5.5s10 -10.167 10 -19.5c0 -15.333 -3.16699 -24.333 -9.5 -27s-16.5 -4 -30.5 -4c-28.667 0 -54.334 4 -77.001 12s-37.334 24.333 -44.001 49c-7.33301 -14 -16.5 -25.167 -27.5 -33.5
s-23.833 -14.5 -38.5 -18.5s-31.667 -6.5 -51 -7.5s-41 -1.5 -65 -1.5h-298c-5.33301 0 -11 0.666992 -17 2s-11 3.66602 -15 6.99902c-6.66699 -3.33301 -14 -5.66602 -22 -6.99902s-18.333 -2 -31 -2h-37zM487.002 55.998c21.333 0 39.332 1.16797 53.999 3.50098
s26.5 8 35.5 17s15.5 22.167 19.5 39.5s6 41 6 71c0 27.333 -2.66699 52 -8 74s-14.5 40.667 -27.5 56s-30.333 27.166 -52 35.499s-48.834 12.5 -81.501 12.5c-22 0 -44.333 -2.16699 -67 -6.5s-44.667 -9.83301 -66 -16.5s-41.666 -14.334 -60.999 -23.001
s-36.666 -17 -51.999 -25v-175c0 -10 -1 -21.167 -3 -33.5s-4.66699 -22.166 -8 -29.499h311zM403.001 500.999c-6.66699 0 -10 3.33301 -10 10v60c0 6.66699 3.33301 10 10 10h40c6.66699 0 10 -3.33301 10 -10v-60c0 -6.66699 -3.33301 -10 -10 -10h-40z" />
    <glyph glyph-name="aZah.init" unicode="&#x638;" horiz-adv-x="710" arabic-form="initial" 
d="M61 56c11.333 0 20.833 1.16797 28.5 3.50098s13.667 6.83301 18 13.5s7.33301 15.5 9 26.5s2.5 25.167 2.5 42.5v528c0 6.66699 3.33301 10 10 10h36c6.66699 0 10 -3.33301 10 -10v-317c34 18.667 71.667 34.667 113 48s84 20 128 20c50 0 90.333 -7.16699 121 -21.5
s54.5 -32.833 71.5 -55.5s28.333 -48 34 -76s8.5 -55.333 8.5 -82c0 -43.333 -3.83301 -77.333 -11.5 -102s-19.5 -43.334 -35.5 -56.001s-36.833 -20.5 -62.5 -23.5s-56.5 -4.5 -92.5 -4.5h-298c-5.33301 0 -11 0.666992 -17 2s-11 3.66602 -15 6.99902
c-6.66699 -3.33301 -14 -5.66602 -22 -6.99902s-18.333 -2 -31 -2h-66c-13.333 0 -23.333 1.66699 -30 5s-10 11 -10 23c0 18.667 13.333 28 40 28h61zM475 56.001c21.333 0 39.332 1.16797 53.999 3.50098s26.5 8 35.5 17s15.5 22.167 19.5 39.5s6 41 6 71
c0 27.333 -2.66699 52 -8 74s-14.5 40.667 -27.5 56s-30.333 27.166 -52 35.499s-48.834 12.5 -81.501 12.5c-22 0 -44.333 -2.16699 -67 -6.5s-44.667 -9.83301 -66 -16.5s-41.666 -14.334 -60.999 -23.001s-36.666 -17 -51.999 -25v-175c0 -10 -1 -21.167 -3 -33.5
s-4.66699 -22.166 -8 -29.499h311zM390.999 501.002c-6.66699 0 -10 3.33301 -10 10v60c0 6.66699 3.33301 10 10 10h40c6.66699 0 10 -3.33301 10 -10v-60c0 -6.66699 -3.33301 -10 -10 -10h-40z" />
    <glyph glyph-name="aZah.medi" unicode="&#x638;" horiz-adv-x="752" arabic-form="medial" 
d="M631 61c-7.33301 -14 -16.498 -25.1689 -27.498 -33.502s-23.833 -14.5 -38.5 -18.5s-31.667 -6.5 -51 -7.5s-41 -1.5 -65 -1.5h-298c-5.33301 0 -11 0.666992 -17 2s-11 3.66602 -15 6.99902c-6.66699 -3.33301 -14 -5.66602 -22 -6.99902s-18.333 -2 -31 -2h-66
c-13.333 0 -23.333 1.66699 -30 5s-10 11 -10 23c0 18.667 13.333 28 40 28h61c11.333 0 20.833 1.16699 28.5 3.5s13.667 6.83301 18 13.5s7.33301 15.5 9 26.5s2.5 25.167 2.5 42.5v528c0 6.66699 3.33301 10 10 10h36c6.66699 0 10 -3.33301 10 -10v-317
c34 18.667 71.667 34.667 113 48s84 20 128 20c50 0 90.333 -7.16699 121 -21.5s54.5 -32.833 71.5 -55.5s28.333 -48 34 -76s8.5 -55.333 8.5 -82c0 -10.667 -0.166992 -20.667 -0.5 -30s-0.5 -17.666 -0.5 -24.999c0 -25.333 8.83301 -44.166 26.5 -56.499
s41.167 -18.5 70.5 -18.5h5c13.333 0 23.333 -1.83301 30 -5.5s10 -10.167 10 -19.5c0 -15.333 -3.16699 -24.333 -9.5 -27s-16.5 -4 -30.5 -4c-28.667 0 -54.334 4 -77.001 12s-37.334 24.333 -44.001 49zM475.002 55.998c21.333 0 39.332 1.16797 53.999 3.50098
s26.5 8 35.5 17s15.5 22.167 19.5 39.5s6 41 6 71c0 27.333 -2.66699 52 -8 74s-14.5 40.667 -27.5 56s-30.333 27.166 -52 35.499s-48.834 12.5 -81.501 12.5c-22 0 -44.333 -2.16699 -67 -6.5s-44.667 -9.83301 -66 -16.5s-41.666 -14.334 -60.999 -23.001
s-36.666 -17 -51.999 -25v-175c0 -10 -1 -21.167 -3 -33.5s-4.66699 -22.166 -8 -29.499h311zM393.001 500.999c-6.66699 0 -10 3.33301 -10 10v60c0 6.66699 3.33301 10 10 10h40c6.66699 0 10 -3.33301 10 -10v-60c0 -6.66699 -3.33301 -10 -10 -10h-40z" />
    <glyph glyph-name="aAyn.fina" unicode="&#x639;" horiz-adv-x="567" arabic-form="final" 
d="M299 90c13.333 8 26.8301 18 40.4971 30s26 25.667 37 41s19.833 31.833 26.5 49.5s10 36.167 10 55.5c0 18 -3.66699 33.167 -11 45.5s-17.166 22.5 -29.499 30.5s-26.666 13.833 -42.999 17.5s-33.833 5.5 -52.5 5.5c-16.667 0 -32.667 -1.33301 -48 -4
s-29.166 -6 -41.499 -10s-23 -8 -32 -12s-15.5 -7.33301 -19.5 -10c41.333 -28 76.333 -61 105 -99s48 -84.667 58 -140zM235.997 -196c-32 0 -60 1.00293 -84 3.00293s-44.333 6.83301 -61 14.5s-29.167 18.667 -37.5 33s-12.5 33.833 -12.5 58.5c0 26 5.5 47.5 16.5 64.5
s25.833 31.167 44.5 42.5s40.5 20.833 65.5 28.5l79.5 23.5c-5.33301 28.667 -13.5 54.167 -24.5 76.5s-23.5 42 -37.5 59s-28.833 31.667 -44.5 44s-30.5 23.166 -44.5 32.499c-8.66699 5.33301 -13 9.66602 -13 12.999v54c0 6 4.83301 13 14.5 21s23 15.667 40 23
s37.5 13.5 61.5 18.5s50 7.5 78 7.5c68 0 117.667 -13.5 149 -40.5s47 -65.5 47 -115.5c0 -21.333 -3.5 -42 -10.5 -62s-16.167 -39 -27.5 -57s-24 -34.167 -38 -48.5s-28 -25.833 -42 -34.5c7.33301 -1.33301 15 -2.83301 23 -4.5s15.333 -2.5 22 -2.5h166
c13.333 0 23.333 -1 30 -3s10 -8.66699 10 -20c0 -13.333 -3.16699 -22.166 -9.5 -26.499s-16.5 -6.5 -30.5 -6.5h-145c-19.333 0 -40 2.33301 -62 7s-41.667 12.667 -59 24c-20 -8 -41.833 -15.167 -65.5 -21.5s-45.667 -13.333 -66 -21s-37.166 -17.334 -50.499 -29.001
s-20 -26.834 -20 -45.501c0 -11.333 2.16699 -20.5 6.5 -27.5s11.666 -12.5 21.999 -16.5s24 -6.66699 41 -8s38.167 -2 63.5 -2h59c6.66699 0 10 -3.33301 10 -10v-36c0 -6.66699 -3.33301 -10 -10 -10h-54z" />
    <glyph glyph-name="aAyn.init" unicode="&#x639;" horiz-adv-x="514" arabic-form="initial" 
d="M67 217c0 16.667 2.33203 36.832 6.99902 60.499s14.167 46 28.5 67s34.833 39 61.5 54s62 22.5 106 22.5c38 0 70.167 -7 96.5 -21s48.166 -32.667 65.499 -56c3.33301 -6 2.33301 -10.667 -3 -14l-30 -22c-5.33301 -4 -10 -3.66699 -14 1
c-30 37.333 -68.667 56 -116 56c-25.333 0 -47 -3.83301 -65 -11.5s-32.667 -18.167 -44 -31.5s-19.666 -28.666 -24.999 -45.999s-8 -36 -8 -56c0 -29.333 4.66699 -54 14 -74s20.333 -36.5 33 -49.5s25.334 -22.667 38.001 -29s22 -10.166 28 -11.499h216
c6.66699 0 10 -3.33301 10 -10v-36c0 -6.66699 -3.33301 -10 -10 -10h-456c-13.333 0 -23.333 1.66699 -30 5s-10 10.333 -10 21c0 13.333 3.16699 21.666 9.5 24.999s16.5 5 30.5 5h131c-18 16.667 -33.167 38.5 -45.5 65.5s-18.5 58.833 -18.5 95.5z" />
    <glyph glyph-name="aAyn.medi" unicode="&#x639;" horiz-adv-x="526" arabic-form="medial" 
d="M264 421c68 0 117.664 -13.499 148.997 -40.499s47 -65.5 47 -115.5c0 -22 -3.83301 -43.5 -11.5 -64.5s-17.5 -40.5 -29.5 -58.5s-25.333 -34.167 -40 -48.5s-29 -25.833 -43 -34.5c3.33301 -1.33301 8 -2.16602 14 -2.49902s11 -0.5 15 -0.5h161
c17.333 0 28.666 -2.66699 33.999 -8s8 -12 8 -20c0 -11.333 -3.16699 -18.833 -9.5 -22.5s-17.166 -5.5 -32.499 -5.5h-132c-24 0 -46.667 1.83301 -68 5.5s-41.666 11.5 -60.999 23.5c-21.333 -13.333 -44.666 -21.5 -69.999 -24.5s-47.666 -4.5 -66.999 -4.5h-128
c-14.667 0 -25.167 1.66699 -31.5 5s-9.5 11 -9.5 23c0 10.667 2.66699 18 8 22s16.333 6 33 6h141c19.333 0 36 1.16699 50 3.5s28.333 6.5 43 12.5c-5.33301 28.667 -13.5 54.167 -24.5 76.5s-23.5 42 -37.5 59s-28.833 31.667 -44.5 44s-30.5 23.166 -44.5 32.499
c-8.66699 5.33301 -13 9.66602 -13 12.999v54c0 6 4.83301 13 14.5 21s23 15.667 40 23s37.5 13.5 61.5 18.5s50 7.5 78 7.5zM285.997 90.001c13.333 8 26.8301 18 40.4971 30s26 25.667 37 41s19.833 31.833 26.5 49.5s10 36.167 10 55.5c0 18 -3.66699 33.167 -11 45.5
s-17.166 22.5 -29.499 30.5s-26.666 13.833 -42.999 17.5s-33.833 5.5 -52.5 5.5c-16.667 0 -32.667 -1.33301 -48 -4s-29.166 -6 -41.499 -10s-23 -8 -32 -12s-15.5 -7.33301 -19.5 -10c41.333 -28 76.333 -61 105 -99s48 -84.667 58 -140z" />
    <glyph glyph-name="aGhayn.fina" unicode="&#x63a;" horiz-adv-x="567" arabic-form="final" 
d="M299 90c13.333 8 26.8301 18 40.4971 30s26 25.667 37 41s19.833 31.833 26.5 49.5s10 36.167 10 55.5c0 18 -3.66699 33.167 -11 45.5s-17.166 22.5 -29.499 30.5s-26.666 13.833 -42.999 17.5s-33.833 5.5 -52.5 5.5c-16.667 0 -32.667 -1.33301 -48 -4
s-29.166 -6 -41.499 -10s-23 -8 -32 -12s-15.5 -7.33301 -19.5 -10c41.333 -28 76.333 -61 105 -99s48 -84.667 58 -140zM235.997 -196c-32 0 -60 1.00293 -84 3.00293s-44.333 6.83301 -61 14.5s-29.167 18.667 -37.5 33s-12.5 33.833 -12.5 58.5c0 26 5.5 47.5 16.5 64.5
s25.833 31.167 44.5 42.5s40.5 20.833 65.5 28.5l79.5 23.5c-5.33301 28.667 -13.5 54.167 -24.5 76.5s-23.5 42 -37.5 59s-28.833 31.667 -44.5 44s-30.5 23.166 -44.5 32.499c-8.66699 5.33301 -13 9.66602 -13 12.999v54c0 6 4.83301 13 14.5 21s23 15.667 40 23
s37.5 13.5 61.5 18.5s50 7.5 78 7.5c68 0 117.667 -13.5 149 -40.5s47 -65.5 47 -115.5c0 -21.333 -3.5 -42 -10.5 -62s-16.167 -39 -27.5 -57s-24 -34.167 -38 -48.5s-28 -25.833 -42 -34.5c7.33301 -1.33301 15 -2.83301 23 -4.5s15.333 -2.5 22 -2.5h166
c13.333 0 23.333 -1 30 -3s10 -8.66699 10 -20c0 -13.333 -3.16699 -22.166 -9.5 -26.499s-16.5 -6.5 -30.5 -6.5h-145c-19.333 0 -40 2.33301 -62 7s-41.667 12.667 -59 24c-20 -8 -41.833 -15.167 -65.5 -21.5s-45.667 -13.333 -66 -21s-37.166 -17.334 -50.499 -29.001
s-20 -26.834 -20 -45.501c0 -11.333 2.16699 -20.5 6.5 -27.5s11.666 -12.5 21.999 -16.5s24 -6.66699 41 -8s38.167 -2 63.5 -2h59c6.66699 0 10 -3.33301 10 -10v-36c0 -6.66699 -3.33301 -10 -10 -10h-54zM278.997 501.003c-6.66699 0 -10 3.33301 -10 10v60
c0 6.66699 3.33301 10 10 10h40c6.66699 0 10 -3.33301 10 -10v-60c0 -6.66699 -3.33301 -10 -10 -10h-40z" />
    <glyph glyph-name="aGhayn.init" unicode="&#x63a;" horiz-adv-x="514" arabic-form="initial" 
d="M67 217c0 16.667 2.33203 36.832 6.99902 60.499s14.167 46 28.5 67s34.833 39 61.5 54s62 22.5 106 22.5c38 0 70.167 -7 96.5 -21s48.166 -32.667 65.499 -56c3.33301 -6 2.33301 -10.667 -3 -14l-30 -22c-5.33301 -4 -10 -3.66699 -14 1
c-30 37.333 -68.667 56 -116 56c-25.333 0 -47 -3.83301 -65 -11.5s-32.667 -18.167 -44 -31.5s-19.666 -28.666 -24.999 -45.999s-8 -36 -8 -56c0 -29.333 4.66699 -54 14 -74s20.333 -36.5 33 -49.5s25.334 -22.667 38.001 -29s22 -10.166 28 -11.499h216
c6.66699 0 10 -3.33301 10 -10v-36c0 -6.66699 -3.33301 -10 -10 -10h-456c-13.333 0 -23.333 1.66699 -30 5s-10 10.333 -10 21c0 13.333 3.16699 21.666 9.5 24.999s16.5 5 30.5 5h131c-18 16.667 -33.167 38.5 -45.5 65.5s-18.5 58.833 -18.5 95.5zM248.999 500.998
c-6.66699 0 -10 3.33301 -10 10v60c0 6.66699 3.33301 10 10 10h40c6.66699 0 10 -3.33301 10 -10v-60c0 -6.66699 -3.33301 -10 -10 -10h-40z" />
    <glyph glyph-name="aGhayn.medi" unicode="&#x63a;" horiz-adv-x="526" arabic-form="medial" 
d="M264 421c68 0 117.664 -13.499 148.997 -40.499s47 -65.5 47 -115.5c0 -22 -3.83301 -43.5 -11.5 -64.5s-17.5 -40.5 -29.5 -58.5s-25.333 -34.167 -40 -48.5s-29 -25.833 -43 -34.5c3.33301 -1.33301 8 -2.16602 14 -2.49902s11 -0.5 15 -0.5h161
c17.333 0 28.666 -2.66699 33.999 -8s8 -12 8 -20c0 -11.333 -3.16699 -18.833 -9.5 -22.5s-17.166 -5.5 -32.499 -5.5h-132c-24 0 -46.667 1.83301 -68 5.5s-41.666 11.5 -60.999 23.5c-21.333 -13.333 -44.666 -21.5 -69.999 -24.5s-47.666 -4.5 -66.999 -4.5h-128
c-14.667 0 -25.167 1.66699 -31.5 5s-9.5 11 -9.5 23c0 10.667 2.66699 18 8 22s16.333 6 33 6h141c19.333 0 36 1.16699 50 3.5s28.333 6.5 43 12.5c-5.33301 28.667 -13.5 54.167 -24.5 76.5s-23.5 42 -37.5 59s-28.833 31.667 -44.5 44s-30.5 23.166 -44.5 32.499
c-8.66699 5.33301 -13 9.66602 -13 12.999v54c0 6 4.83301 13 14.5 21s23 15.667 40 23s37.5 13.5 61.5 18.5s50 7.5 78 7.5zM285.997 90.001c13.333 8 26.8301 18 40.4971 30s26 25.667 37 41s19.833 31.833 26.5 49.5s10 36.167 10 55.5c0 18 -3.66699 33.167 -11 45.5
s-17.166 22.5 -29.499 30.5s-26.666 13.833 -42.999 17.5s-33.833 5.5 -52.5 5.5c-16.667 0 -32.667 -1.33301 -48 -4s-29.166 -6 -41.499 -10s-23 -8 -32 -12s-15.5 -7.33301 -19.5 -10c41.333 -28 76.333 -61 105 -99s48 -84.667 58 -140zM243.994 501.001
c-6.66699 0 -10 3.33301 -10 10v60c0 6.66699 3.33301 10 10 10h40c6.66699 0 10 -3.33301 10 -10v-60c0 -6.66699 -3.33301 -10 -10 -10h-40z" />
    <glyph glyph-name="aFeh.fina" unicode="&#x641;" horiz-adv-x="957" arabic-form="final" 
d="M698 363c-18.667 0 -35.833 -3 -51.5 -9s-29.334 -14.667 -41.001 -26s-20.834 -25 -27.501 -41s-10 -34 -10 -54c0 -19.333 3.5 -37.666 10.5 -54.999s16.5 -33 28.5 -47s25.833 -26.167 41.5 -36.5s32.167 -18.833 49.5 -25.5c17.333 6.66699 33.833 15.167 49.5 25.5
s29.334 22.5 41.001 36.5s21 29.667 28 47s10.5 35.666 10.5 54.999c0 41.333 -12.167 73.333 -36.5 96s-55.166 34 -92.499 34zM610.001 56c-29.333 21.333 -53.5039 46.666 -72.5039 75.999s-28.5 63.333 -28.5 102c0 24.667 4.33301 48.334 13 71.001s21 42.667 37 60
s35.667 31 59 41s50 15 80 15c30.667 0 57.834 -4.66699 81.501 -14s43.5 -22.333 59.5 -39s28.167 -36.167 36.5 -58.5s12.5 -46.5 12.5 -72.5c0 -19.333 -2.66699 -38 -8 -56s-12.666 -35 -21.999 -51s-20.333 -30.333 -33 -43s-26 -23 -40 -31h172
c13.333 0 23.333 -1.5 30 -4.5s10 -11.167 10 -24.5c0 -10 -3.16699 -17 -9.5 -21s-16.5 -6 -30.5 -6h-129c-24 0 -46.667 1 -68 3s-41.666 9 -60.999 21c-22 -12 -45.5 -19 -70.5 -21s-47.167 -3 -66.5 -3h-399c-42 -0 -72 8.33301 -90 25s-27 45 -27 85v219
c0 6.66699 3.33301 10 10 10h35c6.66699 0 10 -3.33301 10 -10v-220c0 -19.333 3.83301 -33 11.5 -41s19.834 -12 36.501 -12h461zM678.997 501c-6.66699 0 -10 3.33301 -10 10v60c0 6.66699 3.33301 10 10 10h40c6.66699 0 10 -3.33301 10 -10v-60
c0 -6.66699 -3.33301 -10 -10 -10h-40z" />
    <glyph glyph-name="aFeh.init" unicode="&#x641;" horiz-adv-x="518" arabic-form="initial" 
d="M0 0c-14 0 -24.168 1.83301 -30.501 5.5s-9.5 12.167 -9.5 25.5c0 9.33301 3.33301 15.833 10 19.5s16.667 5.5 30 5.5h140c-11.333 18.667 -20.166 40.334 -26.499 65.001s-9.5 53.667 -9.5 87c0 71.333 16.167 124.666 48.5 159.999s74.833 53 127.5 53
c117.333 0 176 -71 176 -213c0 -74 -14.833 -127.167 -44.5 -159.5s-73.5 -48.5 -131.5 -48.5h-280zM279.999 365c-39.333 0 -69 -13.833 -89 -41.5s-30 -64.5 -30 -110.5c0 -54.667 9.33301 -94.5 28 -119.5s49 -37.5 91 -37.5s72.5 11.667 91.5 35s28.5 61.333 28.5 114
c0 49.333 -9.5 88.333 -28.5 117s-49.5 43 -91.5 43zM258.999 501c-6.66699 0 -10 3.33301 -10 10v60c0 6.66699 3.33301 10 10 10h40c6.66699 0 10 -3.33301 10 -10v-60c0 -6.66699 -3.33301 -10 -10 -10h-40z" />
    <glyph glyph-name="aFeh.medi" unicode="&#x641;" horiz-adv-x="504" arabic-form="medial" 
d="M245 421c30.667 0 57.8311 -4.66797 81.498 -14.001s43.5 -22.333 59.5 -39s28.167 -36.167 36.5 -58.5s12.5 -46.5 12.5 -72.5c0 -19.333 -2.66699 -38 -8 -56s-12.666 -35 -21.999 -51s-20.333 -30.333 -33 -43s-26 -23 -40 -31h172c13.333 0 23.333 -1.5 30 -4.5
s10 -11.167 10 -24.5c0 -10 -3.16699 -17 -9.5 -21s-16.5 -6 -30.5 -6h-129c-24 0 -46.667 1 -68 3s-41.666 9 -60.999 21c-22 -12 -45.5 -19 -70.5 -21s-47.167 -3 -66.5 -3h-109c-26.667 0 -40 9.66699 -40 29c0 10.667 3.16699 17.834 9.5 21.501s16.5 5.5 30.5 5.5h157
c-29.333 21.333 -53.5 46.666 -72.5 75.999s-28.5 63.333 -28.5 102c0 24.667 4.33301 48.334 13 71.001s21 42.667 37 60s35.667 31 59 41s50 15 80 15zM244.997 362.999c-18.667 0 -35.833 -3 -51.5 -9s-29.334 -14.667 -41.001 -26s-20.834 -25 -27.501 -41
s-10 -34 -10 -54c0 -19.333 3.5 -37.666 10.5 -54.999s16.5 -33 28.5 -47s25.833 -26.167 41.5 -36.5s32.167 -18.833 49.5 -25.5c17.333 6.66699 33.833 15.167 49.5 25.5s29.334 22.5 41.001 36.5s21 29.667 28 47s10.5 35.666 10.5 54.999
c0 41.333 -12.167 73.333 -36.5 96s-55.166 34 -92.499 34zM222.998 500.999c-6.66699 0 -10 3.33301 -10 10v60c0 6.66699 3.33301 10 10 10h40c6.66699 0 10 -3.33301 10 -10v-60c0 -6.66699 -3.33301 -10 -10 -10h-40z" />
    <glyph glyph-name="aQaf.fina" unicode="&#x642;" horiz-adv-x="734" arabic-form="final" 
d="M486 365c-37.333 0 -66.667 -14.001 -88 -42.001s-32 -67 -32 -117c0 -53.333 10.5 -91.666 31.5 -114.999s53.167 -35 96.5 -35h113v149c0 49.333 -9.5 88.333 -28.5 117s-49.833 43 -92.5 43zM258.999 -196.001c-69.333 0 -123.666 18.9951 -162.999 56.9951
s-59 90.667 -59 158c0 40 6.66699 78.333 20 115s28.666 67.334 45.999 92.001c2.66699 4.66699 7 4.66699 13 0l32 -20c5.33301 -3.33301 6.33301 -7.66602 3 -12.999c-6 -9.33301 -12.333 -20.166 -19 -32.499s-12.834 -25.833 -18.501 -40.5s-10.167 -30.167 -13.5 -46.5
s-5 -32.833 -5 -49.5c0 -29.333 4.5 -54.333 13.5 -75s21.333 -37.5 37 -50.5s34 -22.333 55 -28s43.5 -8.5 67.5 -8.5h228c39.333 0 67.5 4.16699 84.5 12.5s25.5 26.5 25.5 54.5v71h-112c-28 0 -53.333 3.66699 -76 11s-42.167 19.333 -58.5 36s-28.833 38.167 -37.5 64.5
s-13 58.5 -13 96.5c0 36 4.5 67.333 13.5 94s21.5 48.834 37.5 66.501s34.833 30.834 56.5 39.501s45.167 13 70.5 13c117.333 0 176 -71.667 176 -215v-150h71c26.667 0 40 -8.33301 40 -25c0 -14 -3.16699 -22.667 -9.5 -26s-16.5 -5 -30.5 -5h-71v-63
c0 -22 -2 -41.333 -6 -58s-11.667 -30.5 -23 -41.5s-27.166 -19.333 -47.499 -25s-46.5 -8.5 -78.5 -8.5h-249zM520.999 500.994c-6.66699 0 -10 3.33301 -10 10v60c0 6.66699 3.33301 10 10 10h52c6.66699 0 10 -3.33301 10 -10v-60c0 -6.66699 -3.33301 -10 -10 -10h-52z
M392.999 500.994c-6.66699 0 -10 3.33301 -10 10v60c0 6.66699 3.33301 10 10 10h52c6.66699 0 10 -3.33301 10 -10v-60c0 -6.66699 -3.33301 -10 -10 -10h-52z" />
    <glyph glyph-name="aQaf.init" unicode="&#x642;" horiz-adv-x="518" arabic-form="initial" 
d="M0 0c-14 0 -24.168 1.83301 -30.501 5.5s-9.5 12.167 -9.5 25.5c0 9.33301 3.33301 15.833 10 19.5s16.667 5.5 30 5.5h140c-11.333 18.667 -20.166 40.334 -26.499 65.001s-9.5 53.667 -9.5 87c0 71.333 16.167 124.666 48.5 159.999s74.833 53 127.5 53
c117.333 0 176 -71 176 -213c0 -74 -14.833 -127.167 -44.5 -159.5s-73.5 -48.5 -131.5 -48.5h-280zM279.999 365c-39.333 0 -69 -13.833 -89 -41.5s-30 -64.5 -30 -110.5c0 -54.667 9.33301 -94.5 28 -119.5s49 -37.5 91 -37.5s72.5 11.667 91.5 35s28.5 61.333 28.5 114
c0 49.333 -9.5 88.333 -28.5 117s-49.5 43 -91.5 43zM315.999 501c-6.66699 0 -10 3.33301 -10 10v60c0 6.66699 3.33301 10 10 10h52c6.66699 0 10 -3.33301 10 -10v-60c0 -6.66699 -3.33301 -10 -10 -10h-52zM187.999 501c-6.66699 0 -10 3.33301 -10 10v60
c0 6.66699 3.33301 10 10 10h52c6.66699 0 10 -3.33301 10 -10v-60c0 -6.66699 -3.33301 -10 -10 -10h-52z" />
    <glyph glyph-name="aQaf.medi" unicode="&#x642;" horiz-adv-x="504" arabic-form="medial" 
d="M245 421c30.667 0 57.8311 -4.66797 81.498 -14.001s43.5 -22.333 59.5 -39s28.167 -36.167 36.5 -58.5s12.5 -46.5 12.5 -72.5c0 -19.333 -2.66699 -38 -8 -56s-12.666 -35 -21.999 -51s-20.333 -30.333 -33 -43s-26 -23 -40 -31h172c13.333 0 23.333 -1.5 30 -4.5
s10 -11.167 10 -24.5c0 -10 -3.16699 -17 -9.5 -21s-16.5 -6 -30.5 -6h-129c-24 0 -46.667 1 -68 3s-41.666 9 -60.999 21c-22 -12 -45.5 -19 -70.5 -21s-47.167 -3 -66.5 -3h-109c-26.667 0 -40 9.66699 -40 29c0 10.667 3.16699 17.834 9.5 21.501s16.5 5.5 30.5 5.5h157
c-29.333 21.333 -53.5 46.666 -72.5 75.999s-28.5 63.333 -28.5 102c0 24.667 4.33301 48.334 13 71.001s21 42.667 37 60s35.667 31 59 41s50 15 80 15zM244.997 362.999c-18.667 0 -35.833 -3 -51.5 -9s-29.334 -14.667 -41.001 -26s-20.834 -25 -27.501 -41
s-10 -34 -10 -54c0 -19.333 3.5 -37.666 10.5 -54.999s16.5 -33 28.5 -47s25.833 -26.167 41.5 -36.5s32.167 -18.833 49.5 -25.5c17.333 6.66699 33.833 15.167 49.5 25.5s29.334 22.5 41.001 36.5s21 29.667 28 47s10.5 35.666 10.5 54.999
c0 41.333 -12.167 73.333 -36.5 96s-55.166 34 -92.499 34zM281.998 500.999c-6.66699 0 -10 3.33301 -10 10v60c0 6.66699 3.33301 10 10 10h52c6.66699 0 10 -3.33301 10 -10v-60c0 -6.66699 -3.33301 -10 -10 -10h-52zM153.998 500.999c-6.66699 0 -10 3.33301 -10 10v60
c0 6.66699 3.33301 10 10 10h52c6.66699 0 10 -3.33301 10 -10v-60c0 -6.66699 -3.33301 -10 -10 -10h-52z" />
    <glyph glyph-name="aKaf.fina" unicode="&#x643;" horiz-adv-x="847" arabic-form="final" 
d="M744 126c0 -24 9.16602 -41.667 27.499 -53s41.5 -17 69.5 -17h6c13.333 0 23.333 -1.83301 30 -5.5s10 -10.167 10 -19.5c0 -15.333 -3.16699 -24.333 -9.5 -27s-16.5 -4 -30.5 -4c-26.667 0 -49.334 3.66699 -68.001 11s-33.667 20.333 -45 39
c-13.333 -33.333 -44.666 -50 -93.999 -50h-477c-42 -0 -72 8.33301 -90 25s-27 45 -27 85v219c0 6.66699 3.33301 10 10 10h35c6.66699 0 10 -3.33301 10 -10v-220c0 -19.333 3.83301 -33 11.5 -41s19.834 -12 36.501 -12h491c17.333 0 29.833 3.83301 37.5 11.5
s11.5 21.5 11.5 41.5v561c0 6.66699 3.33301 10 10 10h35c6.66699 0 10 -3.33301 10 -10v-544zM405.999 424h21.998c18.667 0 31.834 -4.5 39.501 -13.5s11.5 -20.833 11.5 -35.5v-46c0 -22 -4.16699 -36.833 -12.5 -44.5s-23.166 -11.5 -44.499 -11.5h-107
c-6.66699 0 -10 3.33301 -10 10v18c0 6.66699 3.33301 10 10 10h107c7.33301 0 12.166 1.66699 14.499 5s3.5 8.66602 3.5 15.999v26c0 12 -2.16699 19.667 -6.5 23s-11.166 5 -20.499 5h-56c-6.66699 0 -10 3.33301 -10 10v13c0 4.66699 1.66699 8.66699 5 12l79 94
c5.33301 6.66699 10.666 7.33398 15.999 2.00098l15 -14c4.66699 -4.66699 4.33398 -9.66699 -0.999023 -15z" />
    <glyph glyph-name="aKaf.init" unicode="&#x643;" horiz-adv-x="492" arabic-form="initial" 
d="M81 347c-6.66699 0 -9.99805 3.33594 -9.99805 10.0029v37c0 6 1 9 3 9l222 261c4.66699 5.33301 9 6.33301 13 3l29 -23c6.66699 -4.66699 8 -9.33398 4 -14.001l-192 -227h115c25.333 0 48.5 -3.33301 69.5 -10s38.833 -16.834 53.5 -30.501s26 -31.167 34 -52.5
s12 -47 12 -77v-62c0 -33.333 -2.33301 -61 -7 -83s-12.5 -39.5 -23.5 -52.5s-25.333 -22.167 -43 -27.5s-39.834 -8 -66.501 -8h-294c-13.333 0 -23.333 1.83301 -30 5.5s-10 11.167 -10 22.5c0 12 3.16699 19.667 9.5 23s16.5 5 30.5 5h282c20 0 36.167 1.66699 48.5 5
s21.666 8.83301 27.999 16.5s10.5 18 12.5 31s3 29.167 3 48.5v79c0 37.333 -10 65.166 -30 83.499s-52 27.5 -96 27.5h-167z" />
    <glyph glyph-name="aKaf.medi" unicode="&#x643;" horiz-adv-x="535" arabic-form="medial" 
d="M265 403c25.333 0 48.501 -3.33105 69.501 -9.99805s38.833 -16.834 53.5 -30.501s26 -31.167 34 -52.5s12 -47 12 -77v-101c0 -25.333 8.83301 -44.333 26.5 -57s41.167 -19 70.5 -19h6c13.333 0 23.333 -2 30 -6s10 -11.667 10 -23s-3.16699 -18.666 -9.5 -21.999
s-16.5 -5 -30.5 -5c-28 0 -53 3.66699 -75 11s-37 23 -45 47c-9.33301 -21.333 -23.333 -36.333 -42 -45s-43 -13 -73 -13h-302c-26.667 0 -40 9.33301 -40 28c0 13.333 3.16699 21.333 9.5 24s16.5 4 30.5 4h282c20 0 36.167 1.66699 48.5 5s21.666 8.83301 27.999 16.5
s10.5 18 12.5 31s3 29.167 3 48.5v79c0 37.333 -10 65.166 -30 83.499s-52 27.5 -96 27.5h-167c-6.66699 0 -10 3.33301 -10 10v37c0 6 1 9 3 9l222 261c4.66699 5.33301 9 6.33301 13 3l29 -23c6.66699 -4.66699 8 -9.33398 4 -14.001l-192 -227h115z" />
    <glyph glyph-name="aLam.fina" unicode="&#x644;" horiz-adv-x="600" arabic-form="final" 
d="M443 669c0 6.66699 3.33301 10 10 10h35c6.66699 0 10 -3.33301 10 -10v-538c0 -25.333 7.83301 -44.166 23.5 -56.499s37.5 -18.5 65.5 -18.5h13c16 0 26.667 -1.83301 32 -5.5s8 -11.167 8 -22.5s-3.16699 -18.833 -9.5 -22.5s-16.5 -5.5 -30.5 -5.5
c-20 0 -39.167 2.33301 -57.5 7s-33.166 13 -44.499 25v-13c0 -30.667 -4.5 -58.834 -13.5 -84.501s-22.667 -47.834 -41 -66.501s-41.833 -33.334 -70.5 -44.001s-62.334 -16 -101.001 -16c-36 0 -68.167 5 -96.5 15s-52 24.167 -71 42.5s-33.5 40.5 -43.5 66.5
s-15 54.667 -15 86c0 42 6.83301 80.333 20.5 115s28.5 63.334 44.5 86.001c2.66699 4 7.33398 4 14.001 0l31 -20c5.33301 -3.33301 6.33301 -7.66602 3 -12.999c-13.333 -20.667 -26 -45.167 -38 -73.5s-18 -57.833 -18 -88.5c0 -31.333 5.66699 -57.166 17 -77.499
s25.666 -36.333 42.999 -48s36.166 -19.834 56.499 -24.501s39.833 -7 58.5 -7c22.667 0 44.167 2.66699 64.5 8s37.833 14 52.5 26s26.334 27.5 35.001 46.5s13 42.167 13 69.5v652z" />
    <glyph glyph-name="aLam.init" unicode="&#x644;" horiz-adv-x="255" arabic-form="initial" 
d="M0 0c-13.333 0 -23.333 1.66797 -30 5.00098s-10 10.666 -10 21.999c0 12.667 3.16699 20.667 9.5 24s16.5 5 30.5 5h73c16.667 0 29.5 4 38.5 12s13.5 21.667 13.5 41v561c0 6.66699 3.33301 10 10 10h35c6.66699 0 10 -3.33301 10 -10v-544
c0 -21.333 -1.66699 -40 -5 -56s-9.33301 -29.167 -18 -39.5s-20.5 -18 -35.5 -23s-34.5 -7.5 -58.5 -7.5h-63z" />
    <glyph glyph-name="aLam.medi" unicode="&#x644;" horiz-adv-x="282" arabic-form="medial" 
d="M180 131c0 -25.333 8.83301 -44.167 26.5 -56.5s41.167 -18.5 70.5 -18.5h6c13.333 0 23.333 -1.83301 30 -5.5s10 -10.834 10 -21.501s-3 -18.167 -9 -22.5s-16.333 -6.5 -31 -6.5c-28 0 -52 3.16699 -72 9.5s-34.667 20.833 -44 43.5c-8 -16 -18.667 -28.833 -32 -38.5
s-32.666 -14.5 -57.999 -14.5h-77c-12.667 0 -22.5 1.83301 -29.5 5.5s-10.5 10.834 -10.5 21.501c0 11.333 3.33301 19 10 23s16.667 6 30 6h71c12.667 0 22.667 1.66699 30 5s12.666 8.5 15.999 15.5s5.5 15.833 6.5 26.5s1.5 23 1.5 37v530c0 6.66699 3.33301 10 10 10
h35c6.66699 0 10 -3.33301 10 -10v-539z" />
    <glyph glyph-name="aMim.fina" unicode="&#x645;" horiz-adv-x="602" arabic-form="final" 
d="M182 75c-7.33301 -12 -16.6709 -20.501 -28.0039 -25.501s-22.166 -10.333 -32.499 -16s-19.166 -13.334 -26.499 -23.001s-11 -25.167 -11 -46.5v-160h-55v181c0 20 3.16699 36.5 9.5 49.5s14.333 23.833 24 32.5s20.167 15.834 31.5 21.501s22 11.5 32 17.5
s18.5 12.833 25.5 20.5s11.167 17.834 12.5 30.501c-0.666992 6 -1.16699 12.667 -1.5 20s-0.5 14.333 -0.5 21c0 148.667 58.667 223 176 223c58 0 102 -17.667 132 -53s45 -88.666 45 -159.999c0 -8.66699 -0.166992 -19.834 -0.5 -33.501
s-1.16602 -24.167 -2.49902 -31.5c0 -17.333 1.66699 -31.666 5 -42.999s8 -20.333 14 -27s13.333 -11.167 22 -13.5s18.334 -3.5 29.001 -3.5h21c13.333 0 23.333 -2 30 -6s10 -11.667 10 -23s-3.16699 -18.666 -9.5 -21.999s-16.5 -5 -30.5 -5h-17
c-23.333 0 -44.833 3.5 -64.5 10.5s-35.167 20.167 -46.5 39.5c-15.333 -20.667 -34.666 -35.334 -57.999 -44.001s-49.666 -13 -78.999 -13c-14.667 0 -29.334 1.16699 -44.001 3.5s-28.834 6.66602 -42.501 12.999s-26.5 14.833 -38.5 25.5s-22.333 24 -31 40z
M337.995 364.999c-42 0 -72.333 -14.168 -91 -42.501s-28 -67.5 -28 -117.5c0 -104 39.667 -156 119 -156c42 0 72.5 12.833 91.5 38.5s28.5 64.834 28.5 117.501c0 49.333 -9.5 88.333 -28.5 117s-49.5 43 -91.5 43z" />
    <glyph glyph-name="aMim.init" unicode="&#x645;" horiz-adv-x="527" arabic-form="initial" 
d="M292 -7c-29.333 0 -56.166 4.33398 -80.499 13.001s-43.833 23 -58.5 43c-12 -22 -26 -35.667 -42 -41s-33.333 -8 -52 -8h-59c-13.333 0 -23.333 1.66699 -30 5s-10 10.666 -10 21.999c0 13.333 3.16699 21.5 9.5 24.5s16.5 4.5 30.5 4.5h55
c7.33301 0 14.666 1.33301 21.999 4s14 7.5 20 14.5s11 16.167 15 27.5s6 25.666 6 42.999c-0.666992 8 -1.16699 16.5 -1.5 25.5s-0.5 18.167 -0.5 27.5c0 148.667 58.667 223 176 223c58 0 101.833 -17.667 131.5 -53s44.5 -88.666 44.5 -159.999
c0 -74 -14.833 -128.333 -44.5 -163s-73.5 -52 -131.5 -52zM292 365.001c-42 0 -72.333 -14.167 -91 -42.5s-28 -67.5 -28 -117.5c0 -52.667 9.33301 -91.834 28 -117.501s49 -38.5 91 -38.5s72.5 12.833 91.5 38.5s28.5 64.834 28.5 117.501
c0 49.333 -9.5 88.333 -28.5 117s-49.5 43 -91.5 43z" />
    <glyph glyph-name="aMim.medi" unicode="&#x645;" horiz-adv-x="556" arabic-form="medial" 
d="M466 143c0 -17.333 1.66309 -31.665 4.99609 -42.998s8 -20.333 14 -27s13.333 -11.167 22 -13.5s18.334 -3.5 29.001 -3.5h21c13.333 0 23.333 -2 30 -6s10 -11.667 10 -23s-3.16699 -18.666 -9.5 -21.999s-16.5 -5 -30.5 -5h-17c-23.333 0 -44.833 3.5 -64.5 10.5
s-35.167 20.167 -46.5 39.5c-15.333 -20.667 -34.666 -35.334 -57.999 -44.001s-49.666 -13 -78.999 -13s-56.166 4.33301 -80.499 13s-43.833 23 -58.5 43c-12 -22 -26 -35.667 -42 -41s-33.333 -8 -52 -8h-59c-13.333 0 -23.333 1.66699 -30 5s-10 10.666 -10 21.999
c0 13.333 3.16699 21.5 9.5 24.5s16.5 4.5 30.5 4.5h55c7.33301 0 14.666 1.33301 21.999 4s14 7.5 20 14.5s11 16.167 15 27.5s6 25.666 6 42.999c-0.666992 8 -1.16699 16.5 -1.5 25.5s-0.5 18.167 -0.5 27.5c0 148.667 58.667 223 176 223c58 0 102 -17.667 132 -53
s45 -88.666 45 -159.999c0 -8.66699 -0.166992 -19.834 -0.5 -33.501s-1.16602 -24.167 -2.49902 -31.5zM291.996 365.001c-42 0 -72.333 -14.167 -91 -42.5s-28 -67.5 -28 -117.5c0 -52.667 9.33301 -91.834 28 -117.501s49 -38.5 91 -38.5s72.5 12.833 91.5 38.5
s28.5 64.834 28.5 117.501c0 49.333 -9.5 88.333 -28.5 117s-49.5 43 -91.5 43z" />
    <glyph glyph-name="aNun.fina" unicode="&#x646;" horiz-adv-x="592" arabic-form="final" 
d="M443 305c0 6.66699 3.33398 10 10.001 10h35c6.66699 0 10 -3.33301 10 -10v-174c0 -25.333 7.83301 -44.166 23.5 -56.499s37.5 -18.5 65.5 -18.5h5c16 0 26.667 -1.83301 32 -5.5s8 -11.167 8 -22.5s-3.16699 -18.833 -9.5 -22.5s-16.5 -5.5 -30.5 -5.5
c-20 0 -37.833 2.33301 -53.5 7s-29.167 13 -40.5 25v-13c0 -30.667 -4.5 -58.834 -13.5 -84.501s-22.667 -47.834 -41 -66.501s-41.833 -33.334 -70.5 -44.001s-62.334 -16 -101.001 -16c-36 0 -68.167 5 -96.5 15s-52 24.167 -71 42.5s-33.5 40.5 -43.5 66.5
s-15 54.667 -15 86c0 42 6.83301 80.333 20.5 115s28.5 63.334 44.5 86.001c2.66699 4 7.33398 4 14.001 0l31 -20c5.33301 -3.33301 6.33301 -7.66602 3 -12.999c-13.333 -20.667 -26 -45.167 -38 -73.5s-18 -57.833 -18 -88.5c0 -31.333 5.66699 -57.166 17 -77.499
s25.666 -36.333 42.999 -48s36.166 -19.834 56.499 -24.501s39.833 -7 58.5 -7c22.667 0 44.167 2.66699 64.5 8s37.833 14 52.5 26s26.334 27.5 35.001 46.5s13 42.167 13 69.5v288zM293.001 315c-6.66699 0 -10 3.33301 -10 10v60c0 6.66699 3.33301 10 10 10h40
c6.66699 0 10 -3.33301 10 -10v-60c0 -6.66699 -3.33301 -10 -10 -10h-40z" />
    </font>
</defs>
</svg>
